<svg width="224" height="48" viewBox="0 0 224 48" fill="none" xmlns="http://www.w3.org/2000/svg">
<g clip-path="url(#clip0_355_19371)">
<path d="M62.9383 12.5964C63.4484 12.2982 64.2255 12.0119 65.2656 11.7415C66.3057 11.4711 67.3498 11.3359 68.4058 11.3359C69.9122 11.3359 71.2432 11.5546 72.4028 11.988C73.5625 12.4254 74.3077 13.1093 74.6384 14.0397C75.1804 15.6023 75.7662 17.4194 76.3998 19.491C77.0334 21.5626 77.6631 23.7017 78.2967 25.9125C78.9303 28.1192 79.544 30.2982 80.1497 32.4453C80.7515 34.5924 81.2775 36.493 81.7318 38.1431C81.3691 38.5646 80.8272 38.9025 80.1059 39.157C79.3846 39.4115 78.5238 39.5387 77.5316 39.5387C76.8103 39.5387 76.2006 39.4791 75.7024 39.3598C75.2043 39.2405 74.7978 39.0616 74.483 38.819C74.1682 38.5805 73.9092 38.2624 73.7139 37.8727C73.5186 37.4831 73.3433 37.0338 73.1958 36.5208L72.3829 33.4115H64.2096C63.9665 34.3141 63.7274 35.2445 63.4883 36.2067C63.2452 37.1689 63.0061 38.0994 62.767 38.998C62.3446 39.1491 61.9022 39.2763 61.436 39.3797C60.9697 39.4831 60.4039 39.5387 59.7423 39.5387C58.2081 39.5387 57.0724 39.2763 56.3351 38.7514C55.5979 38.2266 55.2273 37.499 55.2273 36.5646C55.2273 36.1431 55.2871 35.7256 55.4066 35.3041C55.5262 34.8827 55.6617 34.3896 55.8131 33.8171C56.0243 33.0059 56.3152 32 56.6938 30.7992C57.0684 29.5984 57.4828 28.2982 57.9371 26.9025C58.3874 25.5069 58.8696 24.0715 59.3837 22.6004C59.8938 21.1292 60.376 19.7415 60.8303 18.4334C61.2806 17.1252 61.695 15.9642 62.0736 14.9423C62.4482 13.9204 62.7431 13.1411 62.9543 12.6004L62.9383 12.5964ZM68.358 18.4095C67.9356 19.6699 67.4614 21.0735 66.9353 22.6202C66.4093 24.167 65.9351 25.7375 65.5127 27.328H71.1117C70.6892 25.7057 70.2628 24.1232 69.8245 22.5765C69.3861 21.0298 68.9876 19.6421 68.629 18.4095H68.358Z" fill="black"/>
<path d="M98.7438 25.2127C98.7438 24.2823 98.4808 23.5984 97.9548 23.161C97.4287 22.7276 96.7114 22.5089 95.8108 22.5089C95.2091 22.5089 94.6153 22.5844 94.0255 22.7355C93.4397 22.8866 92.9336 23.1133 92.5112 23.4115V39.0457C92.2083 39.1371 91.7341 39.2246 91.0885 39.316C90.439 39.4075 89.7695 39.4512 89.0801 39.4512C88.3907 39.4512 87.8208 39.4075 87.2948 39.316C86.7688 39.2246 86.3224 39.0457 85.9638 38.7753C85.6011 38.5049 85.3222 38.1391 85.1269 37.6699C84.9317 37.2047 84.832 36.5964 84.832 35.8449V22.33C84.832 21.5188 85.0034 20.8588 85.3501 20.3459C85.6968 19.8369 86.171 19.3717 86.7727 18.9502C87.7969 18.2306 89.0841 17.6421 90.6343 17.1928C92.1844 16.7435 93.906 16.5168 95.8028 16.5168C99.2021 16.5168 101.824 17.2604 103.661 18.7475C105.498 20.2345 106.415 22.2982 106.415 24.9423V39.0457C106.112 39.1371 105.638 39.2246 104.992 39.316C104.347 39.4075 103.673 39.4512 102.984 39.4512C102.294 39.4512 101.729 39.4075 101.199 39.316C100.673 39.2246 100.226 39.0457 99.8676 38.7753C99.5049 38.5049 99.226 38.1391 99.0307 37.6699C98.8355 37.2047 98.7358 36.5964 98.7358 35.8449V25.2127H98.7438Z" fill="black"/>
<path d="M121.861 16.5168C123.579 16.5168 125.137 16.7355 126.536 17.1689C127.934 17.6063 129.118 18.1669 130.082 18.8588C130.684 19.2803 131.158 19.7455 131.505 20.2544C131.852 20.7634 132.023 21.4274 132.023 22.2345V38.0039C132.023 39.5944 131.72 40.9701 131.118 42.1272C130.517 43.2842 129.696 44.2465 128.656 45.0099C127.616 45.7773 126.4 46.3379 124.997 46.6998C123.595 47.0616 122.1 47.2405 120.506 47.2405C117.769 47.2405 115.613 46.8707 114.051 46.1351C112.484 45.3996 111.703 44.2067 111.703 42.5526C111.703 41.8608 111.847 41.2524 112.134 40.7276C112.421 40.2027 112.743 39.8051 113.106 39.5347C113.979 40.0159 114.963 40.4214 116.063 40.7514C117.163 41.0815 118.299 41.2485 119.474 41.2485C121.1 41.2485 122.395 40.9781 123.356 40.4373C124.32 39.8966 124.802 39.0258 124.802 37.825V37.1053C123.567 37.6461 122.06 37.9165 120.287 37.9165C118.932 37.9165 117.645 37.7137 116.426 37.3081C115.206 36.9025 114.138 36.2703 113.222 35.4155C112.305 34.5606 111.564 33.4552 111.01 32.1033C110.452 30.7514 110.173 29.1451 110.173 27.2842C110.173 25.4234 110.468 23.8608 111.054 22.5089C111.64 21.157 112.453 20.0397 113.493 19.153C114.533 18.2663 115.764 17.6063 117.195 17.1689C118.625 16.7355 120.184 16.5168 121.869 16.5168H121.861ZM124.663 23.0496C124.451 22.9304 124.145 22.8111 123.738 22.6878C123.332 22.5685 122.826 22.5089 122.224 22.5089C120.749 22.5089 119.642 22.9224 118.904 23.7495C118.167 24.5765 117.796 25.7534 117.796 27.2842C117.796 29.0258 118.167 30.2823 118.904 31.0457C119.642 31.8131 120.582 32.1948 121.726 32.1948C122.961 32.1948 123.937 31.9085 124.663 31.3399V23.0496Z" fill="black"/>
<path d="M145.249 38.9065C144.919 38.998 144.4 39.0855 143.691 39.1769C142.986 39.2684 142.284 39.3121 141.591 39.3121C140.898 39.3121 140.288 39.2604 139.762 39.1531C139.236 39.0497 138.79 38.8588 138.431 38.5885C138.068 38.3181 137.797 37.9443 137.618 37.4632C137.439 36.9821 137.347 36.3539 137.347 35.5706V14.3539C137.347 13.7217 137.518 13.2366 137.865 12.8906C138.212 12.5447 138.686 12.2664 139.288 12.0556C140.312 11.6938 141.479 11.4314 142.786 11.2684C144.098 11.1053 145.413 11.0219 146.736 11.0219C150.888 11.0219 154.064 11.9085 156.264 13.6819C158.46 15.4553 159.56 17.8568 159.56 20.8906C159.56 22.3618 159.324 23.6898 158.858 24.8787C158.392 26.0676 157.699 27.0855 156.782 27.9443C155.865 28.7992 154.706 29.4632 153.307 29.9284C151.908 30.3936 150.29 30.6282 148.453 30.6282H145.245V38.9185L145.249 38.9065ZM147.596 24.4453C148.86 24.4453 149.832 24.1511 150.51 23.5666C151.187 22.9821 151.526 22.0875 151.526 20.8867C151.526 19.6859 151.171 18.8668 150.466 18.2505C149.756 17.6342 148.728 17.328 147.373 17.328C146.891 17.328 146.493 17.336 146.178 17.3519C145.863 17.3678 145.536 17.4036 145.205 17.4632V24.4453H147.596Z" fill="#FFBB16"/>
<path d="M171.574 16.5168C173.2 16.5168 174.683 16.6838 176.022 17.0139C177.361 17.3439 178.504 17.8489 179.453 18.5248C180.401 19.2007 181.131 20.0556 181.645 21.0934C182.155 22.1312 182.414 23.3558 182.414 24.7634V34.8548C182.414 35.6381 182.195 36.2743 181.76 36.7713C181.322 37.2683 180.804 37.6938 180.202 38.0556C178.245 39.2286 175.492 39.8131 171.937 39.8131C170.343 39.8131 168.905 39.662 167.625 39.3638C166.346 39.0655 165.246 38.6123 164.33 38.0119C163.413 37.4115 162.704 36.6441 162.206 35.7137C161.708 34.7832 161.46 33.7017 161.46 32.4691C161.46 30.3976 162.078 28.8031 163.313 27.6938C164.549 26.5844 166.458 25.8926 169.048 25.6222L174.962 24.99V24.6759C174.962 23.8051 174.579 23.1809 173.81 22.8071C173.041 22.4333 171.937 22.2425 170.491 22.2425C169.347 22.2425 168.235 22.3618 167.151 22.6043C166.067 22.8469 165.091 23.1451 164.218 23.5069C163.828 23.2365 163.497 22.823 163.226 22.2663C162.955 21.7097 162.819 21.1331 162.819 20.5327C162.819 19.7534 163.007 19.1292 163.385 18.664C163.76 18.1988 164.342 17.8011 165.123 17.4711C165.995 17.1411 167.028 16.9025 168.215 16.7514C169.403 16.6003 170.526 16.5248 171.578 16.5248L171.574 16.5168ZM171.937 34.2226C172.447 34.2226 173.013 34.1709 173.631 34.0636C174.248 33.9602 174.707 33.817 175.01 33.6341V30.0318L171.758 30.3021C170.913 30.3618 170.224 30.5447 169.682 30.8429C169.14 31.1451 168.869 31.5944 168.869 32.1948C168.869 32.7952 169.1 33.2842 169.57 33.658C170.036 34.0357 170.825 34.2226 171.941 34.2226H171.937Z" fill="#FFBB16"/>
<path d="M198.74 15.7335C191.846 15.7335 186.259 21.3081 186.259 28.1868C186.259 35.0655 191.846 40.6401 198.74 40.6401C205.635 40.6401 211.222 35.0655 211.222 28.1868C211.222 21.3081 205.635 15.7335 198.74 15.7335ZM205.176 28.8906L199.446 34.6083C199.055 34.9979 198.422 34.9979 198.031 34.6083L192.301 28.8906C191.91 28.5009 191.91 27.8687 192.301 27.479L198.031 21.7614C198.422 21.3717 199.055 21.3717 199.446 21.7614L205.176 27.479C205.567 27.8687 205.567 28.5009 205.176 28.8906Z" fill="#FFBB16"/>
<path d="M36.0791 4.09143H15.1975C10.5404 4.09143 6.76514 7.85829 6.76514 12.505V33.3399C6.76514 37.9866 10.5404 41.7535 15.1975 41.7535H36.0791C40.7361 41.7535 44.5114 37.9866 44.5114 33.3399V12.505C44.5114 7.85829 40.7361 4.09143 36.0791 4.09143Z" fill="#DB5229"/>
<path style="mix-blend-mode:multiply" d="M36.0791 4.09143H15.1975C10.5404 4.09143 6.76514 7.85829 6.76514 12.505V33.3399C6.76514 37.9866 10.5404 41.7535 15.1975 41.7535H36.0791C40.7361 41.7535 44.5114 37.9866 44.5114 33.3399V12.505C44.5114 7.85829 40.7361 4.09143 36.0791 4.09143Z" fill="url(#paint0_linear_355_19371)"/>
<g filter="url(#filter0_d_355_19371)">
<path d="M42.8817 7.70574C42.8817 4.45723 40.2396 1.82104 36.9838 1.82104C33.728 1.82104 31.0859 4.45723 31.0859 7.70574C31.0859 10.9542 33.728 13.5904 36.9838 13.5904C40.2396 13.5904 42.8817 10.9542 42.8817 7.70574ZM36.6491 10.7395L33.9432 8.03973C33.7599 7.85683 33.7599 7.55862 33.9432 7.37174L36.6491 4.67194C36.8324 4.48904 37.1312 4.48904 37.3185 4.67194L40.0244 7.37174C40.2077 7.55464 40.2077 7.85285 40.0244 8.03973L37.3185 10.7395C37.1352 10.9224 36.8363 10.9224 36.6491 10.7395Z" fill="#FFBB16"/>
</g>
<g filter="url(#filter1_d_355_19371)">
<path d="M42.4618 14.026L13.677 8.70813L10.1183 27.8852L38.9031 33.203L42.4618 14.026Z" fill="#FFBB16"/>
</g>
<g filter="url(#filter2_d_355_19371)">
<path d="M37.1244 8.37904L9.32446 17.531L15.449 36.0519L43.249 26.8999L37.1244 8.37904Z" fill="white"/>
</g>
<path d="M15.1975 41.7574H36.0751C40.7336 41.7574 44.5074 37.988 44.5074 33.3439V14.1431C38.8567 14.155 31.7513 14.2504 28.0811 14.3021C26.5269 14.326 25.0644 15.0258 24.0722 16.2186L20.7287 20.2504C19.7205 21.4671 18.2221 22.1669 16.6401 22.1669H6.76514V33.3359C6.76514 37.984 10.543 41.7494 15.1975 41.7494V41.7574Z" fill="#DB5229"/>
<path d="M14.799 36.1232C14.2889 36.1232 13.8107 36.0755 13.3683 35.98C12.926 35.8846 12.5514 35.7733 12.2485 35.6421V32.4015H14.8667L14.9345 33.5307H13.711V34.7753C13.8545 34.819 14.0298 34.8588 14.2331 34.8826C14.4363 34.9105 14.6276 34.9224 14.8109 34.9224C15.4366 34.9224 15.8749 34.7753 16.126 34.4771C16.377 34.1788 16.5046 33.6699 16.5046 32.9502C16.5046 32.4333 16.4368 32.0278 16.3053 31.7335C16.1698 31.4393 15.9546 31.2325 15.6557 31.1132C15.3529 30.99 14.9464 30.9303 14.4284 30.9303C14.0936 30.9303 13.7429 30.9542 13.3843 31.0059C13.0216 31.0536 12.6749 31.1331 12.3402 31.2405V30.0874C12.6829 29.9721 13.0734 29.8846 13.5158 29.825C13.9581 29.7653 14.3885 29.7335 14.8069 29.7335C15.9188 29.7335 16.7277 30.0079 17.2258 30.5606C17.724 31.1132 17.975 31.9085 17.975 32.9502C17.975 33.992 17.724 34.7514 17.2258 35.3001C16.7277 35.8488 15.9188 36.1232 14.8069 36.1232H14.799Z" fill="white"/>
<path d="M14.7393 29.0059V27.1927H15.9985V27.9562H18.8438L18.7881 29.0059H14.7393Z" fill="white"/>
<path d="M16.365 26.5407V24.9423H17.6243V26.5407H16.365Z" fill="white"/>
<path d="M21.3583 36.1231C21.1511 36.1231 20.9319 36.1072 20.7008 36.0754C20.4697 36.0436 20.2624 36.0038 20.0871 35.9482L18.3496 31.7255H19.848L21.2069 35.0217C21.7767 35.0217 22.1912 34.8309 22.4462 34.4452C22.7013 34.0595 22.8288 33.4909 22.8288 32.7275C22.8288 32.2702 22.785 31.9124 22.6973 31.6539C22.6096 31.3955 22.4662 31.2126 22.2669 31.1013C22.0677 30.9899 21.7927 30.9343 21.442 30.9343H20.9718V29.8408H21.6572C22.5658 29.8408 23.2273 30.0794 23.6537 30.5525C24.0761 31.0297 24.2873 31.7533 24.2873 32.7275C24.2873 33.5267 24.1598 34.1748 23.9087 34.6718C23.6577 35.1688 23.311 35.5347 22.8726 35.7653C22.4343 35.9959 21.9242 36.1112 21.3464 36.1112L21.3583 36.1231Z" fill="white"/>
<path d="M26.4471 36.0079C25.953 36.0079 25.6023 35.9045 25.3991 35.6977C25.1958 35.491 25.0962 35.1689 25.0962 34.7276V29.8448H26.6384V34.326C26.6384 34.6441 26.7938 34.8071 27.1086 34.8071H27.4992V36.0039H26.4471V36.0079Z" fill="white"/>
<path d="M31.5241 36.1232C30.6155 36.1232 29.9022 35.9085 29.3762 35.4791C28.8502 35.0496 28.5872 34.4015 28.5872 33.5347V29.8489H30.1294V33.5546C30.1294 34.4691 30.5956 34.9224 31.5241 34.9224C32.4526 34.9224 32.9189 34.4652 32.9189 33.5546V28.0238H34.4611V33.5347C34.4611 34.4015 34.1981 35.0496 33.6721 35.4791C33.146 35.9085 32.4287 36.1232 31.5241 36.1232Z" fill="white"/>
<path d="M38.0078 36.0079V32.2186C38.0078 31.8091 37.9281 31.491 37.7687 31.2644C37.6093 31.0377 37.2905 30.9264 36.8083 30.9264C36.5573 30.9264 36.2903 30.9542 36.0073 31.0099C35.7244 31.0655 35.4733 31.1371 35.2542 31.2206V30.0914C35.4813 29.984 35.7642 29.8966 36.099 29.829C36.4337 29.7614 36.7685 29.7256 37.1032 29.7256C37.9719 29.7256 38.5976 29.9085 38.9802 30.2783C39.3627 30.6481 39.55 31.2206 39.55 31.996V35.9999H38.0078V36.0079Z" fill="white"/>
</g>
<defs>
<filter id="filter0_d_355_19371" x="29.1559" y="-0.108955" width="19.5157" height="19.4894" filterUnits="userSpaceOnUse" color-interpolation-filters="sRGB">
<feFlood flood-opacity="0" result="BackgroundImageFix"/>
<feColorMatrix in="SourceAlpha" type="matrix" values="0 0 0 0 0 0 0 0 0 0 0 0 0 0 0 0 0 0 127 0" result="hardAlpha"/>
<feOffset dx="1.93" dy="1.93"/>
<feGaussianBlur stdDeviation="1.93"/>
<feColorMatrix type="matrix" values="0 0 0 0 0 0 0 0 0 0 0 0 0 0 0 0 0 0 0.5 0"/>
<feBlend mode="normal" in2="BackgroundImageFix" result="effect1_dropShadow_355_19371"/>
<feBlend mode="normal" in="SourceGraphic" in2="effect1_dropShadow_355_19371" result="shape"/>
</filter>
<filter id="filter1_d_355_19371" x="8.33816" y="6.92813" width="39.4637" height="31.6149" filterUnits="userSpaceOnUse" color-interpolation-filters="sRGB">
<feFlood flood-opacity="0" result="BackgroundImageFix"/>
<feColorMatrix in="SourceAlpha" type="matrix" values="0 0 0 0 0 0 0 0 0 0 0 0 0 0 0 0 0 0 127 0" result="hardAlpha"/>
<feOffset dx="1.78" dy="1.78"/>
<feGaussianBlur stdDeviation="1.78"/>
<feColorMatrix type="matrix" values="0 0 0 0 0 0 0 0 0 0 0 0 0 0 0 0 0 0 0.5 0"/>
<feBlend mode="normal" in2="BackgroundImageFix" result="effect1_dropShadow_355_19371"/>
<feBlend mode="normal" in="SourceGraphic" in2="effect1_dropShadow_355_19371" result="shape"/>
</filter>
<filter id="filter2_d_355_19371" x="7.54446" y="6.59903" width="41.0446" height="34.7929" filterUnits="userSpaceOnUse" color-interpolation-filters="sRGB">
<feFlood flood-opacity="0" result="BackgroundImageFix"/>
<feColorMatrix in="SourceAlpha" type="matrix" values="0 0 0 0 0 0 0 0 0 0 0 0 0 0 0 0 0 0 127 0" result="hardAlpha"/>
<feOffset dx="1.78" dy="1.78"/>
<feGaussianBlur stdDeviation="1.78"/>
<feColorMatrix type="matrix" values="0 0 0 0 0 0 0 0 0 0 0 0 0 0 0 0 0 0 0.5 0"/>
<feBlend mode="normal" in2="BackgroundImageFix" result="effect1_dropShadow_355_19371"/>
<feBlend mode="normal" in="SourceGraphic" in2="effect1_dropShadow_355_19371" result="shape"/>
</filter>
<linearGradient id="paint0_linear_355_19371" x1="28.631" y1="29.4871" x2="16.605" y2="2.98966" gradientUnits="userSpaceOnUse">
<stop stop-color="#231F20"/>
<stop offset="1" stop-color="white" stop-opacity="0"/>
</linearGradient>
<clipPath id="clip0_355_19371">
<rect width="204.456" height="47.2445" fill="white" transform="translate(6.76514)"/>
</clipPath>
</defs>
</svg>
