<svg width="240" height="53" viewBox="0 0 240 53" fill="none" xmlns="http://www.w3.org/2000/svg">
<g clip-path="url(#clip0_610_29926)">
<path d="M65.0861 11.5637C65.6878 11.2112 66.6045 10.8727 67.8314 10.5531C69.0582 10.2334 70.2898 10.0736 71.5355 10.0736C73.3124 10.0736 74.8824 10.3321 76.2503 10.8445C77.6183 11.3616 78.4973 12.1701 78.8874 13.2701C79.5267 15.1175 80.2178 17.2657 80.9652 19.7148C81.7126 22.1639 82.4553 24.6929 83.2027 27.3065C83.9501 29.9154 84.674 32.4913 85.3885 35.0297C86.0983 37.5681 86.7188 39.8151 87.2547 41.7659C86.827 42.2641 86.1877 42.6637 85.3368 42.9646C84.486 43.2654 83.4706 43.4158 82.3002 43.4158C81.4493 43.4158 80.7301 43.3453 80.1425 43.2043C79.555 43.0633 79.0755 42.8517 78.7041 42.565C78.3328 42.2829 78.0272 41.9069 77.7969 41.4462C77.5665 40.9855 77.3597 40.4544 77.1858 39.848L76.2268 36.172H66.5857C66.2989 37.2391 66.0169 38.339 65.7348 39.4766C65.4481 40.6142 65.166 41.7142 64.884 42.7765C64.3857 42.9552 63.8639 43.1056 63.314 43.2278C62.764 43.35 62.0965 43.4158 61.3162 43.4158C59.5064 43.4158 58.1667 43.1056 57.297 42.4851C56.4274 41.8646 55.9902 41.0044 55.9902 39.8997C55.9902 39.4014 56.0607 38.9078 56.2018 38.4096C56.3428 37.9113 56.5026 37.3284 56.6812 36.6515C56.9304 35.6925 57.2735 34.5033 57.7201 33.0836C58.162 31.664 58.6508 30.1269 59.1867 28.4769C59.7179 26.827 60.2867 25.13 60.8931 23.3907C61.4948 21.6515 62.0636 20.0109 62.5994 18.4644C63.1306 16.9179 63.6195 15.5452 64.0661 14.3372C64.5079 13.1291 64.8558 12.2077 65.1049 11.5684L65.0861 11.5637ZM71.4791 18.4362C70.9808 19.9263 70.4214 21.5857 69.801 23.4143C69.1805 25.2428 68.6211 27.0996 68.1228 28.9799H74.7273C74.229 27.062 73.7261 25.1911 73.209 23.3625C72.6919 21.534 72.2218 19.8934 71.7988 18.4362H71.4791Z" fill="white"/>
<path d="M107.322 26.4791C107.322 25.3792 107.012 24.5707 106.391 24.0536C105.771 23.5412 104.925 23.2827 103.862 23.2827C103.153 23.2827 102.452 23.372 101.756 23.5506C101.065 23.7292 100.468 23.9972 99.9702 24.3497V42.833C99.6129 42.9411 99.0535 43.0445 98.292 43.1526C97.5258 43.2607 96.7361 43.3124 95.9228 43.3124C95.1096 43.3124 94.4374 43.2607 93.8169 43.1526C93.1964 43.0445 92.6699 42.833 92.2469 42.5133C91.8191 42.1937 91.4901 41.7612 91.2597 41.2065C91.0294 40.6565 90.9119 39.9373 90.9119 39.0489V23.0664C90.9119 22.1075 91.114 21.3272 91.523 20.7208C91.9319 20.1191 92.4913 19.5691 93.2011 19.0708C94.4092 18.22 95.9275 17.5243 97.7561 16.9931C99.5847 16.4619 101.615 16.194 103.853 16.194C107.863 16.194 110.956 17.073 113.123 18.8311C115.29 20.5891 116.371 23.0288 116.371 26.1548V42.8283C116.014 42.9364 115.454 43.0398 114.693 43.1479C113.931 43.256 113.137 43.3077 112.324 43.3077C111.51 43.3077 110.843 43.256 110.218 43.1479C109.597 43.0398 109.071 42.8283 108.648 42.5086C108.22 42.189 107.891 41.7565 107.661 41.2018C107.43 40.6518 107.313 39.9326 107.313 39.0442V26.4744L107.322 26.4791Z" fill="white"/>
<path d="M134.591 16.1986C136.617 16.1986 138.455 16.4571 140.105 16.9695C141.755 17.4866 143.151 18.1494 144.289 18.9673C144.998 19.4656 145.558 20.0156 145.967 20.6173C146.376 21.219 146.578 22.004 146.578 22.9582V41.6013C146.578 43.4816 146.221 45.108 145.511 46.476C144.801 47.8439 143.833 48.9814 142.606 49.884C141.379 50.7912 139.945 51.454 138.29 51.8818C136.636 52.3095 134.873 52.5211 132.993 52.5211C129.763 52.5211 127.22 52.0839 125.378 51.2143C123.53 50.3446 122.609 48.9344 122.609 46.9789C122.609 46.161 122.778 45.4418 123.116 44.8213C123.455 44.2008 123.836 43.7307 124.263 43.4111C125.293 43.9799 126.454 44.4593 127.751 44.8495C129.049 45.2397 130.388 45.4371 131.775 45.4371C133.693 45.4371 135.221 45.1174 136.354 44.4781C137.491 43.8388 138.06 42.8094 138.06 41.3898V40.5389C136.603 41.1782 134.826 41.4979 132.734 41.4979C131.136 41.4979 129.618 41.2582 128.179 40.7787C126.741 40.2992 125.481 39.5518 124.4 38.5411C123.319 37.5305 122.444 36.2237 121.791 34.6254C121.133 33.0272 120.804 31.1281 120.804 28.9282C120.804 26.7282 121.152 24.8808 121.843 23.2826C122.534 21.6843 123.493 20.3634 124.719 19.3152C125.946 18.2669 127.399 17.4866 129.086 16.9695C130.774 16.4571 132.612 16.1986 134.6 16.1986H134.591ZM137.896 23.9219C137.646 23.7809 137.284 23.6398 136.805 23.4941C136.325 23.3531 135.729 23.2826 135.019 23.2826C133.279 23.2826 131.973 23.7715 131.103 24.7492C130.233 25.727 129.796 27.1184 129.796 28.9282C129.796 30.9871 130.233 32.4725 131.103 33.375C131.973 34.2823 133.082 34.7336 134.431 34.7336C135.888 34.7336 137.04 34.3951 137.896 33.7229V23.9219Z" fill="white"/>
<path d="M162.18 42.6684C161.789 42.7765 161.178 42.88 160.342 42.9881C159.51 43.0962 158.682 43.1479 157.864 43.1479C157.046 43.1479 156.327 43.0868 155.707 42.9599C155.086 42.8377 154.56 42.612 154.137 42.2924C153.709 41.9727 153.389 41.5309 153.178 40.9621C152.966 40.3933 152.858 39.6506 152.858 38.7245V13.6415C152.858 12.8941 153.06 12.3206 153.469 11.9116C153.878 11.5026 154.437 11.1736 155.147 10.9245C156.355 10.4967 157.733 10.1864 159.275 9.99372C160.821 9.80099 162.372 9.70227 163.933 9.70227C168.831 9.70227 172.578 10.7505 175.172 12.8471C177.762 14.9436 179.06 17.7828 179.06 21.3695C179.06 23.1087 178.783 24.6788 178.233 26.0843C177.683 27.4898 176.865 28.6932 175.783 29.7085C174.702 30.7192 173.334 31.5042 171.684 32.0542C170.034 32.6042 168.126 32.8815 165.959 32.8815H162.175V42.6825L162.18 42.6684ZM164.948 25.5719C166.438 25.5719 167.585 25.2241 168.385 24.533C169.184 23.842 169.583 22.7844 169.583 21.3648C169.583 19.9451 169.165 18.9768 168.333 18.2482C167.496 17.5196 166.283 17.1576 164.685 17.1576C164.116 17.1576 163.646 17.167 163.275 17.1858C162.903 17.2046 162.518 17.2469 162.128 17.3174V25.5719H164.948Z" fill="white"/>
<path d="M193.232 16.1986C195.15 16.1986 196.899 16.396 198.478 16.7862C200.058 17.1764 201.407 17.7733 202.526 18.5725C203.645 19.3716 204.505 20.3823 205.111 21.6091C205.713 22.836 206.018 24.2838 206.018 25.9479V37.8783C206.018 38.8044 205.76 39.5565 205.247 40.1441C204.73 40.7317 204.119 41.2346 203.409 41.6624C201.101 43.0491 197.853 43.7401 193.66 43.7401C191.78 43.7401 190.083 43.5615 188.574 43.209C187.065 42.8564 185.768 42.3205 184.687 41.6107C183.605 40.9009 182.769 39.9937 182.181 38.8937C181.593 37.7937 181.302 36.5151 181.302 35.0579C181.302 32.6088 182.031 30.7238 183.488 29.4123C184.945 28.1008 187.197 27.2829 190.252 26.9633L197.228 26.2158V25.8445C197.228 24.815 196.777 24.077 195.87 23.6351C194.962 23.1933 193.66 22.9676 191.954 22.9676C190.605 22.9676 189.293 23.1087 188.015 23.3954C186.736 23.6822 185.584 24.0347 184.555 24.4625C184.094 24.1428 183.704 23.654 183.384 22.9959C183.065 22.3377 182.905 21.6561 182.905 20.9463C182.905 20.025 183.126 19.287 183.572 18.737C184.014 18.187 184.701 17.7169 185.622 17.3268C186.651 16.9366 187.869 16.6546 189.27 16.476C190.671 16.2973 191.996 16.208 193.237 16.208L193.232 16.1986ZM193.66 37.1309C194.262 37.1309 194.929 37.0698 195.658 36.9429C196.387 36.8207 196.927 36.6514 197.284 36.4352V32.1764L193.449 32.496C192.452 32.5665 191.639 32.7828 191 33.1353C190.36 33.4926 190.041 34.0237 190.041 34.7336C190.041 35.4434 190.313 36.0215 190.868 36.4634C191.418 36.91 192.349 37.1309 193.665 37.1309H193.66Z" fill="white"/>
<path d="M225.277 15.2679C217.145 15.2679 210.555 21.8584 210.555 29.9906C210.555 38.1229 217.145 44.7133 225.277 44.7133C233.41 44.7133 240 38.1229 240 29.9906C240 21.8584 233.41 15.2679 225.277 15.2679ZM232.869 30.8226L226.109 37.5823C225.649 38.0429 224.901 38.0429 224.441 37.5823L217.681 30.8226C217.22 30.362 217.22 29.6145 217.681 29.1539L224.441 22.3942C224.901 21.9336 225.649 21.9336 226.109 22.3942L232.869 29.1539C233.33 29.6145 233.33 30.362 232.869 30.8226Z" fill="white"/>
<path d="M0.361955 16.65L4.22595 15.3761L6.03573 5.59859L23.8515 8.8985L26.6437 7.97716C26.4463 7.27675 26.3334 6.54344 26.3334 5.78662C26.3334 4.69135 26.5544 3.64309 26.9492 2.68885H8.77155C3.9345 2.68415 0 6.61865 0 11.4604V21.708H2.03071L0.361955 16.65Z" fill="white"/>
<path d="M32.1482 5.78193L32.4302 6.06398L35.3823 5.09093L35.9041 6.66567L36.7878 5.78193L34.4704 3.46448L32.1482 5.78193Z" fill="white"/>
<path d="M41.8599 9.1571C41.3851 10.196 40.6988 11.1126 39.8527 11.86L41.8129 12.222C41.9351 12.222 42.0526 12.222 42.1748 12.222V11.4605C42.1748 10.6613 42.0573 9.89042 41.8599 9.1571Z" fill="white"/>
<path d="M29.9483 6.88662C29.3842 6.20501 29.4124 5.19906 30.047 4.55976L31.9179 2.68887L33.0931 1.51369L33.2388 1.36797C33.9157 0.691066 35.0109 0.691066 35.6878 1.36797L36.2566 1.93676L38.8843 4.56446C38.9455 4.62557 38.9925 4.69138 39.0395 4.75249C39.5471 5.42939 39.5001 6.39774 38.8843 7.01354L36.7267 9.17117L37.2767 10.8352C38.9925 9.87627 40.1676 8.0665 40.2381 5.97938C40.2381 5.91357 40.2476 5.85246 40.2476 5.78665C40.2476 5.16145 40.1441 4.55976 39.9608 3.99567C39.6412 3.01792 39.0677 2.16239 38.3203 1.49019C37.2955 0.568847 35.9464 0.00476074 34.4657 0.00476074C33.7935 0.00476074 33.1495 0.12698 32.5478 0.338512C31.8145 0.597052 31.1517 1.00131 30.5876 1.51369C30.2068 1.86155 29.8731 2.25171 29.5957 2.68887C29.0222 3.58671 28.6885 4.64437 28.6885 5.78665C28.6885 6.28962 28.759 6.7738 28.8812 7.24387L29.953 6.89132L29.9483 6.88662Z" fill="white"/>
<path d="M6.76904 14.5347L19.2119 10.4263L7.91602 8.33447L6.76904 14.5347Z" fill="white"/>
<path d="M24.016 11.3194L6.28018 17.1718L5.00628 17.5901L3.73239 18.0085L3.32812 18.1448L3.57256 18.8828L4.33878 21.2003L4.50331 21.7033H10.4779C11.9963 21.7033 13.4253 21.0311 14.3936 19.8606L18.3375 15.094C19.7289 13.4159 21.7738 12.4334 23.9502 12.4005C25.4168 12.377 27.3394 12.3535 29.4876 12.3253H29.6569C30.4278 12.3159 31.2269 12.3065 32.0495 12.2971C33.0978 12.283 34.179 12.2736 35.2695 12.2642L35.246 12.1984L35.0251 11.5309L34.8277 10.9245L34.743 10.6754L34.3576 9.50959L33.8781 8.05237L33.032 8.32971L31.7816 8.74337L29.9248 9.35447L28.7449 9.74463L28.6415 9.77753L27.5932 10.1207L26.3194 10.539L24.0019 11.3053L24.016 11.3194Z" fill="white"/>
<path d="M40.6847 14.577C40.2899 14.577 39.8903 14.577 39.4861 14.5817C39.1664 14.5817 38.8421 14.5817 38.5177 14.5864C38.1087 14.5864 37.6951 14.5911 37.2814 14.5958C36.8678 14.5958 36.4588 14.6005 36.0451 14.6052C31.382 14.6475 26.8411 14.7086 23.9878 14.7509C22.4977 14.7744 21.0968 15.4419 20.1473 16.5936L16.2034 21.3601C14.7885 23.0712 12.7013 24.0536 10.4779 24.0536H0V36.0828C0 40.9198 3.9345 44.8543 8.77155 44.8543H33.3986C38.2357 44.8543 42.1702 40.9198 42.1702 36.0828V14.5723C42.0715 14.5723 41.9727 14.5723 41.874 14.5723C41.4792 14.5723 41.0796 14.5723 40.68 14.577H40.6847ZM10.1489 26.1595H11.6343V28.0492H10.1489V26.1595ZM8.23566 28.8154H9.72109V29.718H13.0774L13.0445 30.3385L13.0116 30.959H8.23566V28.8154ZM6.61862 39.204C6.09684 39.0912 5.65497 38.9596 5.29771 38.8045V34.9734H8.38609L8.466 36.3084H7.02288V37.7797C7.12629 37.8126 7.24381 37.8408 7.37073 37.8643C7.45534 37.8784 7.53996 37.8972 7.63867 37.9066C7.87841 37.9395 8.10404 37.9536 8.32028 37.9536C8.43309 37.9536 8.53181 37.9395 8.63052 37.9348C9.1147 37.8972 9.48605 37.7656 9.73989 37.5447C9.7822 37.5071 9.83391 37.4742 9.87151 37.4319C10.1677 37.0793 10.3181 36.4776 10.3181 35.6268C10.3181 35.0157 10.2382 34.5362 10.083 34.1884C9.92322 33.8405 9.66938 33.5961 9.31683 33.4551C9.05829 33.3516 8.72454 33.2858 8.32968 33.2576C8.18396 33.2482 8.02883 33.2435 7.86901 33.2435C7.61987 33.2435 7.36133 33.2576 7.10279 33.2811C6.94767 33.2952 6.79254 33.3093 6.63742 33.3281C6.39298 33.361 6.15794 33.4081 5.92761 33.4645C5.74898 33.5068 5.57506 33.5491 5.40583 33.6055V32.2423C5.43873 32.2329 5.48104 32.2235 5.51865 32.2141C5.8618 32.106 6.24726 32.0213 6.67032 31.9555C6.71263 31.9508 6.75024 31.9414 6.79724 31.932C7.1639 31.8803 7.52115 31.8568 7.87371 31.8427C7.97712 31.8427 8.08524 31.8333 8.18866 31.8333C8.23566 31.8333 8.27797 31.8286 8.32498 31.8286C9.18521 31.8286 9.88562 31.9696 10.4309 32.247C10.7223 32.3927 10.9715 32.5807 11.1783 32.8064C11.7659 33.4598 12.062 34.3999 12.062 35.6315C12.062 36.2003 11.9962 36.7033 11.8646 37.1451C11.7189 37.6434 11.4933 38.0665 11.1783 38.4096C11.0702 38.5271 10.948 38.6306 10.8164 38.7293C10.2288 39.1617 9.40144 39.3827 8.32498 39.3827C8.16985 39.3827 8.02883 39.3686 7.87841 39.3592C7.44594 39.3357 7.02758 39.2934 6.63742 39.2134L6.61862 39.204ZM19.0661 37.6669C18.77 38.2545 18.361 38.687 17.8439 38.9596C17.3269 39.2322 16.7252 39.3733 16.0436 39.3733C15.7991 39.3733 15.5406 39.3545 15.2679 39.3216C14.9953 39.284 14.7509 39.2369 14.544 39.1711L14.3795 38.7716L13.9329 37.681L13.4864 36.5904L12.4945 34.179H14.262L15.0423 36.0781L15.4889 37.1686L15.8649 38.0806C16.5371 38.0806 17.026 37.8549 17.3269 37.399C17.4914 37.1498 17.6089 36.8302 17.6794 36.4447C17.7405 36.1298 17.7781 35.7725 17.7781 35.3683C17.7781 35.3024 17.7781 35.2413 17.7734 35.1755C17.764 34.729 17.7123 34.367 17.623 34.0991C17.529 33.8264 17.3833 33.629 17.1905 33.4974C17.167 33.4786 17.1435 33.4598 17.1153 33.4457C16.8803 33.314 16.5559 33.2482 16.1423 33.2482H15.5876V31.9555H16.3961C17.2846 31.9555 17.9756 32.153 18.4691 32.5384C18.5678 32.6183 18.6666 32.7029 18.7512 32.797C19.005 33.0837 19.1977 33.4504 19.32 33.8922C19.3811 34.1132 19.4281 34.3576 19.4563 34.6208C19.4845 34.8559 19.4986 35.105 19.4986 35.3683C19.4986 35.5375 19.4892 35.6926 19.4798 35.8524C19.4516 36.3413 19.3811 36.7832 19.2589 37.1639C19.2024 37.3426 19.1366 37.5165 19.0567 37.6716L19.0661 37.6669ZM23.2874 39.2369H22.0464C21.4635 39.2369 21.0498 39.1147 20.8101 38.8703C20.5704 38.6259 20.4528 38.2451 20.4528 37.7233V31.9508H22.272V37.2485C22.272 37.6246 22.4553 37.8173 22.8267 37.8173H23.2874V39.2322V39.2369ZM31.4995 36.3084C31.4995 37.3332 31.1893 38.0994 30.5688 38.607C29.9483 39.1147 29.1022 39.3686 28.0351 39.3686C26.968 39.3686 26.1219 39.1147 25.5014 38.607C24.8809 38.0994 24.5707 37.3332 24.5707 36.3084V31.9508H26.3898V36.3319C26.3898 37.4131 26.9398 37.949 28.0351 37.949C29.1304 37.949 29.6804 37.4084 29.6804 36.3319V29.7932H31.4995V36.3084ZM37.5023 39.2369H35.6832V34.7572C35.6832 34.6772 35.6785 34.602 35.6691 34.5268C35.6409 34.1555 35.5563 33.8546 35.3964 33.6337C35.2084 33.3704 34.8323 33.2341 34.2636 33.2341C33.9674 33.2341 33.6525 33.267 33.3187 33.3328C32.985 33.3987 32.6888 33.4833 32.4303 33.582V32.247C32.6982 32.1201 33.032 32.0166 33.4268 31.9367C33.8217 31.8568 34.2165 31.8145 34.6114 31.8145C34.8652 31.8145 35.1003 31.8286 35.3212 31.8568C35.6785 31.8991 35.984 31.979 36.2426 32.0966C36.4682 32.1953 36.6656 32.3175 36.8207 32.4726C37.0041 32.6512 37.1357 32.8769 37.2438 33.1307C37.4036 33.5068 37.493 33.958 37.493 34.5033V39.2369H37.5023Z" fill="white"/>
</g>
<defs>
<clipPath id="clip0_610_29926">
<rect width="240" height="52.5212" fill="white"/>
</clipPath>
</defs>
</svg>
