<svg width="39" height="37" viewBox="0 0 39 37" fill="none" xmlns="http://www.w3.org/2000/svg">
<g clip-path="url(#clip0_610_7935)">
<path d="M22.5529 0H6.6848C6.22239 0 5.84753 0.374142 5.84753 0.83567V3.14371C5.84753 3.60524 6.22239 3.97938 6.6848 3.97938H22.5529C23.0153 3.97938 23.3902 3.60524 23.3902 3.14371V0.83567C23.3902 0.374142 23.0153 0 22.5529 0Z" fill="#DB5229"/>
<path d="M34.2931 11.2166H21.79C21.0589 11.2166 20.4663 11.8081 20.4663 12.5377V31.5751C20.4663 32.3047 21.0589 32.8962 21.79 32.8962H34.2931C35.0241 32.8962 35.6168 32.3047 35.6168 31.5751V12.5377C35.6168 11.8081 35.0241 11.2166 34.2931 11.2166Z" fill="#CCCCCC"/>
<path d="M23.5921 2.65295H5.37969C4.31689 2.65295 3.45532 3.51289 3.45532 4.57367V32.302C3.45532 33.3628 4.31689 34.2227 5.37969 34.2227H23.5921C24.6549 34.2227 25.5165 33.3628 25.5165 32.302V4.57367C25.5165 3.51289 24.6549 2.65295 23.5921 2.65295Z" fill="#E3D645"/>
<path d="M36.4593 31.8351H1.81527C0.812658 31.8351 -0.00012207 32.6463 -0.00012207 33.647V34.5331C-0.00012207 35.5338 0.812658 36.345 1.81527 36.345H36.4593C37.4619 36.345 38.2747 35.5338 38.2747 34.5331V33.647C38.2747 32.6463 37.4619 31.8351 36.4593 31.8351Z" fill="#E3D645"/>
<path d="M12.3967 22.0193H16.0408C16.7212 22.0193 17.2741 22.5711 17.2741 23.2502V31.8351H11.1608V23.2502C11.1608 22.5711 11.7136 22.0193 12.3941 22.0193H12.3967Z" fill="white"/>
<path d="M9.93274 6.36707H6.37903V9.91402H9.93274V6.36707Z" fill="white"/>
<path d="M16.3944 6.36707H12.8407V9.91402H16.3944V6.36707Z" fill="white"/>
<path d="M22.8585 6.36707H19.3048V9.91402H22.8585V6.36707Z" fill="white"/>
<path d="M9.93274 12.9994H6.37903V16.5463H9.93274V12.9994Z" fill="white"/>
<path d="M16.3944 12.9994H12.8407V16.5463H16.3944V12.9994Z" fill="white"/>
<path d="M22.8585 12.9994H19.3048V16.5463H22.8585V12.9994Z" fill="white"/>
<path d="M32.0125 13.7872H28.4587V17.3342H32.0125V13.7872Z" fill="white"/>
<path d="M32.0125 20.1543H28.4587V23.7012H32.0125V20.1543Z" fill="white"/>
</g>
<defs>
<clipPath id="clip0_610_7935">
<rect width="38.2748" height="36.345" fill="white"/>
</clipPath>
</defs>
</svg>
