<svg width="34" height="41" viewBox="0 0 34 41" fill="none" xmlns="http://www.w3.org/2000/svg">
<path d="M16.8492 33.766C26.1548 33.766 33.6985 26.2073 33.6985 16.883C33.6985 7.55879 26.1548 0 16.8492 0C7.54366 0 0 7.55879 0 16.883C0 26.2073 7.54366 33.766 16.8492 33.766Z" fill="#E6E6E6"/>
<path d="M10.7272 8.0343C11.7186 8.21562 12.5638 8.67379 13.2703 9.38929C14.0418 10.171 14.6085 11.0906 15.0484 12.0927C15.9965 14.2512 16.405 16.5258 16.3346 18.8655C16.2598 21.3692 15.0029 23.153 12.7469 24.2192C12.5302 24.3213 12.4695 24.4288 12.4793 24.66C12.6624 28.865 12.8325 33.0711 13.0156 37.2761C13.0752 38.642 12.1033 39.8916 10.803 40.0773C9.34672 40.2847 8.0768 39.4356 7.75282 38.0253C7.69972 37.794 7.68347 37.5476 7.69322 37.3098C7.86334 33.1254 8.04104 28.941 8.21658 24.7556C8.222 24.6209 8.21658 24.4863 8.21658 24.3408C7.28039 23.9619 6.46989 23.4114 5.81109 22.6438C5.02985 21.7329 4.55309 20.6863 4.40572 19.492C4.39814 19.4322 4.36997 19.3758 4.35046 19.3182V17.6256C4.36997 17.5246 4.40139 17.4258 4.40898 17.3238C4.54117 15.4889 4.92908 13.7148 5.67998 12.0309C6.11557 11.0537 6.67685 10.1536 7.43425 9.3882C8.14181 8.67379 8.9859 8.21562 9.97627 8.0343H10.7261H10.7272Z" fill="#FFBB16"/>
<path d="M27.6989 8.0343C27.8896 8.0343 28.0445 8.1863 28.05 8.37739C28.0749 9.33826 28.0966 10.2991 28.1291 11.26C28.1995 13.3587 28.3111 15.4563 28.3404 17.555C28.3696 19.5973 27.467 21.1444 25.6737 22.139C25.4581 22.2584 25.392 22.3811 25.4028 22.6232C25.5946 27.0584 25.7788 31.4936 25.9587 35.9298C25.9836 36.5335 26.0291 37.1437 25.975 37.743C25.8774 38.8309 25.2685 39.5822 24.251 39.9503C23.1783 40.339 22.215 40.0882 21.4197 39.2771C20.8725 38.7201 20.6612 38.0209 20.6948 37.2446C20.788 35.0222 20.8833 32.7986 20.9744 30.5761C21.0838 27.9248 21.1867 25.2745 21.3038 22.6232C21.3146 22.3811 21.2474 22.2573 21.0329 22.139C19.2277 21.1368 18.3207 19.5777 18.3663 17.5235C18.4334 14.4748 18.5667 11.4261 18.6707 8.37848C18.6772 8.18739 18.8344 8.03539 19.0251 8.03539H20.0143C20.204 8.03539 20.3589 8.18522 20.3654 8.37522C20.4727 11.4837 20.58 14.5921 20.6872 17.7059H22.02C22.1273 14.578 22.2345 11.4761 22.3418 8.37522C22.3483 8.1863 22.5033 8.03539 22.6929 8.03539H24.0148C24.2044 8.03539 24.3594 8.18522 24.3659 8.37522C24.4732 11.4837 24.5804 14.5921 24.6877 17.7059H26.0205C26.1288 14.578 26.235 11.4761 26.3423 8.37522C26.3488 8.1863 26.5037 8.03539 26.6934 8.03539H27.7L27.6989 8.0343Z" fill="#FFBB16"/>
</svg>
