<svg width="39" height="41" viewBox="0 0 39 41" fill="none" xmlns="http://www.w3.org/2000/svg">
<path d="M35.8753 39.2334C36.5338 39.2381 37.1932 39.2509 37.8518 39.2421C38.1049 39.2389 38.3148 39.2916 38.4713 39.4968C38.4713 39.8959 38.4633 40.2951 38.4753 40.6934C38.4792 40.8323 38.4505 40.8802 38.3108 40.8554C38.2461 40.8435 38.1783 40.8538 38.112 40.8538C25.5312 40.8538 12.9512 40.8523 0.370408 40.861C0.0710549 40.861 -0.0231415 40.7956 0.00479813 40.4938C0.0351326 40.1641 0.0119826 39.8297 0.0119826 39.4968C0.160462 39.3092 0.347258 39.2373 0.593127 39.2413C1.2525 39.2517 1.91188 39.2365 2.57205 39.2318C2.69578 39.1368 2.84266 39.132 2.98795 39.132C4.38892 39.1328 5.7891 39.116 7.19007 39.1392C8.75788 39.1232 10.3257 39.1208 11.8935 39.1392C13.53 39.1248 15.1664 39.12 16.8029 39.14C16.8548 39.14 16.9067 39.1408 16.9586 39.14C18.4912 39.1232 20.0231 39.1224 21.5558 39.1392C23.2282 39.1224 24.9006 39.1208 26.573 39.1392C28.1033 39.1248 29.6328 39.1208 31.1631 39.14C31.2149 39.14 31.2668 39.1408 31.3179 39.14C32.6965 39.1192 34.076 39.1328 35.4554 39.1328C35.6031 39.1328 35.746 39.1535 35.8753 39.2334Z" fill="#008D00"/>
<path d="M19.4012 0C19.6295 0.444639 19.8697 0.88369 20.0813 1.33631C20.1827 1.55264 20.308 1.66121 20.5539 1.68117C20.9362 1.7115 21.3146 1.78414 21.6954 1.83683C21.8606 1.85918 22.0115 1.90389 22.0642 2.08509C22.1121 2.25034 22.0115 2.3605 21.9053 2.46507C21.8016 2.56725 21.7122 2.69258 21.5916 2.76842C20.8732 3.21944 20.7742 3.84848 21.0185 4.60285C21.1031 4.86389 21.1653 5.14568 21.0121 5.4139C20.8556 5.57834 20.68 5.51049 20.51 5.44823C20.3279 5.38197 20.1635 5.2758 19.9823 5.20794C19.7755 5.11854 19.6055 4.96527 19.4059 4.86389C19.2742 4.79124 19.1473 4.81759 19.0212 4.88225C18.8344 4.96846 18.6747 5.10018 18.4935 5.19517C18.2947 5.29176 18.1071 5.4123 17.8948 5.47616C17.7455 5.52087 17.5891 5.55919 17.4661 5.40911C17.273 5.02594 17.4214 4.63638 17.522 4.28434C17.6849 3.71278 17.5771 3.29847 17.0893 2.95601C16.8858 2.81312 16.7182 2.61515 16.5489 2.42915C16.2927 2.14816 16.3749 1.90548 16.7485 1.84082C17.1269 1.77536 17.5068 1.70511 17.8892 1.68356C18.171 1.6676 18.3091 1.53588 18.4209 1.29879C18.6276 0.861338 18.8599 0.432665 19.0818 0C19.188 0 19.295 0 19.4012 0Z" fill="#E3D645"/>
<path d="M34.6339 12.7484C35.2183 12.7532 35.8034 12.7644 36.3877 12.7588C36.7374 12.7556 36.9058 12.9137 36.905 13.2609C36.9042 13.6992 36.9098 14.1382 36.9042 14.5765C36.8978 15.0475 36.7845 15.1528 36.3055 15.16C36.1195 15.1624 35.9343 15.1688 35.7483 15.1728C35.607 15.2534 35.4545 15.2877 35.2925 15.2877C33.1619 15.2845 31.0313 15.3029 28.9007 15.2782C26.7198 15.2957 24.5389 15.2973 22.358 15.2782C20.1772 15.2949 17.9963 15.2973 15.8154 15.2782C13.6337 15.2957 11.452 15.2973 9.27032 15.2782C7.22355 15.3021 5.17757 15.2869 3.13079 15.2861C2.98311 15.2861 2.83862 15.267 2.71569 15.1728C2.49058 15.168 2.26467 15.1616 2.03955 15.16C1.71705 15.1576 1.54143 14.9972 1.53664 14.6747C1.52945 14.1965 1.52945 13.7191 1.53664 13.241C1.54143 12.9193 1.71306 12.7604 2.03955 12.7604C2.63666 12.7596 3.23377 12.7508 3.83088 12.7452C4.1925 12.647 4.5605 12.6327 4.9333 12.6343C6.8284 12.6438 8.72351 12.6279 10.6194 12.6422C12.5089 12.6383 14.3976 12.6279 16.2872 12.6446C18.2286 12.6375 20.17 12.6255 22.1114 12.6494C24.0001 12.6271 25.8888 12.6359 27.7783 12.6446C29.8427 12.6295 31.9078 12.6415 33.9721 12.6375C34.2004 12.6375 34.4168 12.7005 34.6355 12.7492L34.6339 12.7484Z" fill="#FFBB16"/>
<path d="M8.94702 28.8871C8.64288 28.8799 8.33714 28.8544 8.0338 28.8696C7.51651 28.8951 7.20439 29.2112 7.18762 29.7357C7.16926 30.2929 7.17246 30.8517 7.18443 31.4089C7.19082 31.729 7.07187 31.8743 6.74059 31.8567C6.42288 31.8399 6.10117 31.832 5.78506 31.8583C5.38113 31.8918 5.28454 31.697 5.29013 31.3362C5.30449 30.3935 5.29491 29.4499 5.29491 28.5071C5.29491 27.0327 5.28454 25.5583 5.3029 24.0839C5.30689 23.7606 5.20072 23.6464 4.89338 23.6073C4.47349 23.5531 4.06158 23.4421 3.64328 23.3702C3.29603 23.3112 3.13638 23.1188 3.14277 22.7707C3.14835 22.4123 3.13478 22.0531 3.14835 21.6947C3.16033 21.3833 3.32238 21.2069 3.65366 21.2085C4.01209 21.2109 4.37051 21.2013 4.72894 21.1965C4.86864 21.0936 5.03148 21.1127 5.18954 21.1111C5.56074 21.1071 5.93194 21.1095 6.30393 21.1103C7.12616 21.1119 7.22754 21.1758 7.52929 21.9597C7.8486 22.7891 8.16711 23.6185 8.46007 24.4575C8.58141 24.8063 8.7738 24.9788 9.16096 24.946C9.50342 24.9173 9.84987 24.9389 10.1955 24.9397C10.9539 24.9205 11.7122 24.9197 12.469 24.9357C13.4333 24.9564 14.0105 25.5368 14.0169 26.4915C14.0272 28.0737 14.0233 29.6567 14.0177 31.2388C14.0153 31.8439 13.9027 31.9501 13.2856 31.9581C13.0062 31.9621 12.7277 31.9653 12.4483 31.9517C12.1281 31.9365 11.9621 31.7697 11.9469 31.4504C11.9278 31.052 11.9414 30.6529 11.9374 30.2538C11.935 30.0271 11.9262 29.8011 11.8599 29.5824C11.7442 29.2 11.5398 29.034 11.1407 29.0125C10.8086 28.9941 10.4757 29.018 10.1436 29.0005C9.7437 28.9741 9.3286 29.1098 8.94782 28.8855L8.94702 28.8871Z" fill="#FEC100"/>
<path d="M10.6481 12.7468C8.37545 12.7468 6.10277 12.746 3.83008 12.7452C6.66715 11.2133 9.50262 9.67824 12.3413 8.14954C14.0464 7.23153 15.7571 6.32309 17.4662 5.40987C17.8877 5.5344 18.1615 5.16639 18.5239 5.09375C18.5702 5.34281 18.3651 5.44579 18.2214 5.55994C17.9396 5.78426 17.6849 6.03332 17.4359 6.28957C16.2353 7.5245 14.9748 8.70035 13.7279 9.88579C12.8067 10.7615 11.9613 11.7162 10.9762 12.5249C10.8733 12.6095 10.7687 12.6885 10.6481 12.746V12.7468Z" fill="#DB5229"/>
<path d="M11.8974 39.2327C10.3344 39.2327 8.77054 39.2327 7.20751 39.2327C7.07181 39.1162 7.06941 38.9541 7.06862 38.7969C7.06143 37.9283 7.06303 37.0598 7.06782 36.1913C7.06862 36.0324 7.07979 35.8736 7.19634 35.7475C7.77349 35.5806 8.36501 35.7091 8.94775 35.6684C9.33093 35.4385 9.74922 35.579 10.1516 35.5503C10.5898 35.5311 11.0281 35.5391 11.4663 35.5455C11.6499 35.5479 11.8455 35.5415 11.962 35.7331C12.057 35.9622 12.0259 36.2041 12.0275 36.4412C12.0307 37.1971 12.0323 37.9539 12.0259 38.7099C12.0243 38.8919 12.0498 39.0866 11.8966 39.2335L11.8974 39.2327Z" fill="#DBFEFD"/>
<path d="M7.19643 35.7467C7.20042 36.909 7.20441 38.0704 7.2076 39.2327C5.66214 39.2327 4.11748 39.2327 2.57202 39.2319C2.57202 38.29 2.57202 37.3472 2.57282 36.4052C2.57362 35.86 2.68617 35.7427 3.21463 35.7427C4.54137 35.7427 5.8689 35.7459 7.19563 35.7475L7.19643 35.7467Z" fill="#FFBB16"/>
<path d="M2.7157 15.1736C4.89419 15.1752 7.07268 15.1776 9.25117 15.1792C9.44994 15.3341 9.45314 15.56 9.4707 15.7811C9.34856 16.0925 9.25277 16.4222 8.93426 16.6058C8.33954 17.2603 7.64185 17.7377 6.74858 17.8822C4.85907 18.1879 3.16193 17.0488 2.7157 15.1729V15.1736Z" fill="#E3D645"/>
<path d="M10.1493 25.0449C9.73817 25.0481 9.32705 25.0393 8.91674 25.0593C8.67087 25.0712 8.54474 25.0002 8.45614 24.7503C8.1049 23.7684 7.72412 22.797 7.35611 21.8207C7.15734 21.2938 7.05117 21.2188 6.47801 21.214C5.89527 21.2092 5.31173 21.2036 4.72899 21.198C4.70265 20.7917 4.48232 20.4476 4.36897 20.0684C4.29234 19.8122 4.38094 19.6502 4.62282 19.6478C5.35085 19.6406 6.08366 19.5655 6.8053 19.6837C7.67862 19.8274 8.29329 20.3263 8.64533 21.1485C8.73713 21.3632 8.77145 21.6083 8.94468 21.7855C9.04287 21.8478 9.07001 21.9532 9.10593 22.0514C9.44839 22.9981 9.8603 23.9185 10.1908 24.8701C10.2028 24.9339 10.1932 24.993 10.1493 25.0441V25.0449Z" fill="#CC9D78"/>
<path d="M10.1308 24.8934C9.70055 23.8708 9.24872 22.857 8.94458 21.7865C8.94139 20.0598 8.9374 18.3332 8.9342 16.6065C9.09306 16.3303 9.25192 16.0549 9.41157 15.7787C9.75084 16.1643 10.1157 16.5323 10.2649 17.0463C10.2857 19.5026 10.2713 21.9589 10.2713 24.4144C10.2713 24.5837 10.2857 24.7649 10.1316 24.8926L10.1308 24.8934Z" fill="#FE7970"/>
<path d="M10.1452 35.6668C9.74603 35.6668 9.34689 35.6668 8.94775 35.6668C8.94775 33.4069 8.94775 31.1461 8.94775 28.8862C9.34689 28.8862 9.74683 28.8862 10.146 28.8862C10.2841 29.0387 10.2737 29.2287 10.2745 29.4131C10.2777 31.3218 10.2777 33.2304 10.2745 35.1391C10.2745 35.3235 10.2825 35.5135 10.146 35.6668H10.1452Z" fill="#FE7970"/>
<path d="M3.51568 7.80936C3.57555 7.5563 3.39035 7.22981 3.65139 7.03024C3.99544 6.76761 4.35227 6.43553 4.78893 6.42834C5.22638 6.42116 5.59119 6.74127 5.93525 7.00789C6.23061 7.23699 6.15318 7.58265 6.15398 7.89557C6.15717 8.55814 5.46666 9.26701 4.8041 9.24944C4.37143 9.23827 4.0625 8.93173 3.72882 8.70183C3.39913 8.47512 3.56118 8.12148 3.51488 7.80936H3.51568Z" fill="#DBFEFD"/>
<path d="M11.4305 3.40459C11.3802 3.66882 11.5351 3.97616 11.266 4.1877C10.9356 4.44874 10.6043 4.7441 10.17 4.77842C9.52501 4.82872 8.86963 4.08552 8.86963 3.3559C8.86963 2.74602 9.56812 1.9669 10.1429 2.0132C10.5692 2.04753 10.9092 2.34927 11.2533 2.59115C11.5486 2.7987 11.3778 3.13079 11.4313 3.40459H11.4305Z" fill="#B6FEFD"/>
<path d="M31.2915 29.6777C32.0339 29.684 32.7771 29.6904 33.5195 29.696C34.5229 29.7032 35.0298 30.2117 35.0314 31.2247C35.033 32.7247 35.0314 34.2238 35.0306 35.7238C34.9883 35.7996 34.9157 35.8411 34.8383 35.8443C34.2771 35.8699 33.7143 35.9401 33.1579 35.7996C32.9982 35.6767 33.0174 35.4947 33.0118 35.3254C33.0022 35.0333 33.0158 34.7411 33.0062 34.4489C32.9879 33.8925 32.7476 33.6507 32.1976 33.6331C31.8926 33.6235 31.5869 33.6371 31.2811 33.6283C30.9044 33.6371 30.5268 33.6387 30.15 33.6275C29.885 33.6275 29.6191 33.6219 29.3533 33.6251C28.7402 33.6323 28.563 33.7728 28.4097 34.3707C28.3315 34.686 28.3746 35.0061 28.3706 35.3231C28.3666 35.6408 28.2182 35.7813 27.9084 35.7869C27.4702 35.7956 27.0319 35.7741 26.5945 35.8156C26.5162 35.814 26.4444 35.7964 26.3885 35.7358C26.2704 35.5418 26.3007 35.3247 26.3007 35.1147C26.2983 33.0855 26.3007 31.0555 26.2983 29.0263C26.2983 28.4523 26.2831 28.4379 25.7251 28.3214C25.4138 28.2559 25.0993 28.204 24.7896 28.129C24.3441 28.0204 24.1805 27.8328 24.1525 27.3882C24.1318 27.0569 24.1374 26.7248 24.1517 26.3936C24.1645 26.0854 24.2986 25.8611 24.606 25.7645C25.6405 25.723 26.6759 25.7374 27.7113 25.7422C28.1607 25.7438 28.4105 26.0104 28.5662 26.3991C28.9023 27.2373 29.2064 28.0875 29.5241 28.9329C29.762 29.5643 29.7572 29.5587 30.4382 29.5707C30.7239 29.5763 31.0257 29.4933 31.2907 29.6777H31.2915Z" fill="#1F685C"/>
<path d="M34.6339 12.7485C32.3492 12.7501 30.0653 12.7509 27.7807 12.7525C27.6569 12.7014 27.5452 12.6335 27.4518 12.5346C26.7429 11.7794 25.9478 11.1136 25.2206 10.3784C24.0072 9.15307 22.7276 7.99557 21.5118 6.77182C21.0744 6.33117 20.5986 5.92405 20.1619 5.47941C20.0558 5.37085 19.9009 5.28144 19.932 5.08826C20.3064 5.14972 20.5842 5.5305 21.0121 5.41395C25.2757 7.705 29.5385 9.99525 33.8013 12.2871C34.0807 12.4372 34.3561 12.5944 34.6339 12.7477V12.7485Z" fill="#DB5229"/>
<path d="M33.1507 35.7228C33.7774 35.7228 34.4032 35.7228 35.0299 35.7228C35.1225 35.7292 35.2151 35.738 35.3077 35.7412C35.7603 35.7571 35.8609 35.8553 35.8649 36.3215C35.872 37.2922 35.8728 38.2621 35.876 39.2328C34.3489 39.2328 32.821 39.2328 31.2939 39.2328C31.1822 39.1338 31.1822 38.9989 31.1814 38.868C31.1766 37.934 31.1758 37 31.1814 36.0661C31.1822 35.9471 31.191 35.8282 31.27 35.7292C31.8966 35.5496 32.5233 35.5592 33.1515 35.722L33.1507 35.7228Z" fill="#FFBB16"/>
<path d="M28.8783 15.1749C31.1685 15.1749 33.458 15.1741 35.7482 15.1733C35.373 16.9487 33.5394 18.3864 31.2835 17.8005C30.7845 17.8236 30.4533 17.4716 30.0613 17.2544C30.0278 17.2353 29.9966 17.2137 29.9663 17.1898C29.5169 16.813 29.2119 16.33 28.9557 15.8112C28.8998 15.6028 28.7657 15.404 28.8783 15.1757V15.1749Z" fill="#E3D645"/>
<path d="M30.09 17.1663C30.458 17.4337 30.8612 17.6349 31.2834 17.8002C31.2803 21.7045 31.2771 25.6089 31.2739 29.5132C31.0919 29.5021 31.0472 29.3504 30.9825 29.2235C30.9162 29.0933 30.8907 28.9441 30.8228 28.8155C30.0605 27.3747 29.9152 25.8356 29.9655 24.2279C30.0325 22.0661 29.9807 19.9004 29.9839 17.7363C29.9839 17.5423 29.9384 17.334 30.09 17.1655V17.1663Z" fill="#FE7970"/>
<path d="M30.0901 17.1659C30.0901 20.1139 30.0925 23.0619 30.0854 26.01C30.0846 26.3867 30.1213 26.7436 30.2753 27.0924C30.6266 27.8915 30.8637 28.7377 31.274 29.5128C31.2796 29.5679 31.286 29.6222 31.2915 29.6772C30.8541 29.6836 30.4158 29.6772 29.9792 29.7004C29.7525 29.7124 29.6567 29.6261 29.5816 29.4178C29.2264 28.4351 28.8528 27.458 28.4848 26.4793C28.2828 25.9413 28.1447 25.8431 27.5772 25.8423C26.6081 25.8399 25.6398 25.8391 24.6707 25.8383C24.7992 25.5589 25.057 25.6731 25.2622 25.6579C25.6629 25.6284 25.6845 25.6116 25.5575 25.2428C25.2342 24.3017 25.3508 24.134 26.3454 24.138C26.9553 24.1404 27.5684 24.0877 28.1687 24.2562C29.0356 24.4988 29.6431 25.0121 29.897 25.8248C29.8946 23.1218 29.8938 20.3478 29.8986 17.5746C29.8986 17.4189 29.8826 17.2505 30.0319 17.1363C30.0574 17.1331 30.0774 17.1427 30.0909 17.1651L30.0901 17.1659Z" fill="#C2CBD3"/>
<path d="M34.3259 7.40635C34.2788 7.65461 34.4352 7.96354 34.1622 8.17508C33.815 8.4433 33.4494 8.74266 33.0095 8.75703C32.5777 8.77139 32.2304 8.43772 31.8919 8.19744C31.5527 7.95636 31.7028 7.53407 31.6932 7.18682C31.678 6.63042 32.442 5.87446 33.0095 5.92475C33.439 5.96306 33.7942 6.24406 34.1319 6.49152C34.4297 6.70945 34.2995 7.07985 34.3259 7.40635Z" fill="#DBFEFD"/>
<path d="M26.252 2.7173C26.3095 2.45786 26.1259 2.117 26.3925 1.93499C26.7365 1.7003 27.0734 1.38817 27.5101 1.36742C28.1399 1.33788 28.8136 2.09305 28.8136 2.76679C28.8136 3.4118 28.1439 4.15978 27.5196 4.13424C27.1029 4.11747 26.7764 3.81652 26.4468 3.57545C26.1394 3.35113 26.3023 3.01186 26.2512 2.7165L26.252 2.7173Z" fill="#B6FEFD"/>
<path d="M26.4269 35.7235C26.4716 35.7291 26.5163 35.7347 26.561 35.7403C26.711 35.8504 26.7055 36.0165 26.7071 36.173C26.7158 37.0463 26.7142 37.9204 26.7078 38.7937C26.7071 38.9517 26.7063 39.1154 26.5705 39.2335C24.903 39.2335 23.2354 39.2335 21.5678 39.2335C21.4009 39.0763 21.436 38.8679 21.4344 38.6739C21.4289 37.8805 21.436 37.087 21.4305 36.2935C21.4273 35.8337 21.3881 35.8018 20.9307 35.7914C20.6138 35.7842 20.2961 35.8137 19.9808 35.7626C19.4651 35.5782 19.0221 35.2557 18.5495 34.9915C17.8438 34.5972 17.1597 34.1637 16.4484 33.7789C16.1243 33.6041 15.9862 33.3686 16.0245 33.0086C16.0565 32.7084 15.9695 32.3987 16.0884 32.1041C16.2808 31.9804 16.4141 32.1425 16.549 32.2199C17.9308 33.0126 19.3015 33.8236 20.6833 34.6155C21.2796 34.9572 21.8456 35.3595 22.4977 35.6006C23.6018 35.6493 24.705 35.607 25.8082 35.6229C26.0181 35.6261 26.2369 35.5926 26.4269 35.7235Z" fill="#FFBB16"/>
<path d="M11.8973 39.2328C11.8989 38.0721 11.9005 36.9106 11.9021 35.7499C12.0243 35.6174 12.1895 35.6222 12.346 35.6222C13.5793 35.6214 14.8126 35.6054 16.0468 35.6286C16.9313 35.5903 16.96 35.6182 16.96 36.5147C16.96 37.2587 16.9624 38.0019 16.9584 38.7458C16.9576 38.9151 16.9887 39.0963 16.845 39.2336H11.8973V39.2328Z" fill="#FFBB16"/>
<path d="M26.5705 39.2336L26.5609 35.7403C27.0383 35.6118 27.5252 35.7028 28.0066 35.69C28.2261 35.6844 28.2988 35.6262 28.298 35.401C28.2964 35.0354 28.2461 34.6658 28.3307 34.3026C28.5374 34.5429 28.456 34.8343 28.4528 35.1033C28.4488 35.4234 28.559 35.5615 28.8903 35.5495C29.2998 35.5343 29.7109 35.5383 30.122 35.5503C30.4014 35.5312 30.6808 35.5264 30.9586 35.5575C31.1063 35.5743 31.2524 35.611 31.2484 35.8129C31.2236 36.9529 31.3003 38.0936 31.2085 39.2328H26.5705V39.2336Z" fill="#DBFEFD"/>
<path d="M19.8801 35.6685C20.3176 35.6741 20.7559 35.6972 21.1925 35.6781C21.4831 35.6653 21.5821 35.7411 21.5765 36.0493C21.5565 37.1102 21.5677 38.1719 21.5677 39.2336C20.0214 39.2336 18.476 39.2336 16.9297 39.2328C16.8427 38.8281 16.8986 38.4185 16.8922 38.0114C16.8818 37.3105 16.8962 36.6096 16.885 35.9088C16.8818 35.698 16.9513 35.5591 17.162 35.5607C18.0689 35.5679 18.9829 35.4146 19.8801 35.6685Z" fill="#DBFEFD"/>
<path d="M19.8802 35.6687C19.0061 35.6735 18.132 35.6863 17.2579 35.6775C17 35.6751 16.917 35.7477 16.921 36.0128C16.9361 37.0857 16.929 38.1593 16.9298 39.233C16.9018 39.233 16.8739 39.233 16.8451 39.233C16.8451 38.2384 16.8284 37.2437 16.8555 36.2499C16.8659 35.8627 16.7829 35.6679 16.3606 35.7438C16.2584 35.7621 16.149 35.7438 16.0429 35.7422C15.9056 35.5873 15.9207 35.3957 15.9207 35.2113C15.9183 29.0039 15.9183 22.7957 15.9207 16.5884C15.9207 16.4159 15.912 16.2411 16.0006 16.0823C16.1387 15.9681 16.1682 16.091 16.2145 16.1796C16.264 16.5077 16.2552 16.8374 16.2472 17.1679C16.2552 17.7977 16.264 18.4268 16.2456 19.0566C16.256 19.5037 16.2536 19.9515 16.2512 20.3985C16.2329 20.5694 16.2624 20.7402 16.2432 20.911C16.2504 21.2742 16.256 21.6366 16.2432 21.9999C16.2472 22.1212 16.2512 22.2425 16.2432 22.3631C16.2568 22.8005 16.2504 23.2388 16.2496 23.6762C16.2353 23.8455 16.2584 24.0147 16.244 24.1839C16.2528 24.5464 16.2544 24.9088 16.244 25.2704C16.248 25.3917 16.252 25.5123 16.244 25.6336C16.2552 26.0711 16.2576 26.5085 16.2448 26.946C16.2448 27.1152 16.256 27.2844 16.2448 27.4537C16.2528 27.8153 16.2552 28.1769 16.2448 28.5385C16.2432 28.6351 16.2592 28.7325 16.2464 28.8291C16.2488 29.2921 16.2616 29.7543 16.2456 30.2165C16.2456 30.3865 16.2568 30.5558 16.2456 30.7258C16.2536 31.0667 16.2584 31.4067 16.2432 31.7476C16.2377 31.8721 16.2401 31.9998 16.1395 32.0964C16.1371 32.3471 16.169 32.6041 16.1251 32.8484C16.0325 33.3609 16.3071 33.5892 16.7118 33.8143C17.7807 34.409 18.8265 35.0469 19.881 35.6671L19.8802 35.6687Z" fill="#FE7970"/>
<path d="M31.2084 39.2328C31.2092 38.1711 31.1981 37.1086 31.2188 36.0469C31.2252 35.7371 31.1246 35.6533 30.8357 35.6773C30.5858 35.698 30.3319 35.6749 30.0797 35.6717C29.9831 35.5511 29.9599 35.4066 29.9695 35.2614C30.0102 34.677 29.853 34.0815 30.0693 33.5068C30.4732 33.4676 30.878 33.4676 31.2819 33.5068C31.3545 33.589 31.4 33.684 31.4048 33.7933C31.4272 34.3481 31.4256 34.9037 31.4056 35.4585C31.4016 35.5663 31.3633 35.6653 31.2891 35.7475C31.2899 36.9098 31.2907 38.0713 31.2915 39.2336H31.2069L31.2084 39.2328Z" fill="#FE7970"/>
<path d="M22.1233 12.7474L16.3047 12.7522C16.2328 12.6005 16.319 12.468 16.363 12.3339C17.1309 9.96624 17.9755 7.6249 18.745 5.25722C18.7993 5.09038 18.8759 4.9403 18.9933 4.81098C19.1346 4.72717 19.2759 4.63217 19.4211 4.8038C19.6686 5.00018 19.7173 5.30512 19.8067 5.57414C20.5579 7.82846 21.3514 10.0692 22.0906 12.3275C22.1345 12.4616 22.2119 12.5998 22.1233 12.7466V12.7474Z" fill="#DB5229"/>
<path d="M18.9932 4.81201C18.4504 6.43171 17.9116 8.05301 17.3648 9.67111C17.0175 10.7001 16.6583 11.7259 16.3054 12.7532C14.4199 12.7509 12.5336 12.7493 10.6481 12.7469C12.3436 11.1032 14.0399 9.46116 15.7339 7.81672C16.6663 6.91147 17.5939 6.00224 18.5238 5.0954C18.6803 5.0012 18.8368 4.90701 18.9932 4.81201Z" fill="#FEFEFE"/>
<path d="M22.1233 12.7475C21.2228 10.0996 20.3216 7.45177 19.4211 4.80469C19.6295 4.83183 19.7692 4.9827 19.9328 5.08887C20.7183 5.95181 21.5972 6.72055 22.4306 7.53479C24.0519 9.11936 25.6892 10.6864 27.3185 12.263C27.4797 12.4186 27.6274 12.5887 27.7815 12.7523C25.896 12.7507 24.0096 12.7491 22.1241 12.7475H22.1233Z" fill="#FEFEFE"/>
<path d="M10.2258 16.9146C9.86497 16.6 9.62948 16.1961 9.41075 15.7794C9.35727 15.5798 9.30378 15.3795 9.2511 15.1799C11.4336 15.1783 13.6161 15.1767 15.7993 15.1743C15.9814 15.3459 16.0348 15.5631 16.0229 15.8034C15.1017 18.0361 12.2678 18.7602 10.4078 17.2371C10.3064 17.154 10.1899 17.0766 10.2266 16.9146H10.2258Z" fill="#DB5229"/>
<path d="M28.8783 15.1752C28.9318 15.3747 28.9853 15.5743 29.0388 15.7747C29.0452 16.0732 28.8823 16.3031 28.7171 16.5259C27.1173 18.6852 23.9274 18.4936 22.5863 16.1602C22.5264 16.0565 22.473 15.9503 22.4219 15.8425C22.3524 15.6278 22.1992 15.4234 22.3293 15.1808L28.8791 15.1752H28.8783Z" fill="#DB5229"/>
<path d="M22.3285 15.1805C22.3828 15.3785 22.4379 15.5773 22.4922 15.7752C22.4858 15.9125 22.4714 16.0482 22.39 16.1656C21.7913 17.1571 20.9515 17.8021 19.7844 17.9769C18.413 18.1557 17.277 17.7262 16.387 16.6613C16.264 16.5144 16.1954 16.3452 16.1451 16.1648L16.0645 16.0027C15.9671 15.9588 15.9272 15.887 15.9583 15.7816C15.9056 15.5789 15.8521 15.3761 15.7994 15.1733C17.9763 15.1757 20.1524 15.1781 22.3293 15.1805H22.3285Z" fill="#E3D645"/>
<path d="M22.3421 35.1886C22.3437 35.3491 22.3445 35.5095 22.3461 35.67C21.4081 35.1336 20.4685 34.5987 19.5313 34.0591C18.3994 33.4069 17.269 32.7515 16.1387 32.0977C16.1387 31.9844 16.1387 31.871 16.1387 31.7576C16.2864 31.6491 16.4261 31.7297 16.5458 31.7992C18.4776 32.9287 20.4358 34.0144 22.3421 35.1878V35.1886Z" fill="#FE7970"/>
<path d="M22.3452 20.7415C22.3428 21.3562 22.3412 21.9717 22.3388 22.5864C22.1656 22.6885 22.0307 22.5704 21.9014 22.4946C20.0989 21.4368 18.2852 20.3975 16.4819 19.3406C16.3566 19.2671 16.232 19.1913 16.1346 19.0795C16.1362 18.4329 16.1386 17.7863 16.1402 17.1389C16.2847 17.1022 16.3997 17.1788 16.5122 17.2451C18.3315 18.3188 20.1691 19.3613 21.9876 20.4358C22.1233 20.5156 22.275 20.5811 22.3452 20.7407V20.7415Z" fill="#FE7970"/>
<path d="M22.3412 25.8577L22.3428 27.2827C21.875 27.2324 21.531 26.9186 21.151 26.6983C19.584 25.7883 18.0122 24.8878 16.45 23.9698C16.3238 23.8956 16.1889 23.8365 16.1402 23.6816L16.1331 22.3493C16.2879 22.2256 16.4093 22.3437 16.5282 22.4124C18.3563 23.4653 20.1763 24.5318 22.0044 25.5839C22.1305 25.6566 22.2558 25.734 22.3412 25.8585V25.8577Z" fill="#FFBB16"/>
<path d="M16.1347 19.0806C16.739 19.32 17.2675 19.696 17.8263 20.0169C19.2376 20.8264 20.6402 21.651 22.0475 22.4668C22.1377 22.5187 22.2415 22.5475 22.3389 22.5874C22.3405 23.0624 22.3429 23.5381 22.3445 24.0131C22.1976 24.0754 22.0914 23.978 21.9797 23.9141C20.1524 22.8684 18.3419 21.7915 16.5139 20.7466C16.367 20.6627 16.1994 20.5941 16.1387 20.4105C16.1371 19.9674 16.1355 19.5236 16.1339 19.0806H16.1347Z" fill="#FFBB16"/>
<path d="M22.3437 32.3996C22.3429 32.8745 22.3413 33.3495 22.3405 33.8245C21.9102 33.7838 21.6013 33.486 21.2525 33.2856C19.6623 32.3748 18.0841 31.4416 16.4932 30.5308C16.3527 30.451 16.2177 30.3703 16.1411 30.2203V28.8289C16.3056 28.753 16.4181 28.8776 16.5371 28.9454C18.3795 30.0015 20.2019 31.0912 22.0491 32.1377C22.1673 32.2048 22.2631 32.2926 22.3437 32.3996Z" fill="#FFBB16"/>
<path d="M22.343 29.1282C22.343 29.6031 22.3422 30.0781 22.3414 30.5531C22.1929 30.6002 22.0867 30.5004 21.9758 30.4365C20.1421 29.3876 18.3221 28.3171 16.4924 27.261C16.3527 27.1804 16.2178 27.0982 16.1404 26.9489C16.1372 26.505 16.1348 26.0604 16.1316 25.6166C16.32 25.488 16.4629 25.6301 16.6018 25.7116C18.3636 26.7477 20.1373 27.7631 21.9023 28.7929C22.062 28.8863 22.2296 28.9725 22.343 29.1274V29.1282Z" fill="#FFBB16"/>
<path d="M22.3421 27.6083C22.3421 27.9795 22.3421 28.3515 22.3421 28.7227C22.1209 28.781 21.9597 28.6397 21.7936 28.5431C20.0997 27.5517 18.3962 26.5754 16.7031 25.5815C16.5194 25.4737 16.3031 25.4362 16.1387 25.2949C16.1387 24.9221 16.1387 24.5501 16.1387 24.1773C16.3255 24.0353 16.4652 24.1829 16.6065 24.2628C18.2062 25.1784 19.798 26.1076 21.3889 27.0376C21.7082 27.2244 22.0515 27.3728 22.3421 27.6083Z" fill="#FE7970"/>
<path d="M22.3421 35.1888C21.8177 35.089 21.4249 34.729 20.9811 34.4775C19.4827 33.6297 18.0043 32.7461 16.5147 31.8815C16.403 31.8169 16.2649 31.7977 16.1395 31.7578C16.1395 31.4121 16.1395 31.0657 16.1395 30.72C16.3207 30.5811 16.4668 30.7081 16.6113 30.7911C18.2334 31.7235 19.8515 32.663 21.4656 33.6098C21.7522 33.7782 22.0619 33.8972 22.3429 34.072C22.3429 34.444 22.3429 34.8168 22.3429 35.1888H22.3421Z" fill="#FE7970"/>
<path d="M22.342 30.8795V31.9165C22.1584 32.0322 22.0107 31.9157 21.867 31.8318C20.1835 30.8524 18.4959 29.8785 16.8171 28.8902C16.5984 28.7617 16.3478 28.709 16.1394 28.5653C16.1394 28.1925 16.1394 27.8205 16.1394 27.4477C16.2695 27.3352 16.3885 27.4078 16.5034 27.4749C18.4273 28.5964 20.3551 29.7116 22.2837 30.826C22.3061 30.8388 22.3236 30.8611 22.3428 30.8795H22.342Z" fill="#FE7970"/>
<path d="M22.3421 24.3368C22.3421 24.708 22.3421 25.08 22.3421 25.4512C21.9014 25.4464 21.5853 25.1471 21.2444 24.9435C19.7285 24.0406 18.1894 23.1801 16.6735 22.278C16.5011 22.1759 16.2887 22.1647 16.1387 22.0226C16.1387 21.6506 16.1387 21.2778 16.1387 20.9058C16.3127 20.7893 16.4428 20.9226 16.5729 20.9952C17.843 21.7065 19.0899 22.4601 20.3504 23.1881C21.0145 23.5713 21.6819 23.9472 22.3421 24.3376V24.3368Z" fill="#FE7970"/>
<path d="M22.3452 20.7416C20.9275 19.9202 19.509 19.1004 18.092 18.2781C17.4406 17.9005 16.7909 17.5198 16.1403 17.1398C16.1419 16.8149 16.1435 16.49 16.145 16.1659C16.7022 17.0009 17.4239 17.6084 18.4273 17.8383C18.8863 17.9437 19.3469 17.9429 19.8107 17.8989C20.0231 17.9309 20.2155 18.0091 20.3991 18.1249C20.9259 18.4585 21.4775 18.7499 22.0148 19.0652C22.1553 19.1474 22.283 19.2353 22.3484 19.3909L22.346 20.7416H22.3452Z" fill="#FFBB16"/>
<path d="M22.3421 24.3369C21.7689 24.2651 21.3546 23.8651 20.8796 23.6033C19.79 23.0022 18.7402 22.3301 17.6522 21.7266C17.1517 21.4488 16.6879 21.0959 16.1387 20.9067C16.1387 20.7415 16.1387 20.5763 16.1387 20.411C18.207 21.6116 20.2761 22.8122 22.3445 24.0136C22.3437 24.1214 22.3429 24.23 22.3421 24.3377V24.3369Z" fill="#FE7970"/>
<path d="M22.3421 30.8797C21.8288 30.8014 21.4512 30.4454 21.0201 30.2083C19.9297 29.6088 18.8664 28.9606 17.7903 28.334C17.3608 28.0833 16.9258 27.8422 16.4979 27.59C16.3837 27.5229 16.2856 27.4279 16.1387 27.4495C16.1387 27.2834 16.1395 27.1174 16.1403 26.9506C18.207 28.152 20.2745 29.3526 22.3413 30.554C22.3413 30.6625 22.3413 30.7719 22.3413 30.8805L22.3421 30.8797Z" fill="#FE7970"/>
<path d="M16.1394 22.0228C16.5752 21.9781 16.8802 22.2839 17.2163 22.4651C18.0792 22.9313 18.9094 23.4573 19.7564 23.9531C20.6161 24.456 21.4798 24.9525 22.342 25.4514C22.342 25.5871 22.3412 25.722 22.3404 25.8578C21.3673 25.3772 20.4541 24.7905 19.5145 24.2516C18.4472 23.6393 17.3847 23.0175 16.319 22.402C16.2647 22.3709 16.1945 22.3661 16.1322 22.3485C16.1346 22.24 16.137 22.1314 16.1386 22.0236L16.1394 22.0228Z" fill="#FE7970"/>
<path d="M16.1394 28.5665C16.5777 28.505 16.8754 28.8171 17.2059 29.0031C18.2868 29.6114 19.3293 30.29 20.4214 30.8775C21.0624 31.2223 21.6275 31.7109 22.3436 31.9176C22.3436 32.0789 22.3444 32.2393 22.3452 32.4006C21.1446 31.7125 19.9424 31.026 18.7426 30.3363C17.8741 29.8365 17.0079 29.332 16.141 28.8299C16.141 28.7421 16.141 28.6543 16.141 28.5665H16.1394Z" fill="#FE7970"/>
<path d="M22.342 27.6082C21.9756 27.5922 21.7162 27.336 21.4256 27.1699C19.7316 26.2024 18.0521 25.2094 16.3661 24.2283C16.3023 24.1908 16.2152 24.1932 16.1394 24.1772C16.1394 24.0119 16.1394 23.8467 16.1394 23.6807C18.1175 24.8254 20.0965 25.9693 22.0746 27.114C22.1656 27.1667 22.2534 27.2258 22.3428 27.2817V27.6074L22.342 27.6082Z" fill="#FE7970"/>
<path d="M22.342 34.0711C22.0139 34.091 21.7688 33.8971 21.5078 33.7454C19.8187 32.7635 18.1303 31.78 16.442 30.7974C16.3478 30.7431 16.2488 30.712 16.1394 30.7199C16.1394 30.5531 16.141 30.3871 16.141 30.2202C18.2077 31.4216 20.2745 32.623 22.3404 33.8236C22.3404 33.9058 22.3412 33.9889 22.342 34.0711Z" fill="#FE7970"/>
<path d="M16.1396 25.2941C16.6297 25.2869 16.9658 25.6333 17.349 25.8489C19.0221 26.7916 20.6794 27.7615 22.3422 28.7218C22.3422 28.8568 22.3422 28.9925 22.343 29.1274C21.595 28.7051 20.843 28.29 20.0998 27.8605C18.8848 27.1588 17.6747 26.4476 16.4613 25.7427C16.3599 25.6836 16.2601 25.6102 16.1316 25.6174C16.134 25.5096 16.1364 25.4018 16.1388 25.2941H16.1396Z" fill="#FFBB16"/>
<path d="M22.3477 19.3909C21.5015 18.8935 20.6561 18.3962 19.8099 17.8981C20.9211 17.677 21.745 17.0495 22.3453 16.106C22.3461 17.2012 22.3469 18.2956 22.3477 19.3909Z" fill="#FE796F"/>
</svg>
