<svg width="38" height="38" viewBox="0 0 38 38" fill="none" xmlns="http://www.w3.org/2000/svg">
<g clip-path="url(#clip0_610_8018)">
<path d="M28.4047 8.2858C30.591 7.88552 32.074 8.77615 32.6543 10.9017C34.0708 16.1053 35.4732 21.311 36.8635 26.5207C37.4317 28.6542 36.4928 30.2934 34.3287 30.8758C25.7934 33.1714 17.254 35.449 8.71264 37.7146C6.71985 38.243 4.987 37.2703 4.43692 35.2729C2.97809 29.9791 1.54345 24.6774 0.143058 19.3676C-0.380829 17.3802 0.550078 15.8391 2.53682 15.1787C2.98212 15.3808 2.96197 15.8211 3.04459 16.1954C3.57653 18.5831 4.68878 20.6546 6.41157 22.4058C6.70575 22.706 7.08859 22.9702 7.04426 23.4745C6.88508 23.8328 6.5244 23.8528 6.2141 23.9629C5.82522 24.101 5.2429 24.097 5.42021 24.7414C5.61566 25.4499 6.15365 25.1177 6.57881 25.0196C8.04569 24.6794 9.49242 24.2611 10.9472 23.8748C17.252 22.2016 23.5588 20.5365 29.8555 18.8373C30.0167 18.7932 30.1799 18.7552 30.3411 18.7132C30.6716 18.6291 30.8932 18.471 30.7945 18.0807C30.7058 17.7305 30.4822 17.6064 30.1235 17.6404C29.6177 17.6885 29.0858 18.0427 28.6163 17.5343C28.4672 17.056 28.6707 16.6137 28.7614 16.1614C29.1986 13.9338 29.1644 11.7262 28.4894 9.54469C28.3624 9.1344 28.1871 8.72211 28.4047 8.2858Z" fill="#E3D645"/>
<path d="M28.4046 8.28583C29.5713 11.372 29.6619 14.4902 28.6887 17.6404C28.6625 18.0487 28.3059 18.0647 28.0399 18.1388C22.8957 19.5698 17.7213 20.8827 12.5691 22.2857C12.3757 22.3378 12.1762 22.3638 11.9747 22.3418C11.4468 22.0155 10.9169 21.6813 10.6348 22.606C9.48222 23.1603 8.31758 23.6547 6.98771 23.4205C4.59193 21.1609 3.09281 18.421 2.53467 15.1807C2.24049 11.7183 2.87923 8.48797 4.94455 5.60994C10.8866 -2.67192 23.6372 -1.58715 28.048 7.57132C28.1628 7.81149 28.2857 8.04766 28.4066 8.28583H28.4046Z" fill="#FE0055"/>
<path d="M11.8599 22.1576C17.4695 20.6526 23.0792 19.1455 28.6888 17.6404C29.1462 17.5444 29.6298 17.5124 30.0549 17.3382C30.7037 17.07 30.9113 17.3042 31.0906 17.9066C31.2861 18.5651 31.1269 18.8093 30.4559 18.9854C22.3598 21.1129 14.2678 23.2604 6.18381 25.432C5.52895 25.6081 5.27909 25.562 5.07155 24.8455C4.85394 24.093 5.12999 23.9189 5.75059 23.7948C6.17172 23.7107 6.57672 23.5466 6.98777 23.4165C8.19473 23.1063 9.40168 22.7941 10.6066 22.4839C10.927 22.0075 11.3824 22.0436 11.8579 22.1556L11.8599 22.1576Z" fill="#FDBB01"/>
<path d="M6.90307 30.4134C6.29455 30.3714 6.52224 29.743 6.33485 29.3847C6.04873 28.8363 6.47791 28.7923 6.83254 28.6982C10.1935 27.8036 13.5544 26.909 16.9174 26.0143C17.3365 25.9022 17.7576 25.7902 18.1767 25.6761C19.1439 25.4159 19.5287 25.7361 19.5408 26.7388C19.5449 27.0931 19.3232 27.1131 19.1177 27.1671C15.112 28.2379 11.1042 29.3006 7.0965 30.3654C7.06426 30.3734 7.03202 30.3814 6.90307 30.4094V30.4134Z" fill="#FCFCFC"/>
<path d="M29.6821 22.758C31.0543 22.8141 32.1364 23.9649 32.09 25.3218C32.0437 26.7108 30.8146 27.8416 29.4343 27.7636C28.0158 27.6835 26.97 26.5047 27.0506 25.0757C27.1292 23.7027 28.2656 22.7 29.6801 22.758H29.6821Z" fill="#FDFDFD"/>
<path d="M7.20538 32.611C7.05627 32.0967 7.30008 32.0366 7.58419 31.9606C10.4857 31.192 13.3872 30.4155 16.2847 29.6309C17.0101 29.4348 16.9194 30.0092 17.0262 30.3775C17.127 30.7217 17.4171 31.086 16.726 31.2621C13.8164 32.0046 10.925 32.8172 8.01942 33.5737C6.96358 33.8479 7.60434 32.7231 7.20336 32.613L7.20538 32.611Z" fill="#FBFCFB"/>
<path d="M22.515 14.5623C22.5251 16.1674 21.4047 17.3583 19.8794 17.3663C18.3642 17.3743 17.1109 15.9213 17.1028 14.146C17.0948 12.5649 18.2211 11.3981 19.7867 11.368C21.3604 11.338 22.5029 12.677 22.515 14.5643V14.5623Z" fill="#FBFBFB"/>
<path d="M9.29688 12.0925C9.28278 10.4513 10.4112 9.27852 12.013 9.26451C13.5242 9.2505 14.6889 10.6615 14.701 12.5148C14.7111 14.1159 13.5867 15.2888 12.0493 15.2808C10.4817 15.2708 9.31099 13.9178 9.29688 12.0945V12.0925Z" fill="#FBFBFB"/>
<path d="M17.8786 7.75553C16.984 11.31 16.0914 14.7825 15.2491 18.265C15.0799 18.9655 14.5197 18.8093 14.0986 19.0475C13.8648 18.5071 14.1389 18.0768 14.2457 17.6505C14.969 14.7165 15.7387 11.7944 16.4541 8.86031C16.6314 8.12979 16.9215 7.65145 17.8786 7.75553Z" fill="#FBF9FA"/>
<path d="M13.1616 3.89672C13.1132 4.26298 12.9137 4.52516 12.543 4.54718C12.1601 4.56919 11.9224 4.30901 11.8982 3.94475C11.874 3.56448 12.1078 3.32431 12.4946 3.3083C12.8855 3.29029 13.083 3.53646 13.1636 3.89872L13.1616 3.89672Z" fill="#FCEBEF"/>
<path d="M5.938 14.9466C5.52494 14.8845 5.27106 14.6884 5.263 14.3041C5.25494 13.9118 5.5189 13.6656 5.87957 13.6656C6.23219 13.6656 6.5163 13.8978 6.52033 14.2861C6.52436 14.6724 6.24025 14.8485 5.938 14.9466Z" fill="#FBE4EA"/>
<path d="M9.20426 20.1943C9.16799 20.5945 8.96649 20.8247 8.56552 20.8147C8.21894 20.8067 8.00133 20.6066 7.97715 20.2643C7.94894 19.872 8.15648 19.6279 8.55343 19.6058C8.95642 19.5838 9.14784 19.832 9.20426 20.1943Z" fill="#FAEFF1"/>
<path d="M25.8316 17.2742C25.747 17.6565 25.5314 17.8846 25.1405 17.8546C24.7476 17.8246 24.532 17.5564 24.5642 17.1901C24.5944 16.8259 24.8483 16.5897 25.2392 16.6177C25.6341 16.6477 25.7933 16.9259 25.8316 17.2722V17.2742Z" fill="#FCE5EC"/>
<path d="M25.9505 13.4075C26.3474 13.4635 26.5852 13.6817 26.5812 14.0679C26.5771 14.4062 26.3676 14.6303 26.0129 14.6503C25.612 14.6724 25.3601 14.4522 25.342 14.0679C25.3238 13.6817 25.5817 13.4715 25.9505 13.4095V13.4075Z" fill="#FCECEF"/>
<path d="M6.12131 10.3934C6.49004 10.4274 6.74191 10.6235 6.73184 11.0178C6.72378 11.4081 6.47795 11.6242 6.08302 11.6142C5.72638 11.6062 5.52891 11.3881 5.51279 11.0458C5.49264 10.6515 5.70421 10.4314 6.12131 10.3914V10.3934Z" fill="#FBEEF1"/>
<path d="M8.01537 7.96165C7.98112 8.3199 7.82194 8.5941 7.40686 8.58609C7.01596 8.57809 6.77416 8.34992 6.78424 7.95965C6.7923 7.62941 6.98976 7.39725 7.34238 7.37123C7.74738 7.33921 7.95895 7.55936 8.01537 7.96165Z" fill="#FBEEF1"/>
<path d="M23.6534 7.72348C23.7078 7.30918 23.9496 7.10904 24.3405 7.15307C24.669 7.1891 24.9047 7.38724 24.8886 7.74749C24.8725 8.13377 24.6529 8.37994 24.2559 8.36593C23.861 8.35192 23.6736 8.09174 23.6555 7.72348H23.6534Z" fill="#FCEDF1"/>
<path d="M22.0515 4.75134C22.3941 4.78337 22.6298 4.99552 22.6177 5.37378C22.6036 5.74605 22.3558 5.98221 21.979 5.98021C21.5962 5.97621 21.3624 5.72603 21.3725 5.35177C21.3826 4.9795 21.6143 4.76135 22.0515 4.75134Z" fill="#FCECF0"/>
<path d="M19.0452 4.43711C18.6705 4.40909 18.4367 4.20495 18.4488 3.80867C18.4609 3.41839 18.7007 3.19423 19.0956 3.21425C19.4341 3.23226 19.6477 3.44241 19.6598 3.79066C19.6719 4.18494 19.4684 4.40709 19.0452 4.43711Z" fill="#FCEEF1"/>
<path d="M10.2299 5.49581C10.2097 5.88409 10.0143 6.14427 9.62136 6.14827C9.22844 6.15228 9.00478 5.89209 8.99874 5.51182C8.99068 5.15957 9.22441 4.95943 9.56091 4.92941C9.95584 4.89539 10.1916 5.09353 10.2319 5.49581H10.2299Z" fill="#FDEDF1"/>
<path d="M6.73992 18.1167C6.35506 18.0467 6.12334 17.8466 6.12737 17.4583C6.1314 17.058 6.39334 16.8459 6.75604 16.8539C7.12679 16.8619 7.36254 17.11 7.35448 17.4943C7.34642 17.8846 7.09253 18.0647 6.73992 18.1167Z" fill="#FCE8ED"/>
<path d="M16.4096 3.34828C16.3431 3.72054 16.1336 3.97673 15.7427 3.95071C15.3538 3.92669 15.1483 3.6545 15.1704 3.27023C15.1906 2.92198 15.4203 2.72384 15.7669 2.72784C16.1578 2.73185 16.3714 2.956 16.4096 3.34828Z" fill="#FCECEF"/>
<path d="M25.7006 11.4001C25.2512 11.34 25.0397 11.1179 25.0397 10.7416C25.0397 10.3533 25.2694 10.1312 25.6623 10.1472C26.0451 10.1632 26.2708 10.3933 26.2668 10.7756C26.2607 11.1639 25.9907 11.33 25.7006 11.4001Z" fill="#FCF0F2"/>
<path d="M11.8599 22.1576C11.469 22.3638 11.0418 22.4358 10.6086 22.4858C10.5522 22.0876 10.6086 21.7273 11.062 21.6152C11.5033 21.5072 11.7632 21.7293 11.8579 22.1576H11.8599Z" fill="#F7E8E8"/>
<path d="M20.8627 14.6223C20.9071 15.3128 20.8809 15.8031 20.3368 15.9812C19.7364 16.1774 19.414 15.7711 19.1702 15.3067C18.872 14.7383 18.7571 14.1279 18.8075 13.4895C18.8377 13.0852 19.0251 12.807 19.4321 12.6989C19.819 12.5968 20.0708 12.811 20.2764 13.0812C20.6693 13.5955 20.8103 14.204 20.8627 14.6223Z" fill="#FE0255"/>
<path d="M10.9492 11.6462C10.9371 11.1718 11.0701 10.7616 11.5698 10.6255C12.0796 10.4854 12.3859 10.8056 12.6035 11.2159C12.9219 11.8143 13.0831 12.4488 13.0468 13.1332C13.0246 13.5495 12.8372 13.8357 12.4483 13.9598C12.0736 14.0779 11.7955 13.8597 11.5779 13.5976C11.1104 13.0332 10.9653 12.3567 10.9492 11.6462Z" fill="#FE0255"/>
</g>
<defs>
<clipPath id="clip0_610_8018">
<rect width="37.0267" height="37.8588" fill="white"/>
</clipPath>
</defs>
</svg>
