<svg width="156" height="120" viewBox="0 0 156 120" fill="none" xmlns="http://www.w3.org/2000/svg">
<g clip-path="url(#clip0_610_29324)">
<path fill-rule="evenodd" clip-rule="evenodd" d="M93.3455 33.6672C91.0332 32.199 89.0449 30.8319 86.7178 29.221C86.388 28.2432 85.9005 27.5478 84.8336 27.1495C84.0549 26.888 83.5021 26.7275 82.6908 26.5462C82.3609 26.4808 81.8705 26.1153 81.5376 26.1271C79.2164 26.2133 79.05 27.1674 80.3934 28.9714C80.964 29.7917 81.8794 30.4574 82.4797 29.7411L81.9775 32.7845C82.1439 33.6583 82.7829 34.0595 83.3892 34.4934C86.0402 37.62 88.4297 40.5385 90.7479 43.2965C92.0407 39.5518 92.7719 37.2009 93.3425 33.6672H93.3455Z" fill="#FDBF9F"/>
<path fill-rule="evenodd" clip-rule="evenodd" d="M82.4768 33.5692C82.9523 33.4949 82.6997 32.7013 82.557 32.3596C83.5051 32.951 83.5229 33.8783 82.6075 33.8159C82.5897 33.8188 82.563 33.8218 82.5362 33.8188C82.4619 33.7416 82.3906 33.6613 82.3252 33.5751C82.3787 33.5751 82.4292 33.5751 82.4768 33.5692Z" fill="#DB5229"/>
<path fill-rule="evenodd" clip-rule="evenodd" d="M82.1469 32.3982C82.6224 32.3239 82.3222 31.2718 82.1795 30.93C83.1752 31.7681 83.1187 32.8143 82.3371 32.7251C82.3192 32.7281 82.2301 32.6508 82.2033 32.6508C82.129 32.5735 82.0577 32.4933 81.9923 32.4071C82.0458 32.4071 82.0963 32.4071 82.1439 32.4011L82.1469 32.3982Z" fill="#DB5229"/>
<path fill-rule="evenodd" clip-rule="evenodd" d="M82.1766 32.5052C82.349 32.4992 82.4738 32.4517 82.557 32.3714C82.9672 32.945 83.1752 33.4592 82.4798 33.5692C81.8051 33.6613 80.5093 32.9034 81.0146 31.9583C81.4336 32.312 81.9715 32.52 82.1766 32.5052Z" fill="#FDBF9F"/>
<path fill-rule="evenodd" clip-rule="evenodd" d="M82.1766 32.5051C82.3489 32.4991 82.4738 32.4516 82.557 32.3713C82.6105 32.4456 82.664 32.5199 82.7086 32.5942C82.6283 32.6894 82.4946 32.7428 82.3073 32.7518C82.0725 32.7666 81.4068 32.4962 80.9729 32.0444C80.9848 32.0147 80.9996 31.985 81.0145 31.9553C81.4336 32.3089 81.9715 32.517 82.1766 32.5021V32.5051Z" fill="#DB5229"/>
<path fill-rule="evenodd" clip-rule="evenodd" d="M80.2626 21.7969L81.2315 21.5799C81.4039 21.5413 81.5733 21.6512 81.6119 21.8207L82.658 26.5462C82.2717 26.4957 81.9002 26.6532 82.2449 27.4318C82.4886 27.9103 82.7621 28.3205 83.1247 28.6474L83.6299 30.9359C83.6685 31.1082 83.5586 31.2776 83.3892 31.3163L82.4203 31.5332C82.2479 31.5719 82.0785 31.4619 82.0399 31.2925L80.0248 22.1743C79.9862 22.0019 80.0962 21.8325 80.2656 21.7939L80.2626 21.7969Z" fill="#DB5229"/>
<path fill-rule="evenodd" clip-rule="evenodd" d="M80.9253 23.063L81.2107 23.0006C81.2612 22.9887 81.3117 23.0214 81.3236 23.0719L81.49 23.8238L81.6297 24.445C81.6416 24.4955 81.6089 24.546 81.5584 24.5579L81.2731 24.6203C81.2225 24.6322 81.172 24.5995 81.1601 24.549L81.0829 24.2042L80.854 23.1759C80.8421 23.1254 80.8748 23.0749 80.9253 23.063Z" fill="#DB5229"/>
<path fill-rule="evenodd" clip-rule="evenodd" d="M83.1217 28.6474L83.2108 29.0457C82.8928 28.7336 82.6461 28.3502 82.4232 27.9134C82.3579 27.7677 82.3192 27.6429 82.3014 27.5389C82.5302 27.9728 82.7888 28.3473 83.1246 28.6504L83.1217 28.6474Z" fill="#DB5229"/>
<path fill-rule="evenodd" clip-rule="evenodd" d="M82.2271 31.3075C82.2866 31.3075 82.3401 31.2986 82.3936 31.2867C82.8156 32.0326 82.7502 32.4785 82.1766 32.5022C81.7546 32.532 79.9416 31.6314 80.6014 30.4456C81.1304 30.9924 81.9448 31.3253 82.2301 31.3045L82.2271 31.3075Z" fill="#FDBF9F"/>
<path fill-rule="evenodd" clip-rule="evenodd" d="M82.2271 31.3074C82.2866 31.3074 82.3401 31.2985 82.3936 31.2866C82.4382 31.3639 82.4768 31.4382 82.5095 31.5095C82.4322 31.5362 82.3431 31.5511 82.242 31.5571C81.9389 31.5779 81.0502 31.2064 80.5242 30.603C80.545 30.5525 80.5688 30.499 80.5985 30.4485C81.1275 30.9953 81.9418 31.3282 82.2271 31.3074Z" fill="#DB5229"/>
<path fill-rule="evenodd" clip-rule="evenodd" d="M80.2893 28.7841C80.8005 29.5152 81.5762 30.175 82.2597 29.9432C82.343 29.9105 82.4173 29.857 82.4737 29.7887C83.0087 30.7724 82.9017 31.2836 82.2271 31.3074C81.7099 31.343 79.4839 30.2374 80.2893 28.7841Z" fill="#FDBF9F"/>
<path fill-rule="evenodd" clip-rule="evenodd" d="M82.2598 29.9433C82.343 29.9106 82.4144 29.8571 82.4738 29.7887C82.5184 29.872 82.56 29.9522 82.5957 30.0295C82.5303 30.1127 82.4441 30.1721 82.343 30.2108C81.5911 30.4485 80.8778 30.0027 80.1824 29.019C80.2091 28.9417 80.2448 28.8644 80.2894 28.7872C80.8006 29.5183 81.5763 30.1781 82.2598 29.9433Z" fill="#DB5229"/>
<path fill-rule="evenodd" clip-rule="evenodd" d="M81.1156 27.3071C82.9315 28.8436 82.768 29.7382 82.2598 29.9433C81.5079 30.1989 80.643 29.3727 80.1407 28.5613L81.1126 27.3071H81.1156Z" fill="#FDBF9F"/>
<path d="M81.6773 27.8213C81.9091 28.1244 82.135 28.4365 82.3044 28.7693C82.3846 28.9387 82.4589 29.1111 82.4827 29.2865C82.4976 29.3756 82.4946 29.4618 82.4797 29.5421C82.4589 29.6223 82.4203 29.6907 82.3609 29.7442C82.242 29.8511 82.0548 29.8779 81.8794 29.866C81.7011 29.8511 81.5228 29.7947 81.3534 29.7204C81.1839 29.6461 81.0264 29.5421 80.8808 29.4232C80.7322 29.3073 80.6014 29.1676 80.4825 29.019C80.5747 29.1884 80.6936 29.34 80.8303 29.4796C80.97 29.6164 81.1275 29.7323 81.2999 29.8274C81.4722 29.9225 81.6654 29.9879 81.8645 30.0116C82.0637 30.0295 82.2895 30.0087 82.4649 29.8601C82.5481 29.7858 82.6046 29.6817 82.6313 29.5747C82.6521 29.4678 82.6521 29.3608 82.6313 29.2597C82.5927 29.0576 82.5124 28.8763 82.4114 28.7069C82.2123 28.3711 81.9567 28.0768 81.6773 27.8153V27.8213Z" fill="#DB5229"/>
<path fill-rule="evenodd" clip-rule="evenodd" d="M83.3863 31.3194C83.5586 31.2807 83.6656 31.1083 83.627 30.9389L83.1217 28.6505C83.2317 28.7486 83.3476 28.8407 83.4754 28.9239L83.9569 31.0965C83.9955 31.2688 83.8855 31.4382 83.7161 31.4769L82.7473 31.6938C82.6076 31.7265 82.4679 31.6582 82.3995 31.5393C82.4055 31.5393 82.4114 31.5393 82.4174 31.5393L83.3863 31.3223V31.3194Z" fill="#DB5229"/>
<path d="M82.7621 26.5671L82.6165 26.5373C82.5659 26.5373 82.5154 26.5254 82.4649 26.5314C82.3638 26.5314 82.2569 26.573 82.1796 26.6532C82.1053 26.7365 82.0785 26.8494 82.0756 26.9534C82.0756 27.0574 82.0904 27.1615 82.1201 27.2595C82.2331 27.6548 82.4649 27.9907 82.7235 28.2938C82.988 28.591 83.2941 28.8585 83.6448 29.0546C83.8201 29.1527 84.0014 29.2389 84.1916 29.2983C84.3819 29.3548 84.578 29.3935 84.7771 29.3964C84.3908 29.3251 84.0312 29.1676 83.7102 28.9536C83.5497 28.8466 83.3951 28.7307 83.2525 28.6029C83.1069 28.4751 82.9701 28.3414 82.8453 28.1928C82.5927 27.9045 82.3668 27.5805 82.239 27.2268C82.1796 27.0545 82.138 26.8464 82.245 26.7067C82.2955 26.6384 82.3817 26.5908 82.4768 26.5789C82.5719 26.5611 82.67 26.5671 82.768 26.573L82.7621 26.5671Z" fill="#DB5229"/>
<path fill-rule="evenodd" clip-rule="evenodd" d="M138.41 114.364L135.988 105.468C137.697 105.492 139.474 105.412 141.219 105.237L142.464 114.147C141.148 113.451 139.724 113.502 138.413 114.364H138.41Z" fill="#FCC6AB"/>
<path fill-rule="evenodd" clip-rule="evenodd" d="M102.446 112.361L102.71 105.766C104.642 106.039 106.708 106.161 108.711 106.164L106.087 113.85C104.392 114.622 103.566 112.952 102.446 112.361Z" fill="#FCC6AB"/>
<path fill-rule="evenodd" clip-rule="evenodd" d="M101.923 112.179C103.343 112.402 104.146 114.75 106.104 113.841L107.055 118.112C107.162 118.831 106.901 119.348 105.899 119.416L94.6205 119.508C93.4911 119.363 93.3276 117.993 94.3678 117.38C97.4677 115.752 99.8453 115.089 101.926 112.179H101.923Z" fill="#E3D645"/>
<path fill-rule="evenodd" clip-rule="evenodd" d="M145.406 117.398C145.864 118.361 145.659 119.184 144.892 119.253C142.042 119.276 139.317 119.276 136.467 119.253C135.7 119.184 135.468 118.302 135.923 117.339C138.577 112.239 142.922 112.619 145.406 117.398Z" fill="#E3D645"/>
<path fill-rule="evenodd" clip-rule="evenodd" d="M146.319 64.3564C146.56 57.5207 146.259 51.006 145.516 45.3621L147.216 41.9711C148.376 48.4798 148.872 56.3794 148.512 64.9329L146.319 64.3593V64.3564Z" fill="#DB5229"/>
<path fill-rule="evenodd" clip-rule="evenodd" d="M125.223 6.92491C123.25 5.72421 121.303 4.70481 119.479 3.89047C120.849 2.41635 122.822 1.48907 125.012 1.48907C129.129 1.48907 132.484 4.76425 132.484 8.78243C132.484 9.82561 132.255 10.8183 131.848 11.7158C130.026 10.1288 127.767 8.47631 125.22 6.92491H125.223Z" fill="#E3D645"/>
<path fill-rule="evenodd" clip-rule="evenodd" d="M125.223 6.92486C123.253 5.72416 121.306 4.70476 119.481 3.89042C119.811 3.53378 120.174 3.20983 120.572 2.92154C122.263 3.70021 124.049 4.64829 125.856 5.74794C128.32 7.24881 130.511 8.84182 132.303 10.3813C132.196 10.842 132.044 11.2878 131.851 11.7128C130.029 10.1257 127.77 8.47329 125.223 6.92189V6.92486Z" fill="#FFBB16"/>
<path fill-rule="evenodd" clip-rule="evenodd" d="M125.223 6.92498C117.722 2.35697 110.565 0.386514 109.24 2.52637C107.914 4.66623 112.919 10.1021 120.421 14.6701C127.922 19.2381 135.079 21.2085 136.404 19.0687C137.73 16.9288 132.725 11.493 125.223 6.92498Z" fill="#E3D645"/>
<path d="M106.289 51.0595L108.693 21.8237C108.797 20.5457 109.843 19.5768 111.08 19.562C111.493 19.3183 111.983 19.1934 112.494 19.238L136.244 21.259C137.578 21.3719 138.571 22.5667 138.458 23.9219L136.054 53.1578C135.95 54.4357 134.903 55.4046 133.667 55.4195C133.254 55.6632 132.763 55.788 132.252 55.7434L108.503 53.7225C107.168 53.6095 106.176 52.4148 106.289 51.0595Z" fill="#E3D645"/>
<path fill-rule="evenodd" clip-rule="evenodd" d="M138.306 25.8063L135.691 26.2105L135.75 25.4912L138.366 25.09L138.306 25.8063Z" fill="black"/>
<path d="M106.289 51.0596L108.693 21.8237C108.747 21.1907 109.029 20.6349 109.451 20.2307C109.576 20.2218 109.704 20.2218 109.831 20.2307L133.581 22.2517C134.915 22.3646 135.908 23.5594 135.795 24.9146L133.391 54.1505C133.284 55.0302 133.055 55.3393 132.633 55.7435C132.508 55.7524 132.38 55.7524 132.252 55.7435L108.503 53.7225C107.168 53.6096 106.176 52.4148 106.289 51.0596Z" fill="#E3D645"/>
<path fill-rule="evenodd" clip-rule="evenodd" d="M113.734 15.9659C112.574 11.0323 114.56 10.7916 117.062 10.2358C116.557 11.8229 116.105 13.2524 115.96 14.8276C115.766 16.4503 116.503 18.2633 118.236 18.7774C118.064 19.8979 117.713 20.9559 117.258 22.1031C117.128 22.1031 116.988 22.1001 116.848 22.1031L116.857 22.0972C115.347 22.0407 113.674 21.9367 112.334 22.0942C112.322 22.1031 112.301 22.0942 112.289 22.1061C111.395 22.1804 110.55 22.4063 109.799 22.7035C108.785 18.7566 110.58 16.0402 113.737 15.9689L113.734 15.9659Z" fill="#DB5229"/>
<path fill-rule="evenodd" clip-rule="evenodd" d="M124.989 15.4487C125.146 15.4992 125.316 15.526 125.494 15.526C126.4 15.526 127.137 14.8008 127.137 13.9092C127.137 13.0176 126.4 12.2924 125.494 12.2924C125.11 12.2924 124.76 12.4202 124.48 12.6372C122.893 12.0428 121.128 10.5092 120.852 7.65901C119.785 8.13751 118.575 8.02457 117.871 7.56985C117.832 7.71548 117.79 7.85814 117.752 8.0008L117.71 7.92055C117.148 7.12405 117.16 5.64398 117.639 5.15359C121.256 5.75097 134.282 15.315 130.139 17.5648C133.673 19.0716 135.12 23.6426 133.866 27.5062C132.086 25.3426 129.67 23.6812 126.079 22.751C125.235 20.5814 124.867 17.7877 124.995 15.4487H124.989Z" fill="#DB5229"/>
<path fill-rule="evenodd" clip-rule="evenodd" d="M125.491 15.526C125.714 15.526 125.928 15.4814 126.121 15.4012C126.097 15.4101 126.073 15.422 126.05 15.4309C126.457 15.7667 126.861 16.1055 127.265 16.4414C126.846 16.7029 126.299 16.8129 125.687 16.6197C125.571 18.7269 125.66 20.7359 126.335 22.7926C126.255 22.7718 126.151 22.7718 126.07 22.751C125.226 20.5814 124.858 17.7877 124.986 15.4487C125.143 15.4992 125.313 15.526 125.491 15.526Z" fill="#DB5229"/>
<path fill-rule="evenodd" clip-rule="evenodd" d="M93.3455 33.6672L93.3336 33.6762C92.439 37.0762 91.5979 38.9158 89.993 42.3961C90.2457 42.6992 90.4983 42.9994 90.7509 43.2996C92.0437 39.5548 92.7749 37.204 93.3455 33.6702V33.6672Z" fill="#DB5229"/>
<path fill-rule="evenodd" clip-rule="evenodd" d="M141.347 39.2992C141.296 38.7137 141.308 38.1995 141.385 37.7834C141.471 37.6556 141.694 37.8607 142.066 38.4462C141.825 38.7345 141.587 39.0198 141.347 39.2992Z" fill="#1A1A1A"/>
<path fill-rule="evenodd" clip-rule="evenodd" d="M147.621 51.5233C146.462 50.1384 145.439 48.685 144.571 47.2495L145.487 45.4218C146.681 48.4829 147.567 50.917 147.739 51.6927C147.71 51.6392 147.671 51.5828 147.618 51.5204L147.621 51.5233Z" fill="#1A1A1A"/>
<path fill-rule="evenodd" clip-rule="evenodd" d="M108.61 54.4566C104.553 67.0967 102.811 94.7543 102.039 109.935L107.84 109.983C108.83 107.585 118.376 78.2299 119.369 75.1152C115.942 68.4935 113.017 61.5568 110.476 54.4239C109.852 54.421 109.228 54.4299 108.61 54.4566Z" fill="#1F685C"/>
<path fill-rule="evenodd" clip-rule="evenodd" d="M131.914 56.1358C133.655 67.1472 138.006 86.0998 143.228 110.271L136.071 110.464C128.383 94.7989 113.148 64.716 110.479 54.4447C119.511 54.7211 129.2 59.3188 131.914 56.1328V56.1358Z" fill="#53A86F"/>
<path fill-rule="evenodd" clip-rule="evenodd" d="M128.249 76.8509H128.237L128.011 76.7885V76.7795C125.22 75.8731 123.785 72.1253 124.795 68.2558C124.825 68.1399 124.858 68.0239 124.894 67.908C124.923 67.807 124.956 67.7059 124.989 67.6079C124.992 67.596 124.998 67.5811 125.001 67.5692C125.033 67.4682 125.069 67.3701 125.108 67.272C125.111 67.2601 125.116 67.2482 125.119 67.2364C125.155 67.1383 125.194 67.0432 125.235 66.9481C125.241 66.9362 125.244 66.9243 125.25 66.9124C125.289 66.8173 125.33 66.7252 125.375 66.6301C125.381 66.6182 125.384 66.6063 125.39 66.5944C125.431 66.5023 125.476 66.4101 125.521 66.321C125.527 66.3091 125.533 66.2972 125.538 66.2853C125.583 66.1961 125.631 66.11 125.678 66.0208C125.684 66.0089 125.69 65.997 125.696 65.9851C125.744 65.8989 125.791 65.8157 125.842 65.7325C125.848 65.7206 125.856 65.7087 125.862 65.6968C125.913 65.6136 125.963 65.5334 126.014 65.4561C126.023 65.4442 126.032 65.4294 126.038 65.4175C126.088 65.3402 126.142 65.2629 126.195 65.1857C126.204 65.1738 126.213 65.1589 126.222 65.147C126.276 65.0727 126.329 64.9984 126.383 64.9271C126.391 64.9122 126.403 64.9003 126.412 64.8855C126.466 64.8142 126.522 64.7458 126.579 64.6774C126.591 64.6655 126.6 64.6507 126.611 64.6388C126.668 64.5704 126.724 64.5051 126.781 64.4397C126.793 64.4278 126.805 64.4129 126.816 64.401C126.873 64.3357 126.932 64.2732 126.992 64.2138C127.004 64.2019 127.016 64.1871 127.03 64.1752C127.09 64.1157 127.149 64.0563 127.209 63.9968C127.221 63.985 127.236 63.9731 127.247 63.9582C127.307 63.9017 127.369 63.8453 127.432 63.7918C127.447 63.7799 127.458 63.768 127.473 63.7561C127.536 63.7026 127.598 63.6491 127.661 63.5986C127.675 63.5867 127.687 63.5778 127.702 63.5659C127.765 63.5154 127.83 63.4649 127.895 63.4173C127.91 63.4084 127.922 63.3965 127.937 63.3876C128.002 63.34 128.068 63.2925 128.133 63.2479C128.145 63.239 128.16 63.2301 128.172 63.2211C128.24 63.1766 128.305 63.132 128.374 63.0904C128.386 63.0815 128.398 63.0755 128.409 63.0696C128.478 63.028 128.549 62.9864 128.62 62.9477C128.632 62.9418 128.641 62.9358 128.653 62.9299C128.725 62.8913 128.799 62.8526 128.873 62.8169C128.882 62.814 128.888 62.811 128.897 62.8051C128.974 62.7694 129.051 62.7337 129.129 62.701H129.138C129.8 62.4187 130.49 62.2879 131.176 62.3236C131.185 62.3236 131.194 62.3236 131.206 62.3236C131.269 62.3266 131.334 62.3355 131.396 62.3414C131.42 62.3414 131.441 62.3444 131.465 62.3474C131.566 62.3622 131.667 62.3771 131.768 62.3979V62.389L132.003 62.4484L133.073 62.7278C133.949 67.3404 135.085 72.7911 136.416 78.9788L128.243 76.839L128.249 76.8509Z" fill="#1F685C"/>
<path fill-rule="evenodd" clip-rule="evenodd" d="M131.902 56.1476L131.922 56.1922C132.032 56.8817 132.151 57.6039 132.282 58.3588C128.412 62.166 121.645 56.2546 110.854 55.7434C110.711 55.2828 110.586 54.8488 110.482 54.4476C119.502 54.724 129.176 59.3099 131.905 56.1476H131.902Z" fill="#53A86F"/>
<path fill-rule="evenodd" clip-rule="evenodd" d="M110.482 23.9398C111.011 23.2206 111.612 22.5816 112.286 22.0377C110.283 22.2042 108.541 23.2354 107.813 24.0111C104.309 27.6935 102.624 31.1886 99.5897 35.8428C97.1051 35.3375 95.9401 34.7253 93.6635 33.6019C93.5149 33.5335 93.298 33.376 93.2207 33.593C92.6501 37.2575 92.0378 39.5786 90.6796 43.5017C90.3646 44.2031 90.9619 45.3444 92.0913 44.6311C94.2252 46.0131 96.0768 47.0473 98.3355 48.3045C100.868 49.7281 101.988 49.2347 103.201 47.8022C105.049 45.3949 106.256 43.6146 107.332 41.7839C106.197 34.761 107.219 28.0769 110.482 23.9398Z" fill="#E3D645"/>
<path fill-rule="evenodd" clip-rule="evenodd" d="M100.267 34.7906C100.05 35.1353 99.8245 35.486 99.5927 35.8427C96.4067 34.9867 101.783 36.4371 102.348 36.5471L100.27 34.7906H100.267Z" fill="#E3D645"/>
<path fill-rule="evenodd" clip-rule="evenodd" d="M108.678 50.7682C108.452 48.9018 108.265 47.1691 108.14 45.5404C107.733 36.5203 111.484 26.0023 116.848 22.103C117.306 22.1 117.725 22.1119 118.019 22.1565L125.637 22.6409C134.844 24.8194 136.571 31.6075 139.305 39.4537C140.018 38.9395 140.749 38.3332 141.406 37.7656C140.877 40.3453 143.338 46.3993 147.621 51.5261C148.364 52.3761 146.583 52.3285 144.818 53.8621C142.788 55.6275 142.087 56.6231 140.292 57.7049C138.327 58.8551 136.687 58.0645 135.01 55.7285C132.591 52.171 130.891 48.9374 129.298 45.0946C128.95 50.9257 133.287 53.1191 132.178 55.8296C129.649 60.5283 118.807 54.1831 109.18 54.614C107.816 54.6556 108.848 53.3658 108.678 50.7712V50.7682Z" fill="#E3D645"/>
<path fill-rule="evenodd" clip-rule="evenodd" d="M141.376 39.2607C141.341 39.3023 141.305 39.3468 141.266 39.3884C141.302 39.3468 141.338 39.3023 141.376 39.2607Z" fill="#E3D645"/>
<path fill-rule="evenodd" clip-rule="evenodd" d="M141.269 39.3885C141.29 39.6203 141.326 39.867 141.373 40.1256C139.091 44.3488 137.427 50.4147 136.377 57.2801C136.104 57.0423 135.834 56.763 135.563 56.442C136.829 49.4548 138.734 43.3859 141.269 39.3915V39.3885Z" fill="#E3D645"/>
<path fill-rule="evenodd" clip-rule="evenodd" d="M116.848 22.1C116.991 22.1 117.128 22.1 117.258 22.1C117.205 22.2368 117.151 22.3705 117.095 22.5102C117.021 22.6202 116.952 22.7271 116.887 22.8341C111.38 27.842 108.176 37.0167 108.209 45.6682C108.182 45.5494 108.158 45.4334 108.134 45.3146C107.795 36.345 111.528 25.9667 116.851 22.0971L116.848 22.1Z" fill="#E3D645"/>
<path fill-rule="evenodd" clip-rule="evenodd" d="M130.389 24.5075C130.772 24.7393 131.138 24.983 131.485 25.2386C127.146 28.5375 126.148 35.1087 129.135 44.6757C124.403 33.4473 126.962 27.6073 130.389 24.5075Z" fill="#E3D645"/>
<path fill-rule="evenodd" clip-rule="evenodd" d="M138.609 37.4447C138.835 38.1044 139.064 38.7761 139.302 39.4537C138.856 39.7183 136.434 41.341 136.434 41.341L138.609 37.4476V37.4447Z" fill="#E3D645"/>
<path fill-rule="evenodd" clip-rule="evenodd" d="M116.854 22.0941C111.484 25.9904 107.73 36.5143 108.137 45.5404C105.59 36.0566 106.901 26.4808 112.254 22.1267C112.295 22.0941 112.343 22.0733 112.396 22.0673C113.802 21.9157 115.511 21.9871 116.854 22.0941Z" fill="#FFBB16"/>
<path fill-rule="evenodd" clip-rule="evenodd" d="M107.397 31.031L110.343 31.8602C109.968 32.8796 109.632 33.9376 109.344 35.0195L106.951 34.3478C107.032 33.2036 107.177 32.095 107.394 31.034L107.397 31.031Z" fill="#E3D645"/>
<path d="M110.58 43.5849C111.466 44.7113 112.557 45.6832 113.745 46.5005L114.194 46.8036C114.343 46.9076 114.503 46.9909 114.658 47.083L115.125 47.3564C115.282 47.4456 115.445 47.5229 115.603 47.609L116.087 47.8557C116.251 47.933 116.417 48.0013 116.584 48.0756L117.08 48.2926C117.247 48.361 117.419 48.4204 117.588 48.4858L118.1 48.6701C118.269 48.7295 118.444 48.7771 118.617 48.8305L119.137 48.9881C119.309 49.0416 119.487 49.0772 119.663 49.1188C120.016 49.1991 120.367 49.2882 120.724 49.3417C121.08 49.4041 121.434 49.4725 121.794 49.5022C123.226 49.6746 124.677 49.6776 126.097 49.4755C124.665 49.4487 123.247 49.3298 121.856 49.0832C121.505 49.0326 121.164 48.9435 120.816 48.8751C120.468 48.8097 120.129 48.7117 119.788 48.6195C119.618 48.572 119.446 48.5363 119.276 48.4828L118.771 48.3253C118.605 48.2718 118.435 48.2243 118.269 48.1618L117.773 47.9776C117.606 47.9152 117.44 47.8617 117.276 47.7963L116.789 47.5912C116.628 47.5229 116.462 47.4575 116.304 47.3832L115.829 47.1543C115.671 47.0771 115.508 47.0087 115.353 46.9255L114.887 46.6729C114.572 46.5094 114.272 46.3281 113.968 46.1468C112.762 45.4127 111.626 44.5597 110.574 43.5849H110.58Z" fill="#E3D645"/>
<path d="M110.209 45.8763C111.074 46.8452 112.111 47.6655 113.231 48.3402L113.653 48.5898C113.793 48.676 113.945 48.7414 114.087 48.8186L114.524 49.0416C114.67 49.1159 114.821 49.1753 114.973 49.2437L115.425 49.4398C115.576 49.5022 115.731 49.5527 115.885 49.6122L116.346 49.7816C116.501 49.8351 116.658 49.8797 116.816 49.9272L117.288 50.0669C117.446 50.1115 117.606 50.1442 117.767 50.1828L118.245 50.2957C118.406 50.3344 118.566 50.3582 118.727 50.3849C119.051 50.4384 119.372 50.4978 119.698 50.5276C120.022 50.5632 120.349 50.6078 120.676 50.6138C121.981 50.691 123.295 50.6138 124.567 50.3552C123.271 50.4117 121.981 50.379 120.709 50.2333C120.391 50.2066 120.076 50.1471 119.758 50.1026C119.44 50.0639 119.128 49.9926 118.816 49.9272C118.661 49.8916 118.501 49.8707 118.346 49.8291L117.883 49.7132C117.728 49.6746 117.57 49.6389 117.419 49.5943L116.961 49.4547C116.81 49.4071 116.655 49.3685 116.503 49.318L116.052 49.1575C115.9 49.104 115.749 49.0534 115.6 48.997L115.157 48.8157C115.009 48.7562 114.86 48.6998 114.714 48.6344L114.28 48.4323C113.989 48.3015 113.707 48.1529 113.422 48.0073C112.289 47.4099 111.216 46.6996 110.212 45.8763H110.209Z" fill="#E3D645"/>
<path fill-rule="evenodd" clip-rule="evenodd" d="M117.095 22.5132C117.63 21.2025 118.046 20.0315 118.236 18.7773C116.506 18.2632 115.766 16.4502 115.96 14.8275C116.18 12.4321 117.113 10.3724 117.868 7.56982C118.575 8.02454 119.785 8.13748 120.849 7.65899C121.125 10.5121 122.89 12.0427 124.477 12.6371C124.757 12.4202 125.11 12.2924 125.491 12.2924C126.397 12.2924 127.134 13.0176 127.134 13.9092C127.134 14.8008 126.397 15.5259 125.491 15.5259C125.316 15.5259 125.146 15.4992 124.986 15.4487C124.855 17.859 125.247 20.7508 126.145 22.9441C121.14 33.3135 111.609 30.7516 117.092 22.5132H117.095Z" fill="#FDBF9F"/>
<path fill-rule="evenodd" clip-rule="evenodd" d="M117.487 12.1705C117.472 12.1705 117.457 12.1705 117.443 12.1705C117.113 12.1705 116.807 12.0814 116.542 11.9298C116.83 10.9223 117.181 9.89394 117.526 8.75269C118.462 8.79727 119.211 9.54324 119.211 10.4586C119.211 10.9876 118.961 11.4602 118.569 11.7752L118.557 11.7842C118.527 11.8079 118.495 11.8287 118.465 11.8525C118.18 12.0368 117.856 12.1289 117.484 12.1586C117.484 12.1616 117.484 12.1646 117.484 12.1705H117.487Z" fill="#DB5229"/>
<path fill-rule="evenodd" clip-rule="evenodd" d="M116.824 22.9322C115.404 26.9028 115.974 29.1319 118.626 29.7352C115.766 29.9848 114.105 27.3249 116.824 22.9322Z" fill="#DB5229"/>
<path fill-rule="evenodd" clip-rule="evenodd" d="M120.076 18.8487C122.21 18.4683 123.794 16.4622 124.495 15.1961C124.522 15.2169 124.469 15.1842 124.498 15.2021C122.662 20.1564 119.41 20.6379 117.859 20.409C118.022 19.8681 118.15 19.3302 118.233 18.7774C118.756 18.9319 119.369 18.9736 120.073 18.8487H120.076Z" fill="#DB5229"/>
<path fill-rule="evenodd" clip-rule="evenodd" d="M117.538 8.71703C117.648 8.3485 117.761 7.9651 117.868 7.56982C118.575 8.02454 119.785 8.13748 120.849 7.65899C121.125 10.5121 122.89 12.0427 124.478 12.6371C124.757 12.4202 125.111 12.2924 125.491 12.2924C126.397 12.2924 127.135 13.0176 127.135 13.9092C127.135 14.6581 126.617 15.2882 125.916 15.4724C123.405 13.2345 120.59 10.952 117.538 8.71703Z" fill="#DB5229"/>
<path fill-rule="evenodd" clip-rule="evenodd" d="M127.134 13.9092C127.134 13.0176 126.397 12.2924 125.491 12.2924C125.108 12.2924 124.757 12.4202 124.477 12.6372C122.89 12.0428 121.125 10.5092 120.849 7.65901C119.782 8.13751 118.572 8.02457 117.868 7.56985C117.829 7.71548 117.787 7.85814 117.749 8.0008L117.707 7.92055C117.145 7.12405 117.157 5.64398 117.636 5.15359C121.253 5.75097 134.279 15.315 130.136 17.5648C132.056 18.3851 133.358 20.1059 133.946 22.1268C131.402 19.9008 128.766 17.6688 126.053 15.4309C126.683 15.205 127.137 14.6076 127.137 13.9092H127.134Z" fill="#DB5229"/>
<path d="M125.069 13.4663C125.084 13.4455 125.099 13.4188 125.122 13.392C125.146 13.3653 125.17 13.3266 125.206 13.2999C125.271 13.2375 125.36 13.1721 125.47 13.1305C125.527 13.1127 125.586 13.0889 125.648 13.0889C125.711 13.08 125.776 13.0859 125.842 13.0948L125.937 13.1186L126.026 13.1572C126.082 13.187 126.133 13.2226 126.175 13.2642C126.222 13.3029 126.255 13.3474 126.285 13.392C126.317 13.4336 126.335 13.4812 126.359 13.5198C126.394 13.603 126.415 13.6773 126.424 13.7279C126.433 13.7784 126.439 13.8081 126.439 13.8081C126.439 13.8081 126.421 13.7814 126.397 13.7398C126.383 13.719 126.374 13.6892 126.353 13.6625C126.332 13.6357 126.311 13.603 126.287 13.5674C126.234 13.502 126.175 13.4277 126.091 13.3712C126.056 13.3385 126.008 13.3177 125.964 13.294C125.969 13.3445 125.987 13.4009 125.981 13.4871C125.981 13.5347 125.981 13.5852 125.981 13.6387C125.981 13.6922 125.967 13.7457 125.958 13.8022C125.946 13.8586 125.94 13.9151 125.916 13.9716C125.895 14.028 125.877 14.0845 125.851 14.138C125.821 14.1885 125.788 14.2391 125.758 14.2896C125.732 14.3431 125.684 14.3787 125.648 14.4204C125.61 14.462 125.577 14.5036 125.533 14.5273C125.491 14.5571 125.452 14.5838 125.417 14.6106C125.384 14.6403 125.345 14.6492 125.313 14.667C125.28 14.6819 125.253 14.6938 125.229 14.7027C125.185 14.7235 125.158 14.7354 125.158 14.7354C125.158 14.7354 125.182 14.7205 125.226 14.6968C125.247 14.6849 125.274 14.67 125.304 14.6522C125.333 14.6343 125.369 14.6195 125.399 14.5868C125.432 14.5571 125.464 14.5273 125.5 14.4947C125.539 14.4649 125.565 14.4204 125.595 14.3787C125.622 14.3342 125.663 14.2985 125.681 14.245C125.702 14.1945 125.726 14.1469 125.75 14.0964C125.764 14.0429 125.776 13.9894 125.788 13.9389C125.806 13.8884 125.806 13.8349 125.809 13.7843C125.809 13.7338 125.821 13.6863 125.812 13.6417C125.809 13.5971 125.803 13.5555 125.8 13.5169C125.8 13.4426 125.764 13.3683 125.755 13.3207C125.744 13.2731 125.735 13.2434 125.735 13.2434H125.747C125.72 13.2375 125.69 13.2375 125.663 13.2434C125.613 13.2434 125.562 13.2553 125.515 13.2672C125.467 13.2821 125.42 13.2969 125.378 13.3177C125.333 13.3356 125.298 13.3593 125.259 13.3801C125.221 13.4009 125.194 13.4247 125.164 13.4426C125.134 13.4604 125.111 13.4812 125.09 13.499C125.051 13.5317 125.027 13.5495 125.027 13.5495C125.027 13.5495 125.042 13.5228 125.069 13.4812V13.4663Z" fill="#DB5229"/>
<path fill-rule="evenodd" clip-rule="evenodd" d="M121.289 13.5525C120.195 13.5525 119.303 12.6906 119.303 11.6326C119.303 10.5745 120.195 9.71265 121.289 9.71265C122.382 9.71265 123.274 10.5745 123.274 11.6326C123.274 12.6906 122.382 13.5525 121.289 13.5525Z" fill="black"/>
<path fill-rule="evenodd" clip-rule="evenodd" d="M121.289 13.5525C122.382 13.5525 123.274 12.6906 123.274 11.6326C123.274 11.3086 123.191 11.0055 123.042 10.735C123.271 11.0471 123.411 11.4305 123.411 11.8436C123.411 12.9016 122.519 13.7635 121.425 13.7635C120.667 13.7635 120.005 13.3474 119.672 12.7411C120.031 13.2315 120.623 13.5525 121.289 13.5525Z" fill="#DB5229"/>
<path fill-rule="evenodd" clip-rule="evenodd" d="M121.253 9.71265C121.155 9.71265 121.057 9.72453 120.962 9.73939L122.017 13.4188C122.109 13.3831 122.195 13.3415 122.281 13.2969L121.253 9.71562V9.71265Z" fill="white"/>
<path fill-rule="evenodd" clip-rule="evenodd" d="M120.635 9.81961C120.543 9.8523 120.453 9.88797 120.367 9.93255L121.404 13.5495C121.502 13.5436 121.598 13.5317 121.693 13.5138L120.635 9.82258V9.81961Z" fill="white"/>
<path fill-rule="evenodd" clip-rule="evenodd" d="M117.588 8.45853C118.563 8.45853 119.357 9.22828 119.357 10.1704C119.357 10.6994 119.107 11.172 118.715 11.487L118.703 11.4959C118.673 11.5197 118.64 11.5405 118.611 11.5643C118.325 11.7486 118.001 11.8407 117.63 11.8704C117.63 11.8734 117.63 11.8764 117.63 11.8823C117.615 11.8823 117.6 11.8823 117.585 11.8823C116.611 11.8823 115.817 11.1125 115.817 10.1704C115.817 9.22828 116.611 8.45853 117.585 8.45853H117.588Z" fill="black"/>
<path fill-rule="evenodd" clip-rule="evenodd" d="M117.437 8.46448C117.3 8.47637 117.166 8.50311 117.042 8.54175L117.987 11.8377C118.12 11.808 118.248 11.7634 118.367 11.707L117.437 8.46448Z" fill="white"/>
<path fill-rule="evenodd" clip-rule="evenodd" d="M123.179 11.6565L124.87 12.4143C125.06 12.337 125.271 12.2954 125.491 12.2954C125.622 12.2954 125.746 12.3103 125.868 12.34L123.196 11.1453L123.03 11.5197C123.078 11.5673 123.128 11.6148 123.179 11.6594V11.6565Z" fill="black"/>
<path fill-rule="evenodd" clip-rule="evenodd" d="M122.04 13.8914C123.226 14.3223 123.274 16.2571 121.321 16.6643C120.572 16.8218 118.385 17.1369 118.56 15.5765C118.596 15.2674 118.718 14.679 118.628 14.2332C120.213 14.1589 120.89 13.4723 122.037 13.8914H122.04Z" fill="black"/>
<path fill-rule="evenodd" clip-rule="evenodd" d="M122.751 14.5422C123.095 15.2882 122.73 16.37 121.321 16.6672C120.941 16.7474 120.183 16.8693 119.556 16.7593C119.675 15.5111 120.929 14.5303 122.456 14.5303C122.555 14.5303 122.653 14.5333 122.748 14.5422H122.751Z" fill="#DB5229"/>
<path fill-rule="evenodd" clip-rule="evenodd" d="M126.035 22.6588C127.628 23.06 129.048 23.6782 130.41 24.4866C126.938 27.6132 124.364 33.6345 129.304 45.1095C129.31 46.6163 129.396 47.4723 129.818 49.0148V49.0266C123.824 45.0322 116.159 32.1128 126.035 22.6618V22.6588Z" fill="#FFBB16"/>
<path fill-rule="evenodd" clip-rule="evenodd" d="M121.384 33.4562C121.499 33.2571 121.725 33.1322 121.975 33.159L126.427 33.6791C126.469 33.685 126.51 33.694 126.549 33.7088C126.543 34.969 126.674 36.3569 126.98 37.8845C126.867 37.9529 126.733 37.9885 126.591 37.9707L122.052 37.4387C121.975 37.4298 121.904 37.406 121.838 37.3704C121.532 36.1102 121.369 34.7966 121.387 33.4532L121.384 33.4562Z" fill="#E3D645"/>
<path fill-rule="evenodd" clip-rule="evenodd" d="M118.789 10.3606L119.948 10.8807C120.034 10.845 120.123 10.8183 120.216 10.7975C120.242 10.6905 120.254 10.5983 120.266 10.5003L118.893 9.88504C118.857 10.0426 118.831 10.203 118.786 10.3606H118.789Z" fill="black"/>
<path d="M117.633 11.7782C117.918 11.7545 118.195 11.6712 118.447 11.5345C118.575 11.4662 118.694 11.3859 118.81 11.2938C118.926 11.2046 119.033 11.1006 119.14 10.9936C118.997 11.2581 118.792 11.4989 118.527 11.6683C118.293 11.8228 118.016 11.912 117.737 11.9417C117.761 12.0903 117.82 12.2359 117.906 12.3667C118.01 12.5242 118.144 12.6639 118.31 12.7709C118.12 12.7144 117.945 12.5955 117.808 12.441C117.674 12.2865 117.573 12.0873 117.553 11.8704L117.544 11.7842L117.633 11.7753V11.7782Z" fill="#DB5229"/>
<path d="M139.088 44.637C139.284 45.3652 139.569 46.0666 139.908 46.7382C140.075 47.0771 140.265 47.401 140.458 47.7279C140.657 48.0489 140.868 48.361 141.088 48.6701C141.531 49.2823 142.027 49.8559 142.562 50.3849C143.097 50.9139 143.677 51.4014 144.313 51.8115C143.828 51.2349 143.344 50.6732 142.877 50.1026C142.411 49.532 141.962 48.9465 141.528 48.3521C141.308 48.0578 141.1 47.7547 140.892 47.4515C140.681 47.1514 140.485 46.8393 140.277 46.5302C139.875 45.9091 139.489 45.276 139.091 44.637H139.088Z" fill="#E3D645"/>
<path d="M92.5728 43.6681C93.0245 43.1896 93.4138 42.6546 93.7616 42.0959C93.9369 41.8165 94.0915 41.5253 94.246 41.234C94.3946 40.9398 94.5283 40.6366 94.6591 40.3335C94.9117 39.7242 95.1109 39.0912 95.2595 38.4522C95.4081 37.8102 95.5061 37.1564 95.518 36.4966C95.31 37.1207 95.1138 37.7389 94.9028 38.3482C94.6918 38.9574 94.463 39.5578 94.2193 40.1522C94.1004 40.4524 93.9726 40.7466 93.8418 41.0379C93.714 41.3351 93.5714 41.6233 93.4376 41.9146C93.1612 42.4971 92.864 43.0737 92.5728 43.6651V43.6681Z" fill="#E3D645"/>
<path fill-rule="evenodd" clip-rule="evenodd" d="M126.213 33.0194L121.761 32.4993C121.384 32.4547 121.06 32.7638 121.086 33.1442L121.3 36.2202C121.321 36.5115 121.544 36.7463 121.835 36.779L126.374 37.311C126.757 37.3555 127.084 37.0346 127.048 36.6512L126.748 33.5632C126.721 33.2809 126.498 33.055 126.216 33.0194H126.213Z" fill="#DB5229"/>
<path fill-rule="evenodd" clip-rule="evenodd" d="M125.363 33.7593L122.448 33.4413C122.201 33.4146 121.987 33.6048 122.005 33.8366L122.144 35.7209C122.156 35.8992 122.305 36.0419 122.495 36.0627L125.467 36.3896C125.72 36.4163 125.934 36.2202 125.907 35.9854L125.711 34.0922C125.693 33.9198 125.547 33.7801 125.363 33.7593Z" fill="#E3D645"/>
<path fill-rule="evenodd" clip-rule="evenodd" d="M109.498 34.4637L106.88 33.7266C106.66 33.6642 106.517 33.4562 106.538 33.2303L106.749 30.8319C106.776 30.5376 107.064 30.3385 107.347 30.4188L110.548 31.3193C110.155 32.3327 109.802 33.3848 109.495 34.4637H109.498Z" fill="#DB5229"/>
<path d="M121.494 9.21034C121.642 9.16279 121.767 9.11821 121.883 9.10038C121.999 9.08552 122.094 9.09444 122.168 9.13902C122.245 9.17765 122.317 9.25195 122.385 9.35597C122.451 9.46 122.504 9.58185 122.578 9.71856C122.641 9.5759 122.656 9.42136 122.623 9.26384C122.593 9.10632 122.492 8.93989 122.32 8.85073C122.147 8.75562 121.939 8.78237 121.797 8.86262C121.651 8.94286 121.547 9.06769 121.494 9.21034Z" fill="black"/>
<path d="M117.618 8.15834C117.743 8.0662 117.847 7.98299 117.951 7.92949C118.058 7.87896 118.15 7.85816 118.233 7.87302C118.319 7.88491 118.412 7.93246 118.507 8.00676C118.602 8.08403 118.691 8.18211 118.807 8.2891C118.819 8.13456 118.786 7.98299 118.703 7.8433C118.623 7.70659 118.474 7.57879 118.284 7.54907C118.091 7.51638 117.9 7.60554 117.793 7.73036C117.68 7.85222 117.621 8.00379 117.618 8.15834Z" fill="black"/>
<path fill-rule="evenodd" clip-rule="evenodd" d="M136.874 27.8035C136.874 28.9001 138.764 28.9239 138.764 27.8035C138.764 27.3606 138.574 26.4898 138.464 25.9846C138.327 25.2535 137.34 25.1762 137.177 25.9816C137.094 26.4631 136.877 27.3606 136.877 27.8035H136.874ZM137.272 27.6519C137.272 27.3666 137.516 27.1348 137.819 27.1348C138.122 27.1348 138.366 27.3666 138.366 27.6519C138.366 27.9372 138.122 28.169 137.819 28.169C137.516 28.169 137.272 27.9372 137.272 27.6519Z" fill="#DB5229"/>
<path fill-rule="evenodd" clip-rule="evenodd" d="M142.735 37.629L142.726 37.6409C142.708 37.6617 142.693 37.6825 142.675 37.7033C142.209 38.2799 141.739 38.8445 141.269 39.3884C138.161 44.2923 135.997 52.3257 134.799 61.3398L132.615 60.7692C134.838 43.4987 141.54 37.1237 141.54 37.1237C142.426 36.2262 143.335 35.7477 144.155 35.8131C143.683 36.4342 143.207 37.0405 142.735 37.626V37.629Z" fill="#DB5229"/>
<path fill-rule="evenodd" clip-rule="evenodd" d="M146.022 79.2374H146.037L146.066 79.2493C148.919 79.9685 152.04 77.4452 153.045 73.5965C154.055 69.7477 152.569 66.0208 149.731 65.251L149.695 65.2391L131.679 60.5255L131.453 60.466V60.475C128.65 59.9103 125.646 62.4038 124.662 66.1694C123.678 69.932 125.075 73.5786 127.788 74.4584V74.4673L128.008 74.5267H128.02L146.022 79.2403V79.2374Z" fill="#DB5229"/>
<path fill-rule="evenodd" clip-rule="evenodd" d="M131.153 60.4276C128.439 60.0918 125.613 62.5407 124.665 66.1696C123.681 69.9322 125.078 73.5788 127.791 74.4586V74.4675L127.996 74.521C130.674 74.9103 133.489 72.4465 134.425 68.785C135.415 64.9213 133.949 61.1825 131.15 60.4276H131.153Z" fill="#DB5229"/>
<path fill-rule="evenodd" clip-rule="evenodd" d="M130.318 63.1499C128.505 62.6744 126.519 64.2733 125.88 66.7193C125.238 69.1653 126.189 71.534 128.002 72.0065C129.812 72.4791 131.798 70.8801 132.44 68.4342C133.081 65.9882 132.13 63.6254 130.318 63.1499Z" fill="#DB5229"/>
<path fill-rule="evenodd" clip-rule="evenodd" d="M135.076 74.0869C138.458 75.1688 142.105 76.1258 145.564 76.8063C146.592 75.7632 147.419 74.3277 147.859 72.6485C147.915 72.4464 147.96 72.2413 147.998 72.0362C145.184 71.5072 142.06 70.7523 138.803 69.7864C138.404 69.6646 138.012 69.5457 137.62 69.4238C137.596 69.5368 137.566 69.6527 137.54 69.7656C137.076 71.534 136.184 73.0289 135.076 74.0869Z" fill="#DB5229"/>
<path fill-rule="evenodd" clip-rule="evenodd" d="M137.51 69.8726C137.938 70.0063 138.369 70.1401 138.803 70.2679C142.018 71.2249 145.103 71.9738 147.897 72.5028C147.933 72.3483 147.968 72.1938 147.998 72.0362C145.184 71.5072 142.06 70.7523 138.803 69.7864C138.404 69.6646 138.012 69.5457 137.62 69.4238C137.596 69.5368 137.566 69.6527 137.54 69.7656C137.531 69.8013 137.519 69.8369 137.51 69.8726Z" fill="white"/>
<path fill-rule="evenodd" clip-rule="evenodd" d="M146.934 74.3722C146.934 75.46 148.81 75.4838 148.81 74.3722C148.81 73.9324 148.622 73.0705 148.512 72.5682C148.376 71.843 147.398 71.7658 147.234 72.5653C147.154 73.0437 146.937 73.9354 146.937 74.3752L146.934 74.3722ZM147.329 74.2207C147.329 73.9383 147.573 73.7065 147.87 73.7065C148.168 73.7065 148.411 73.9383 148.411 74.2207C148.411 74.503 148.168 74.7348 147.87 74.7348C147.573 74.7348 147.329 74.506 147.329 74.2207Z" fill="#E3D645"/>
<path fill-rule="evenodd" clip-rule="evenodd" d="M137.462 64.9034C137.976 65.0639 138.497 65.2243 139.02 65.3789C142.892 66.532 146.607 67.4355 149.969 68.0686C150.01 67.8813 150.055 67.6971 150.09 67.5069C146.699 66.8708 142.94 65.9614 139.02 64.7964C138.541 64.6507 138.066 64.5051 137.596 64.3595C137.569 64.4962 137.534 64.6359 137.498 64.7726C137.486 64.8142 137.474 64.8588 137.462 64.9034Z" fill="white"/>
<path fill-rule="evenodd" clip-rule="evenodd" d="M148.812 70.3214C148.812 71.6321 151.071 71.6618 151.071 70.3214C151.071 69.7924 150.845 68.7522 150.712 68.1489C150.548 67.2751 149.368 67.183 149.172 68.1429C149.074 68.7195 148.812 69.7924 148.812 70.3214ZM149.291 70.1372C149.291 69.7984 149.585 69.519 149.942 69.519C150.299 69.519 150.593 69.7954 150.593 70.1372C150.593 70.479 150.299 70.7554 149.942 70.7554C149.585 70.7554 149.291 70.479 149.291 70.1372Z" fill="#E3D645"/>
<path fill-rule="evenodd" clip-rule="evenodd" d="M141.269 39.3883C143.067 37.299 144.86 34.9749 146.637 32.3743C145.436 29.6876 146.887 28.4245 146.337 25.9964C146.141 25.292 147.142 25.4971 147.534 26.2163C148.176 27.4764 147.888 28.1184 148.438 28.799C149.089 27.4229 149.582 26.1777 150.533 24.4004C151.059 23.4048 151.829 23.7555 151.612 24.8729C151.532 25.4436 151.122 26.8048 151.003 27.4586C151.354 26.9682 152.025 25.7913 152.471 25.2534C153.095 24.4717 153.767 24.9859 153.345 25.9488C153.098 26.5373 152.426 27.7974 152.12 28.4423C152.519 27.9995 153.276 27.0217 153.776 26.5432C154.43 25.9132 155.069 26.4511 154.516 27.307C154.162 27.9312 153.461 29.0278 153.062 29.6579C153.336 29.4142 153.823 28.8792 154.135 28.6266C154.813 28.1362 155.33 28.7217 154.843 29.4469C154.388 30.1097 153.752 31.0102 153.267 31.6581C152.958 32.3208 152.914 34.0535 150.762 34.9006L144.536 47.3236C142.622 44.3278 141.445 41.3558 141.272 39.3883H141.269Z" fill="#FDBF9F"/>
<path fill-rule="evenodd" clip-rule="evenodd" d="M141.269 39.3884L141.35 39.2962C141.79 41.0705 143.169 43.5492 145.19 46.016L144.536 47.3237C142.622 44.3279 141.445 41.3558 141.272 39.3884H141.269Z" fill="#DB5229"/>
<path d="M152.819 30.7636C152.682 30.4159 152.507 30.086 152.313 29.7739C152.218 29.6164 152.114 29.4678 152.007 29.3192C151.9 29.1736 151.787 29.0309 151.674 28.8942C151.443 28.6208 151.193 28.3681 150.931 28.1393C150.67 27.9104 150.391 27.7083 150.096 27.5479C150.343 27.8034 150.587 28.0501 150.824 28.3027C151.062 28.5554 151.294 28.8169 151.52 29.0814C151.633 29.2122 151.743 29.3489 151.853 29.4856C151.963 29.6223 152.07 29.762 152.18 29.9017C152.394 30.184 152.602 30.4723 152.819 30.7636Z" fill="#DB5229"/>
<path d="M149.573 32.7846C149.743 32.6241 149.888 32.4339 150.019 32.2258C150.084 32.1218 150.144 32.0119 150.203 31.8989C150.26 31.786 150.31 31.6671 150.361 31.5482C150.459 31.3075 150.536 31.0489 150.596 30.7814C150.655 30.514 150.697 30.2346 150.706 29.9433C150.625 30.196 150.548 30.4486 150.468 30.6953C150.385 30.9419 150.298 31.1797 150.203 31.4175C150.159 31.5363 150.108 31.6522 150.058 31.7682C150.01 31.8841 149.954 31.997 149.903 32.1099C149.796 32.3358 149.686 32.5587 149.573 32.7846Z" fill="#DB5229"/>
<path fill-rule="evenodd" clip-rule="evenodd" d="M121.517 34.3478L123.363 34.5648C123.556 34.5886 123.696 34.7639 123.672 34.9571C123.648 35.1503 123.473 35.29 123.28 35.2662L121.529 35.0611C121.532 34.8233 121.529 34.5856 121.517 34.3478Z" fill="#DB5229"/>
<path fill-rule="evenodd" clip-rule="evenodd" d="M107.445 31.4114C107.46 31.2182 107.647 31.0875 107.834 31.138L110.045 31.7383C110.185 31.777 110.28 31.9077 110.274 32.0534V32.1277C110.063 32.7042 109.87 33.2927 109.692 33.8901L107.549 33.3076C107.406 33.2689 107.311 33.1322 107.32 32.9836L107.445 31.4114Z" fill="#E3D645"/>
<path fill-rule="evenodd" clip-rule="evenodd" d="M106.853 31.7711L108.194 32.1337C108.333 32.1723 108.417 32.318 108.381 32.4577C108.342 32.5973 108.197 32.6806 108.057 32.6449L106.785 32.3001C106.815 32.1248 106.839 31.9494 106.856 31.7711H106.853Z" fill="#DB5229"/>
<path fill-rule="evenodd" clip-rule="evenodd" d="M23.5385 119.41C25.188 119.41 26.5313 118.15 26.5313 116.602C26.5313 115.053 25.188 113.793 23.5385 113.793C21.889 113.793 20.5457 115.053 20.5457 116.602C20.5457 118.15 21.889 119.41 23.5385 119.41Z" fill="#53A86F"/>
<path fill-rule="evenodd" clip-rule="evenodd" d="M6.6127 119.336C8.26218 119.336 9.60554 118.073 9.60554 116.527C9.60554 114.982 8.26218 113.719 6.6127 113.719C4.96323 113.719 3.61987 114.982 3.61987 116.527C3.61987 118.073 4.96323 119.336 6.6127 119.336Z" fill="#53A86F"/>
<path fill-rule="evenodd" clip-rule="evenodd" d="M23.5384 117.894C24.2963 117.894 24.9175 117.312 24.9175 116.601C24.9175 115.891 24.2993 115.309 23.5384 115.309C22.7776 115.309 22.1594 115.891 22.1594 116.601C22.1594 117.312 22.7776 117.894 23.5384 117.894Z" fill="white"/>
<path fill-rule="evenodd" clip-rule="evenodd" d="M6.63061 117.82C7.38847 117.82 8.00963 117.24 8.00963 116.527C8.00963 115.814 7.39145 115.234 6.63061 115.234C5.86977 115.234 5.25159 115.814 5.25159 116.527C5.25159 117.24 5.86977 117.82 6.63061 117.82Z" fill="white"/>
<path d="M10.1257 63.8154H8.86853V71.1414H10.1257V63.8154Z" fill="#313131"/>
<path d="M21.5116 63.8154H20.2544V71.1414H21.5116V63.8154Z" fill="#313131"/>
<path d="M4.04493 70.7015H26.0469C28.2788 70.7015 30.0918 72.5145 30.0918 74.7465V109.894C30.0918 112.126 28.2788 113.939 26.0469 113.939H4.04493C1.81294 113.939 0 112.126 0 109.894V74.7465C0 72.5145 1.81294 70.7015 4.04493 70.7015Z" fill="#E3D645"/>
<path fill-rule="evenodd" clip-rule="evenodd" d="M6.93972 76.9042C7.32311 76.9042 7.63517 77.2163 7.63517 77.5997V107.058C7.63517 107.442 7.32311 107.754 6.93972 107.754C6.55633 107.754 6.24426 107.442 6.24426 107.058V77.5997C6.24426 77.2163 6.55633 76.9042 6.93972 76.9042Z" fill="#DB5229"/>
<path fill-rule="evenodd" clip-rule="evenodd" d="M6.93975 76.904C6.60391 76.904 6.32157 77.1448 6.25916 77.4628C6.36912 77.3885 6.50583 77.3439 6.64849 77.3439C7.03188 77.3439 7.34395 77.656 7.34395 78.0393V107.498C7.34395 107.546 7.338 107.59 7.32909 107.635C7.51335 107.51 7.6352 107.296 7.6352 107.058V77.5995C7.6352 77.2161 7.32314 76.904 6.93975 76.904Z" fill="black"/>
<path fill-rule="evenodd" clip-rule="evenodd" d="M12.215 76.9042C12.5984 76.9042 12.9104 77.2163 12.9104 77.5997V107.058C12.9104 107.442 12.5954 107.754 12.215 107.754C11.8316 107.754 11.5195 107.442 11.5195 107.058V77.5997C11.5195 77.2163 11.8316 76.9042 12.215 76.9042Z" fill="#DB5229"/>
<path fill-rule="evenodd" clip-rule="evenodd" d="M12.2149 76.904C11.8791 76.904 11.5968 77.1448 11.5314 77.4628C11.6413 77.3885 11.7781 77.3439 11.9207 77.3439C12.3041 77.3439 12.6162 77.656 12.6162 78.0393V107.498C12.6162 107.546 12.6102 107.59 12.6043 107.635C12.7885 107.51 12.9104 107.296 12.9104 107.058V77.5995C12.9104 77.2161 12.5954 76.904 12.2149 76.904Z" fill="black"/>
<path fill-rule="evenodd" clip-rule="evenodd" d="M8.2414 62.4958H22.3615C22.9113 62.4958 23.3601 62.9446 23.3601 63.4944C23.3601 64.0442 22.9113 64.493 22.3615 64.493H8.2414C7.69157 64.493 7.2428 64.0442 7.2428 63.4944C7.2428 62.9446 7.69157 62.4958 8.2414 62.4958Z" fill="#FFBB16"/>
<path fill-rule="evenodd" clip-rule="evenodd" d="M17.7876 76.9042C18.171 76.9042 18.4831 77.2163 18.4831 77.5997V107.058C18.4831 107.442 18.171 107.754 17.7876 107.754C17.4042 107.754 17.0922 107.442 17.0922 107.058V77.5997C17.0922 77.2163 17.4072 76.9042 17.7876 76.9042Z" fill="#DB5229"/>
<path fill-rule="evenodd" clip-rule="evenodd" d="M17.7876 76.904C17.4518 76.904 17.1695 77.1448 17.1071 77.4628C17.217 77.3885 17.3537 77.3439 17.4964 77.3439C17.8798 77.3439 18.1918 77.656 18.1918 78.0393V107.498C18.1918 107.546 18.1859 107.59 18.177 107.635C18.3613 107.51 18.4831 107.296 18.4831 107.058V77.5995C18.4831 77.2161 18.171 76.904 17.7876 76.904Z" fill="black"/>
<path fill-rule="evenodd" clip-rule="evenodd" d="M23.0629 76.9042C23.4463 76.9042 23.7583 77.2163 23.7583 77.5997V107.058C23.7583 107.442 23.4433 107.754 23.0629 107.754C22.6795 107.754 22.3674 107.442 22.3674 107.058V77.5997C22.3674 77.2163 22.6795 76.9042 23.0629 76.9042Z" fill="#DB5229"/>
<path fill-rule="evenodd" clip-rule="evenodd" d="M23.0629 76.904C22.7271 76.904 22.4447 77.1448 22.3823 77.4628C22.4923 77.3885 22.626 77.3439 22.7717 77.3439C23.1551 77.3439 23.4671 77.656 23.4671 78.0393V107.498C23.4671 107.546 23.4612 107.59 23.4523 107.635C23.6365 107.51 23.7584 107.296 23.7584 107.058V77.5995C23.7584 77.2161 23.4433 76.904 23.0629 76.904Z" fill="black"/>
<path d="M26.995 88.1563L7.83135 93.3009C7.29639 93.4436 6.74656 93.1256 6.6039 92.5936L5.70635 89.256C5.5637 88.721 5.8817 88.1712 6.41369 88.0256L25.5773 82.881C26.1123 82.7383 26.6621 83.0534 26.8048 83.5883L27.7023 86.9259C27.845 87.4609 27.53 88.0107 26.995 88.1533V88.1563Z" fill="white"/>
<path d="M10.3368 88.6764C10.3457 88.6555 10.3487 88.6407 10.3546 88.6288C10.4259 88.4713 10.53 88.3375 10.6518 88.2187C10.8004 88.0701 10.9906 88.0106 11.1987 87.9958C11.7307 87.9571 12.0724 88.3405 12.1883 88.6793C12.2983 88.9944 12.2983 89.3124 12.1883 89.6304C11.9862 90.2129 11.6682 90.7211 11.2195 91.1491C11.1333 91.2293 11.0679 91.2531 10.952 91.2234C10.5864 91.1342 10.2298 91.0243 9.89096 90.8578C9.59971 90.7122 9.34411 90.516 9.13013 90.2753C8.85373 89.9662 8.73485 89.6036 8.8032 89.1875C8.85373 88.8844 9.03205 88.6764 9.29656 88.5278C9.49569 88.4148 9.7067 88.3762 9.9296 88.4535C10.0188 88.4832 10.102 88.5307 10.1852 88.5723C10.2327 88.5991 10.2773 88.6347 10.3368 88.6764Z" fill="#DB5229"/>
<path d="M8.28609 91.5621C8.14937 91.6156 8.01266 91.6602 7.87 91.6989C7.72735 91.7375 7.63818 91.7553 7.5936 91.7524C7.552 91.7524 7.52525 91.7345 7.5193 91.7048L6.94273 89.5649C6.93084 89.5144 6.98137 89.4461 7.10322 89.3628C7.2221 89.2767 7.36476 89.2142 7.53119 89.1697C7.67682 89.131 7.78381 89.134 7.84623 89.1845C7.86703 89.2024 7.88189 89.2232 7.88784 89.2469L8.47927 91.4522C8.48521 91.476 8.4228 91.5146 8.28609 91.5681V91.5621Z" fill="black"/>
<path d="M14.67 89.8472C14.5332 89.9007 14.3936 89.9453 14.2539 89.9839C14.1112 90.0226 14.0221 90.0404 13.9804 90.0374C13.9388 90.0374 13.9151 90.0196 13.9061 89.9899L13.5079 88.5098L13.0294 88.6376C13.0026 88.6436 12.9729 88.6168 12.9373 88.5574C12.9016 88.4979 12.8659 88.4058 12.8332 88.278C12.7976 88.1502 12.7827 88.0313 12.7827 87.9243C12.7827 87.8173 12.8065 87.7549 12.8511 87.7401L14.7145 87.2408C14.7502 87.2319 14.7799 87.2586 14.8096 87.318C14.8394 87.3804 14.8721 87.4696 14.9047 87.5915C14.9374 87.7133 14.9553 87.8322 14.9582 87.9451C14.9612 88.061 14.9434 88.1235 14.8988 88.1353L14.4679 88.2513L14.8661 89.7313C14.8721 89.7581 14.8067 89.7967 14.67 89.8502V89.8472Z" fill="black"/>
<path d="M16.6018 89.2469C16.6077 89.2766 16.5453 89.3183 16.4116 89.3747C16.2778 89.4312 16.1382 89.4787 15.9985 89.5144C15.8588 89.553 15.7637 89.5679 15.7221 89.562C15.6775 89.556 15.6508 89.5382 15.6418 89.5025L15.0474 87.2884C15.0326 87.2289 15.095 87.1665 15.2376 87.1011C15.3803 87.0357 15.5675 86.9704 15.7964 86.9079C16.0252 86.8485 16.1738 86.8069 16.2422 86.792C16.3105 86.7742 16.3908 86.7593 16.4859 86.7385C16.578 86.7207 16.6553 86.7118 16.7118 86.7148C16.7712 86.7148 16.8366 86.7207 16.9079 86.7296C16.9792 86.7385 17.0387 86.7564 17.0862 86.7861C17.1338 86.8158 17.1813 86.8544 17.2319 86.899C17.321 86.9822 17.3894 87.113 17.4369 87.2973C17.4875 87.4786 17.4964 87.642 17.4696 87.7817C17.4429 87.9244 17.3864 88.0403 17.3032 88.1324C17.6777 88.4772 17.8827 88.706 17.9125 88.819C17.9422 88.9319 17.7312 89.0478 17.2794 89.1696C17.1487 89.2053 17.0565 89.2231 17.003 89.2261C16.9495 89.2261 16.9109 89.2113 16.8871 89.1756L16.474 88.5277L16.4146 88.5396L16.6048 89.2469H16.6018ZM16.2689 88.0106L16.3581 87.9868C16.4918 87.9511 16.5305 87.8293 16.474 87.6242C16.4443 87.5172 16.4086 87.4488 16.3611 87.4162C16.3135 87.3805 16.266 87.3716 16.2214 87.3835L16.1084 87.4132L16.2689 88.0135V88.0106Z" fill="black"/>
<path d="M18.9646 88.6763C18.9052 88.7179 18.7923 88.7625 18.6229 88.807C18.4534 88.8516 18.3078 88.8754 18.186 88.8754C18.0641 88.8754 17.9958 88.8516 17.9839 88.8011C17.969 88.7446 17.9779 88.3672 18.0076 87.6628C18.0374 86.9584 18.0552 86.5542 18.0582 86.4472C18.0611 86.4146 18.1473 86.367 18.3167 86.2986C18.4861 86.2333 18.6674 86.1738 18.8666 86.1203C19.0657 86.0668 19.1846 86.0728 19.2232 86.1352C20.0435 87.4607 20.4566 88.1354 20.4625 88.1562C20.4685 88.1799 20.4625 88.2067 20.4388 88.2364C20.3882 88.3048 20.2664 88.3642 20.0762 88.4147C19.669 88.5247 19.4491 88.5306 19.4134 88.4385L19.3302 88.2215L19.0003 88.3107L19.036 88.5069C19.0479 88.5752 19.027 88.6317 18.9676 88.6733L18.9646 88.6763ZM19.0805 87.5885L18.8636 86.9822L18.7863 87.003L18.8933 87.639L19.0805 87.5885Z" fill="black"/>
<path d="M19.565 86.1977C19.5561 86.1709 19.5798 86.1293 19.6274 86.0758C19.6779 86.0223 19.7522 85.9659 19.8533 85.9064C19.9543 85.847 20.0702 85.7994 20.198 85.7667C20.3258 85.7311 20.4239 85.7251 20.4952 85.7459C20.5666 85.7667 20.6082 85.7964 20.623 85.841L21.0807 87.0625L21.1283 87.0506L20.9054 85.7994C20.8965 85.734 20.9589 85.6627 21.0985 85.5854C21.2382 85.5082 21.372 85.4517 21.4998 85.419C21.6276 85.3833 21.7256 85.3685 21.794 85.3744C21.8624 85.3804 21.9069 85.3923 21.9307 85.4101C21.9545 85.4279 21.9694 85.4458 21.9753 85.4666C21.9812 85.4874 21.9753 85.5438 21.9694 85.6419C21.9604 85.74 21.9515 85.844 21.9396 85.954C21.904 86.3076 21.8534 86.9407 21.7881 87.8471C21.7821 87.9244 21.5949 88.0136 21.2234 88.1146C21.1075 88.1444 21.0302 88.1562 20.9886 88.1503C20.947 88.1444 20.9143 88.1236 20.8905 88.0879C20.6498 87.7342 20.3704 87.336 20.0494 86.8902C19.7284 86.4444 19.565 86.2155 19.562 86.2007L19.565 86.1977Z" fill="black"/>
<path d="M24.5074 87.2289L23.0481 87.6212C22.9352 87.6509 22.8579 87.6628 22.8134 87.6569C22.7688 87.6509 22.742 87.6301 22.7331 87.5974L22.1476 85.4189C22.1328 85.3595 22.1476 85.309 22.1952 85.2703C22.2427 85.2317 22.3349 85.1931 22.4745 85.1544L23.8595 84.7829C23.9071 84.771 23.9516 84.8424 23.9962 85.0029C24.0378 85.1633 24.0616 85.2852 24.0646 85.3744C24.0646 85.4635 24.0497 85.514 24.017 85.523C23.8684 85.5616 23.6128 85.6151 23.2502 85.6805L23.3127 85.9123C23.6485 85.8083 23.8684 85.7399 23.9724 85.7132C24.0349 85.6983 24.0854 85.7607 24.124 85.9063C24.1627 86.052 24.1805 86.1649 24.1745 86.2452C24.1716 86.3254 24.1478 86.373 24.1062 86.3819L23.4791 86.5364L23.5385 86.7563C23.9308 86.6196 24.2013 86.5305 24.3529 86.4889C24.4004 86.477 24.445 86.5483 24.4896 86.7118C24.5342 86.8723 24.555 86.9971 24.5579 87.0862C24.5579 87.1754 24.5431 87.223 24.5074 87.2319V87.2289Z" fill="black"/>
<path d="M25.1493 87.0565C25.0364 87.0862 24.9561 87.1011 24.9145 87.0981C24.8729 87.0981 24.8462 87.0803 24.8373 87.0506L24.2637 84.9107C24.2518 84.8602 24.3023 84.7918 24.4241 84.7086C24.543 84.6224 24.6857 84.557 24.8521 84.5154C25.0007 84.4768 25.1047 84.4798 25.1672 84.5303C25.188 84.5481 25.2028 84.5689 25.2088 84.5927L25.6189 86.1174C25.8953 86.0252 26.1033 85.9569 26.246 85.9212C26.2935 85.9093 26.3381 85.9777 26.3797 86.1292C26.4213 86.2838 26.4451 86.4175 26.454 86.5334C26.463 86.6493 26.4511 86.7118 26.4154 86.7207L25.1523 87.0595L25.1493 87.0565Z" fill="black"/>
<path d="M25.6041 95.741C26.3649 98.0473 25.1137 100.535 22.8044 101.296C20.4981 102.057 18.0105 100.805 17.2497 98.4961C16.4889 96.1898 17.7401 93.7022 20.0464 92.9413C22.3527 92.1805 24.8403 93.4317 25.6011 95.741H25.6041Z" fill="white"/>
<path d="M25.0216 95.931C25.6754 97.9163 24.5996 100.056 22.6143 100.71C20.6289 101.367 18.4891 100.288 17.8352 98.3027C17.1814 96.3173 18.2573 94.1775 20.2426 93.5236C22.2279 92.8698 24.3678 93.9486 25.0216 95.931Z" fill="#53A86F"/>
<path d="M23.7049 95.1702C23.6782 95.1227 23.6336 95.09 23.5801 95.0781C23.2799 95.0127 23.0124 95.0573 22.742 95.2148C22.4388 95.3931 22.1179 95.6012 21.7345 95.8686C21.7166 95.8805 21.7077 95.8865 21.7077 95.8865C21.7048 95.8865 21.6958 95.8835 21.678 95.8746C21.1103 95.5922 20.5546 95.3218 20.085 95.0959C20.0107 95.0602 19.9007 95.0157 19.7878 95.0424C19.7313 95.0573 19.6719 95.0721 19.5976 95.0959C19.5589 95.1078 19.5203 95.1227 19.4757 95.1375C19.4311 95.1524 19.3866 95.1672 19.336 95.1851C19.2707 95.2059 19.2201 95.2623 19.2082 95.3337C19.1964 95.402 19.2231 95.4734 19.2796 95.515L20.7923 96.6889C20.7507 96.7305 20.7121 96.7692 20.6705 96.8108C20.4446 97.0337 20.2336 97.2447 20.0256 97.4706C19.978 97.5241 19.9394 97.5538 19.9156 97.5627C19.8978 97.5686 19.871 97.5627 19.8353 97.5419C19.764 97.5033 19.6897 97.4824 19.6243 97.4616C19.5798 97.4498 19.5352 97.4379 19.5025 97.42C19.3004 97.3249 19.1102 97.3546 18.9229 97.5151C18.8784 97.5538 18.8546 97.6102 18.8575 97.6697C18.8605 97.7291 18.8932 97.7826 18.9408 97.8153C19.0091 97.8599 19.0775 97.9045 19.1458 97.9491C19.3123 98.0561 19.4668 98.1571 19.6184 98.2671C19.6719 98.3057 19.7254 98.3711 19.7551 98.4365C19.8353 98.6088 19.9037 98.7872 19.975 98.9744C20.0048 99.0517 20.0345 99.1289 20.0642 99.2062C20.088 99.2627 20.1355 99.3073 20.195 99.3192C20.2544 99.334 20.3198 99.3192 20.3644 99.2776C20.4862 99.1706 20.617 99.016 20.5665 98.7604C20.5516 98.6861 20.5457 98.6059 20.5367 98.5227C20.5308 98.4454 20.5219 98.3681 20.51 98.2819L20.5189 98.276C20.7656 98.1214 21.0123 97.9639 21.2589 97.8034L21.3927 97.7172C21.4432 97.6845 21.4967 97.6519 21.5472 97.6162L22.3735 99.3281C22.4032 99.3905 22.4626 99.4291 22.531 99.4351C22.5548 99.4351 22.5785 99.4351 22.6023 99.4262C22.6439 99.4113 22.6796 99.3845 22.7034 99.3489C22.7242 99.3132 22.745 99.2835 22.7628 99.2538C22.7925 99.2032 22.8163 99.1646 22.843 99.1349C23.0154 98.9298 22.9827 98.7158 22.9441 98.5732C22.8965 98.3978 22.852 98.2136 22.8103 98.0382C22.745 97.7588 22.6766 97.4676 22.5815 97.1852C22.5072 96.9623 22.5429 96.8613 22.7628 96.6741C23.0392 96.4393 23.2621 96.151 23.4791 95.8716L23.5415 95.7914C23.6217 95.6903 23.6514 95.5714 23.6841 95.4555C23.696 95.4139 23.7079 95.3693 23.7198 95.3277C23.7376 95.2772 23.7346 95.2207 23.7079 95.1732L23.7049 95.1702Z" fill="white"/>
<path fill-rule="evenodd" clip-rule="evenodd" d="M58.2458 17.9538L47.0264 17.9598L32.725 17.9449C30.5852 17.93 29.4796 18.1589 29.1407 18.2986C29.4112 18.2183 29.6876 18.1767 29.9729 18.1767C32.3832 18.1767 34.3359 21.1844 34.3359 24.8965C34.3359 26.2339 34.0832 27.4792 33.6434 28.5283H48.9731C51.0119 27.5178 53.3123 26.9501 55.7493 26.9501C58.7659 26.9501 61.5745 27.821 63.9373 29.3248C66.0652 25.3423 65.1944 17.9003 58.2488 17.9538H58.2458Z" fill="#E3D645"/>
<path fill-rule="evenodd" clip-rule="evenodd" d="M29.97 31.6162C32.3714 31.6162 34.3329 28.5966 34.3329 24.8965C34.3329 21.1963 32.3744 18.1767 29.97 18.1767C27.5656 18.1767 25.6071 21.1933 25.6071 24.8965C25.6071 28.5996 27.5656 31.6162 29.97 31.6162Z" fill="#E3D645"/>
<path fill-rule="evenodd" clip-rule="evenodd" d="M67.7177 41.5577V35.5869C67.7177 31.7054 64.4633 28.5283 60.4838 28.5283H33.4235C29.4439 28.5283 26.1896 31.7054 26.1896 35.5869V41.5577V61.8982C26.1896 65.7797 29.4439 68.9568 33.4235 68.9568H60.4838C64.4633 68.9568 67.7177 65.7797 67.7177 61.8982V41.5577Z" fill="#E3D645"/>
<path fill-rule="evenodd" clip-rule="evenodd" d="M29.2864 40.4938C25.2504 50.3133 28.3711 61.0186 43.4898 59.2413L43.7275 58.2427C29.2597 59.8714 25.8835 49.9864 29.2864 40.4967V40.4938Z" fill="#53A86F"/>
<path fill-rule="evenodd" clip-rule="evenodd" d="M48.1231 84.7918C46.4023 94.1834 45.0322 102.041 42.6724 111.84C40.3869 110.015 37.3079 110.102 34.9005 111.873C34.85 106.104 35.3047 94.8372 36.2676 83.8199C39.6558 84.5213 44.2178 84.9909 48.126 84.7918H48.1231Z" fill="#FDBF9F"/>
<path fill-rule="evenodd" clip-rule="evenodd" d="M48.1231 84.7918L47.9299 85.8498C43.986 85.9954 39.4715 85.4902 36.1844 84.7739C36.2112 84.4559 36.2379 84.1379 36.2677 83.8199C39.6558 84.5213 44.2178 84.9909 48.1261 84.7918H48.1231Z" fill="#DB5229"/>
<path fill-rule="evenodd" clip-rule="evenodd" d="M45.2818 99.9491C44.524 103.738 43.6888 107.608 42.6694 111.84C40.3839 110.015 37.3049 110.102 34.8976 111.873C34.8708 108.939 34.9778 104.58 35.2126 99.5538C38.3303 99.958 42.0215 100.017 45.2818 99.9491Z" fill="white"/>
<path fill-rule="evenodd" clip-rule="evenodd" d="M44.6458 103.067C44.5656 103.459 44.4824 103.848 44.3962 104.244C41.2072 104.205 38.0806 104.104 35.0343 103.944C35.0492 103.563 35.061 103.177 35.0759 102.784C38.1906 102.942 41.3855 103.037 44.6458 103.067Z" fill="#DB5229"/>
<path fill-rule="evenodd" clip-rule="evenodd" d="M64.6684 83.4841L66.8826 109.522C65.4679 109.528 65.2985 111.766 60.1242 110.705L60.0945 110.761C56.4626 102.047 54.4506 97.0187 55.6929 88.3047C55.0777 87.0862 54.5605 85.829 54.1237 84.5451C57.4286 84.5867 61.7945 84.236 64.6684 83.4841Z" fill="#FDBF9F"/>
<path fill-rule="evenodd" clip-rule="evenodd" d="M64.6684 83.4841L64.7487 84.4441C61.8628 85.1514 57.6425 85.4754 54.4417 85.4308C54.3317 85.1366 54.2247 84.8423 54.1237 84.5451C57.4286 84.5867 61.7945 84.236 64.6684 83.4841Z" fill="#DB5229"/>
<path fill-rule="evenodd" clip-rule="evenodd" d="M64.184 65.646C64.9745 71.6763 65.5333 78.402 65.7859 83.1424C62.6355 84.2777 56.2992 84.7176 52.5366 84.4917C52.0373 82.2478 51.7104 74.1995 51.4993 70.0387C51.4191 70.0447 51.3329 70.0447 51.22 70.0387C50.7355 73.2515 49.4635 82.12 48.9761 84.7354C44.1287 85.1188 38.0004 84.3609 34.3745 83.3683C34.6271 79.2906 35.6792 71.8635 36.8145 65.5242C37.0374 65.542 37.2782 65.542 37.5397 65.5153C49.6745 64.6445 56.5369 68.9717 64.184 65.646Z" fill="#53A86F"/>
<path fill-rule="evenodd" clip-rule="evenodd" d="M53.773 84.5391L51.7372 70.0326L51.4994 70.0386C51.7104 74.1994 52.0373 82.2477 52.5337 84.4886C52.92 84.5124 53.3361 84.5272 53.77 84.5361L53.773 84.5391Z" fill="#53A86F"/>
<path fill-rule="evenodd" clip-rule="evenodd" d="M64.1839 65.646C64.2226 65.9462 64.2612 66.2464 64.2999 66.5466C56.6677 69.8455 49.8053 65.5331 37.6883 66.4039C37.3019 66.4396 36.9631 66.4277 36.663 66.3712C36.7135 66.0859 36.764 65.8036 36.8145 65.5242C37.0374 65.542 37.2782 65.542 37.5397 65.5153C49.6745 64.6445 56.5369 68.9717 64.1839 65.646Z" fill="#53A86F"/>
<path fill-rule="evenodd" clip-rule="evenodd" d="M45.8971 117.977C44.2982 107.311 32.7875 108.143 31.1856 118.016C31.1024 118.521 31.4857 118.985 31.9999 118.988L44.9996 119.024C45.5553 119.024 45.9803 118.53 45.8971 117.98V117.977Z" fill="#DB5229"/>
<path fill-rule="evenodd" clip-rule="evenodd" d="M31.1856 118.016C31.1024 118.521 31.4857 118.985 31.9999 118.988L44.9996 119.024C45.5553 119.024 45.9803 118.53 45.8971 117.981C45.8823 117.882 45.8644 117.787 45.8496 117.689H31.245C31.2242 117.799 31.2034 117.906 31.1856 118.019V118.016Z" fill="#E3D645"/>
<path fill-rule="evenodd" clip-rule="evenodd" d="M58.2161 63.7468L43.4006 60.2339L43.879 58.2248C40.3899 58.6349 37.5367 58.3793 35.2661 57.6244C34.3894 61.3424 33.6523 65.8837 37.5367 65.5152C49.7399 64.6414 56.6112 69.0221 64.3117 65.5895C65.875 64.891 65.7116 63.3783 65.1617 61.2087L58.2161 63.7468Z" fill="#DB5229"/>
<path fill-rule="evenodd" clip-rule="evenodd" d="M57.5117 24.7866C62.1035 24.9054 66.0385 28.1004 67.8395 32.6624L64.8378 33.7443L62.5969 33.2212C61.8717 28.8672 59.4198 26.1567 57.5117 24.7866Z" fill="#DB5229"/>
<path fill-rule="evenodd" clip-rule="evenodd" d="M57.6871 24.7777L57.4701 24.7599C59.3841 26.121 61.8657 28.8375 62.5968 33.2242L64.4781 33.6641C64.0056 29.8777 62.0114 26.4866 57.6871 24.7807V24.7777Z" fill="#313131"/>
<path d="M29.5361 26.5252C29.5837 26.118 29.6282 25.7138 29.6253 25.3126C29.6253 24.9173 29.5658 24.5131 29.3994 24.2041C29.3162 24.0525 29.2032 23.9366 29.0754 23.8742C29.0101 23.8444 28.9417 23.8236 28.8674 23.8207C28.7931 23.8088 28.7218 23.8207 28.6742 23.8444C28.4692 23.9306 28.3027 24.2397 28.2522 24.5637C28.2254 24.7271 28.2195 24.8936 28.2314 25.06C28.2433 25.2383 28.27 25.4256 28.3027 25.6039C28.3711 25.9635 28.4781 26.3112 28.6326 26.6203C28.7842 26.9264 28.9833 27.1999 29.2062 27.3663C29.4291 27.5416 29.6401 27.5832 29.8393 27.5446C30.0414 27.506 30.2613 27.3425 30.4545 27.1018C30.6417 26.8581 30.7933 26.549 30.9003 26.2191C31.0043 25.8862 31.0697 25.5355 31.0905 25.1729C31.1143 24.8044 31.1024 24.421 31.0697 24.0465C30.9924 23.2976 30.823 22.5427 30.4664 21.874C30.1216 21.2112 29.5747 20.602 28.7485 20.4444C29.1587 20.3642 29.6074 20.4593 29.9968 20.6614C30.3891 20.8665 30.7249 21.1696 31.0043 21.5084C31.5571 22.1979 31.9078 23.0301 32.0831 23.886C32.1723 24.317 32.2228 24.7479 32.2317 25.1937C32.2347 25.6485 32.1872 26.1062 32.0623 26.5579C31.9405 27.0096 31.7473 27.4525 31.4382 27.8596C31.138 28.2579 30.6833 28.6413 30.074 28.7602C29.7768 28.8196 29.4588 28.7988 29.1735 28.7067C28.8882 28.6145 28.6415 28.463 28.4365 28.2876C28.0323 27.931 27.7796 27.5 27.6073 27.0602C27.4349 26.6203 27.3457 26.1686 27.319 25.7198C27.3041 25.4939 27.3071 25.274 27.3219 25.0481C27.3398 24.8074 27.3844 24.5696 27.4705 24.3408C27.5567 24.1119 27.6726 23.889 27.8421 23.6929C28.0115 23.5027 28.2433 23.3124 28.5464 23.2738C28.701 23.256 28.8347 23.2679 28.9595 23.2976C29.0873 23.3273 29.2122 23.3808 29.3221 23.4521C29.545 23.5978 29.6907 23.8177 29.7739 24.0376C29.9314 24.4834 29.9046 24.9203 29.8482 25.3305C29.7828 25.7436 29.6669 26.1388 29.5361 26.5282V26.5252Z" fill="#E3D645"/>
<path fill-rule="evenodd" clip-rule="evenodd" d="M29.0576 50.976C31.3876 50.976 33.2868 48.4231 33.2868 45.2905C33.2868 42.158 31.3847 39.6051 29.0576 39.6051C26.7305 39.6051 24.8284 42.158 24.8284 45.2905C24.8284 48.4231 26.7305 50.976 29.0576 50.976Z" fill="#E3D645"/>
<path fill-rule="evenodd" clip-rule="evenodd" d="M29.2864 40.4938C27.842 44.0097 27.316 47.6355 27.9252 50.7651C28.1511 50.8483 28.3829 50.9137 28.6207 50.9464C27.6756 47.8555 27.9758 44.1464 29.2864 40.4938Z" fill="#E3D645"/>
<path fill-rule="evenodd" clip-rule="evenodd" d="M29.0575 39.6051C30.8437 39.6051 32.3743 41.094 32.9925 43.2012C32.0296 44.4287 30.6624 45.1954 29.1467 45.1954C27.631 45.1954 26.142 44.3573 25.1731 43.0288C25.824 41.0138 27.3159 39.6051 29.0546 39.6051H29.0575Z" fill="#E3D645"/>
<path fill-rule="evenodd" clip-rule="evenodd" d="M60.46 10.7615C64.8616 5.90521 62.7841 1.46797 55.5383 4.43109C52.0729 0.288079 52.4593 10.8001 43.7067 9.98283C39.207 9.35574 37.2901 15.7278 42.2742 17.3862C39.1803 19.6568 41.8492 23.9543 46.7887 21.3271L46.9492 21.1785C46.218 20.3938 45.8584 19.4844 45.9833 18.3105C42.8151 18.7325 42.8834 13.7276 45.5493 13.6414C46.75 13.6028 47.6149 14.6786 47.6238 15.9774C48.6581 16.2181 50.2362 15.383 48.6403 14.423C50.4978 14.2982 49.3 12.9578 48.1053 12.2891C51.1041 13.255 51.6569 11.8879 49.2555 9.70644C54.935 12.4704 57.1194 11.0528 57.2294 9.16553C57.7198 10.6813 58.1745 14.004 57.9813 17.1543C61.7112 15.9001 63.4469 10.6842 60.457 10.7585L60.46 10.7615Z" fill="#DB5229"/>
<path fill-rule="evenodd" clip-rule="evenodd" d="M43.7067 9.98589C48.2361 10.4079 50.3165 7.79848 51.752 5.75372C48.7413 0.392184 40.0719 3.706 40.8981 10.6338C41.6293 10.1048 42.5892 9.82837 43.7067 9.98589Z" fill="#FFBB16"/>
<path fill-rule="evenodd" clip-rule="evenodd" d="M55.5383 4.43112C57.2116 3.74756 58.6055 3.45927 59.7111 3.48007C59.0275 -0.781814 53.134 -1.56643 50.6018 3.60193C49.0326 6.74336 47.9478 8.49983 46.1556 9.89965C52.4207 8.77326 52.4355 0.71906 55.5413 4.43112H55.5383Z" fill="#E3D645"/>
<path fill-rule="evenodd" clip-rule="evenodd" d="M46.8838 45.5937L49.9272 32.802C44.958 30.7038 39.959 30.3442 35.6674 30.7365C35.6793 30.7097 35.6912 30.683 35.7031 30.6562C24.8819 41.0375 23.8565 60.5816 43.8821 58.2277L44.2031 56.8755C37.6141 53.4814 41.4599 46.2326 46.8838 45.5966V45.5937Z" fill="#DB5229"/>
<path fill-rule="evenodd" clip-rule="evenodd" d="M53.1369 24.846C53.0358 24.8341 52.9318 24.8163 52.8248 24.7985C52.9318 24.8193 53.0358 24.8341 53.1369 24.846Z" fill="white" stroke="black" stroke-width="0.0891608" stroke-miterlimit="22.93"/>
<path fill-rule="evenodd" clip-rule="evenodd" d="M53.446 24.8727C53.3509 24.8668 53.2498 24.8609 53.1517 24.849C53.2528 24.8609 53.3509 24.8698 53.446 24.8727Z" fill="white" stroke="black" stroke-width="0.0891608" stroke-miterlimit="22.93"/>
<path fill-rule="evenodd" clip-rule="evenodd" d="M53.7403 24.8757C53.6482 24.8757 53.556 24.8757 53.4609 24.8728C53.556 24.8757 53.6482 24.8787 53.7403 24.8757Z" fill="white" stroke="black" stroke-width="0.0891608" stroke-miterlimit="22.93"/>
<path fill-rule="evenodd" clip-rule="evenodd" d="M54.0285 24.8578C53.9423 24.8667 53.8561 24.8727 53.767 24.8727C53.8561 24.8727 53.9423 24.8667 54.0285 24.8578Z" fill="white" stroke="black" stroke-width="0.0891608" stroke-miterlimit="22.93"/>
<path fill-rule="evenodd" clip-rule="evenodd" d="M54.3288 24.8163L54.302 24.8223C54.2218 24.8371 54.1356 24.849 54.0524 24.855C54.1356 24.846 54.2188 24.8341 54.302 24.8223L54.3288 24.8163Z" fill="white" stroke="black" stroke-width="0.0891608" stroke-miterlimit="22.93"/>
<path fill-rule="evenodd" clip-rule="evenodd" d="M54.2128 24.2694C54.6972 24.1803 55.1252 23.993 55.5056 23.7285C56.9411 24.1 61.5537 26.9591 62.5969 33.2212L55.4135 31.542C54.825 29.1138 54.2128 25.8922 54.2128 24.2694Z" fill="#DB5229"/>
<path fill-rule="evenodd" clip-rule="evenodd" d="M45.2462 18.3105C44.9133 22.0196 43.7542 26.1923 43.0231 28.8077L55.8295 33.34C55.3748 30.8435 54.3703 27.3514 54.2425 24.2783C53.5411 24.4061 52.7208 24.3259 51.7638 23.9781C48.0577 22.403 45.683 21.0804 45.9773 18.3164C45.7098 18.3521 45.4631 18.3491 45.2432 18.3135L45.2462 18.3105Z" fill="#53A86F"/>
<path fill-rule="evenodd" clip-rule="evenodd" d="M54.8934 28.9058C54.5783 27.3722 54.3108 25.7732 54.2484 24.2753C53.547 24.4031 52.7268 24.3229 51.7698 23.9752C48.0636 22.4 45.689 21.0774 45.9832 18.3135C45.7157 18.3491 45.4691 18.3462 45.2491 18.3105C45.0976 20.0075 44.7706 21.7996 44.3932 23.4967C47.2612 24.201 50.7147 26.7718 52.8129 29.3872C54.3019 29.735 55.0984 29.7528 54.8963 28.9058H54.8934Z" fill="#FDBF9F"/>
<path fill-rule="evenodd" clip-rule="evenodd" d="M45.2463 18.3105C45.2255 18.5393 45.2017 18.7712 45.1749 19C45.3027 19 45.4394 18.9941 45.5821 18.9762C45.2879 21.7432 47.6625 23.0657 51.3686 24.6379C52.5277 25.057 53.4847 25.0867 54.2753 24.8252C54.2604 24.6409 54.2515 24.4566 54.2426 24.2753C53.5412 24.4031 52.7209 24.3229 51.7639 23.9752C48.0578 22.4 45.6831 21.0774 45.9774 18.3135C45.7099 18.3491 45.4632 18.3462 45.2433 18.3105H45.2463Z" fill="#DB5229"/>
<path fill-rule="evenodd" clip-rule="evenodd" d="M45.5494 13.6445C46.7501 13.6058 47.615 14.6817 47.6239 15.9805C48.6581 16.2212 50.2363 15.3861 48.6403 14.4261C50.4978 14.3013 49.3001 12.9609 48.1053 12.2922C51.1041 13.2581 51.6569 11.891 49.2555 9.70952C54.9351 12.4735 57.1195 11.0558 57.2295 9.16861C58.4034 12.7885 59.3693 26.7274 51.7698 23.9782C48.0637 22.4031 45.6891 21.0805 45.9833 18.3165C42.8151 18.7385 42.8835 13.7336 45.5494 13.6475V13.6445Z" fill="#FDBF9F"/>
<path d="M51.1843 11.9682C51.2973 11.3025 51.9452 10.8002 52.5723 11.2371C52.7446 11.3471 52.8814 11.4957 52.9913 11.6562C52.1324 11.142 51.7758 11.1806 51.1843 11.9682Z" fill="black"/>
<path d="M56.0376 11.5312C56.4864 10.8952 57.271 11.1449 57.3839 11.8849C57.1699 11.6858 56.9946 11.4748 56.7806 11.4124C56.5726 11.341 56.3199 11.4451 56.0406 11.5283L56.0376 11.5312Z" fill="black"/>
<path d="M46.111 15.1453C45.7603 15.0829 45.4394 15.1007 45.1719 15.2493C44.8985 15.392 44.7023 15.6506 44.5032 15.9448C44.521 15.5911 44.7172 15.2256 45.0589 15.0383C45.2283 14.9492 45.4275 14.9076 45.6147 14.9313C45.8019 14.9492 45.9773 15.0294 46.111 15.1424V15.1453Z" fill="#313131"/>
<path d="M45.3473 15.1244C45.2611 15.4395 45.267 15.7931 45.4097 16.0963C45.5464 16.4024 45.8436 16.6313 46.1854 16.7234C45.8406 16.6699 45.4989 16.4737 45.3057 16.1528C45.1095 15.8348 45.056 15.4454 45.1155 15.0739L45.3473 15.1244Z" fill="#313131"/>
<path fill-rule="evenodd" clip-rule="evenodd" d="M51.2973 13.4929H53.4817C54.0048 13.4929 54.4357 13.9208 54.4357 14.4469C54.4357 14.9729 54.0078 15.4009 53.4817 15.4009H51.2973C50.7742 15.4009 50.3433 14.9729 50.3433 14.4469C50.3433 13.9238 50.7712 13.4929 51.2973 13.4929Z" stroke="black" stroke-width="0.0891608" stroke-miterlimit="22.93"/>
<path fill-rule="evenodd" clip-rule="evenodd" d="M51.2795 15.38C51.856 15.4692 52.5604 15.4335 53.0181 15.4127C53.1073 15.2582 53.1637 15.0799 53.1697 14.8867C53.1905 14.2982 52.7536 13.8049 52.1978 13.7841C51.6391 13.7633 51.1695 14.2239 51.1487 14.8124C51.1427 15.0175 51.1903 15.2136 51.2795 15.38Z" fill="#313131"/>
<path fill-rule="evenodd" clip-rule="evenodd" d="M55.8623 15.3653H56.9411C57.4731 15.3653 57.9041 14.9492 57.9041 14.441C57.9041 13.9327 57.4702 13.5167 56.9411 13.5167H55.4343C55.467 14.1586 55.6186 14.7887 55.8623 15.3623V15.3653Z" fill="white" stroke="black" stroke-width="0.0891608" stroke-miterlimit="22.93"/>
<path fill-rule="evenodd" clip-rule="evenodd" d="M55.8623 15.3652H56.8698C56.9471 15.2255 56.9976 15.068 57.0035 14.8956C57.0214 14.3607 56.632 13.9089 56.1297 13.8911C55.892 13.8822 55.672 13.9713 55.5056 14.1259C55.5769 14.5568 55.7018 14.9759 55.8652 15.3682L55.8623 15.3652Z" fill="black"/>
<path fill-rule="evenodd" clip-rule="evenodd" d="M39.4478 26.8015C37.0791 27.8953 37.626 28.9117 35.7506 30.7098C39.1982 31.3844 42.9073 38.9126 40.7793 45.139L44.9015 47.4126C47.9448 41.0465 49.0356 30.1689 39.4478 26.8015Z" fill="#313131"/>
<path fill-rule="evenodd" clip-rule="evenodd" d="M54.0464 31.2239C52.3643 28.0676 47.8705 24.311 44.316 23.4759C40.8328 23.9752 37.308 26.9234 35.6644 30.7336C39.959 30.3412 44.958 30.7038 49.9242 32.7991L50.4978 30.3918L54.0464 31.221V31.2239Z" fill="#DB5229"/>
<path fill-rule="evenodd" clip-rule="evenodd" d="M72.1461 39.727C78.3695 47.3383 75.9414 56.2455 69.0046 56.4565L72.1461 39.727Z" fill="#DB5229"/>
<path fill-rule="evenodd" clip-rule="evenodd" d="M39.9054 34.9271L46.5806 33.5124C46.8243 33.4619 47.068 33.6194 47.1185 33.8631L47.5524 35.9108C47.603 36.1545 47.4484 36.3982 47.2018 36.4488L40.5266 37.8634C40.2829 37.914 40.0392 37.7564 39.9886 37.5127L39.5547 35.465C39.5042 35.2213 39.6617 34.9776 39.9054 34.9241V34.9271Z" fill="#E3D645"/>
<path fill-rule="evenodd" clip-rule="evenodd" d="M43.8077 46.6013C42.9607 44.6487 39.4061 44.5387 37.4268 43.4361C35.4474 42.3335 35.914 44.6398 35.914 44.6398L39.7063 54.6198L43.8077 46.6043V46.6013Z" fill="#DB5229"/>
<path fill-rule="evenodd" clip-rule="evenodd" d="M38.3303 42.8386C38.9336 43.54 39.5102 44.0839 40.2057 44.4405C39.21 44.1433 38.1996 43.8669 37.4268 43.436C37.412 43.4271 37.3941 43.4181 37.3793 43.4122L37.3852 43.3973L38.3303 42.8386Z" fill="#DB5229"/>
<path d="M50.6048 12.1019H53.663C54.189 12.1019 54.617 12.5299 54.617 13.0559V15.7189C54.617 16.2449 54.189 16.6729 53.663 16.6729H50.6048C50.0787 16.6729 49.6508 16.2449 49.6508 15.7189V13.0559C49.6508 12.5299 50.0787 12.1019 50.6048 12.1019Z" fill="#313131"/>
<path fill-rule="evenodd" clip-rule="evenodd" d="M55.458 12.099H57.3245C57.8208 12.099 58.225 12.5151 58.225 13.0233V15.6119C58.225 16.1202 57.8178 16.5362 57.3245 16.5362H56.2456C55.6661 15.4812 55.1311 15.1721 55.1876 12.1406C55.2738 12.1139 55.3629 12.099 55.458 12.099Z" fill="#313131"/>
<path fill-rule="evenodd" clip-rule="evenodd" d="M45.6682 13.2729H49.8618C50.1828 13.2729 50.4473 13.5344 50.4473 13.8583C50.4473 14.1793 50.1828 14.4438 49.8618 14.4438H47.1394C46.7679 13.9416 46.2092 13.6236 45.5494 13.6473C45.3918 13.6503 45.2432 13.6741 45.1006 13.7127C45.166 13.4631 45.3948 13.2758 45.6653 13.2758L45.6682 13.2729Z" fill="#313131"/>
<path d="M56.4835 12.5865H53.1281V13.9447H56.4835V12.5865Z" fill="#313131"/>
<path fill-rule="evenodd" clip-rule="evenodd" d="M50.4978 30.3948L64.8378 33.7443L73.8787 30.4869L68.33 60.0527L58.2162 63.7469L43.4036 60.2369L50.4978 30.3948Z" fill="#53A86F"/>
<path fill-rule="evenodd" clip-rule="evenodd" d="M73.8757 30.4869L73.8816 30.4631L69.9289 29.1406L69.2334 32.1601L73.8757 30.4869Z" fill="#53A86F"/>
<path fill-rule="evenodd" clip-rule="evenodd" d="M58.2161 63.7468L43.4005 60.2339L43.879 58.2248C40.3899 58.6349 37.5367 58.3793 35.2661 57.6244C35.168 58.0405 35.0729 58.4655 34.9838 58.8935C37.1623 59.5206 39.8371 59.7108 43.0588 59.3304L42.5803 61.3424L57.3958 64.8524L65.3341 61.9547C65.2836 61.7169 65.2212 61.4673 65.1558 61.2087L58.2102 63.7438L58.2161 63.7468Z" fill="#DB5229"/>
<path d="M64.8378 33.7443L64.5525 33.6789L57.8417 63.6578L58.2162 63.747L58.4836 63.6489L65.2093 33.6136L64.8378 33.7443Z" fill="#53A86F"/>
<path fill-rule="evenodd" clip-rule="evenodd" d="M52.9378 12.1019H53.547L52.5692 16.6699H51.96L52.9378 12.1019Z" fill="#808080"/>
<path fill-rule="evenodd" clip-rule="evenodd" d="M51.5143 12.1019H52.4861L51.5083 16.6729H50.6048C50.584 16.6729 50.5602 16.6729 50.5394 16.6729L51.5172 12.1049L51.5143 12.1019Z" fill="#808080"/>
<path fill-rule="evenodd" clip-rule="evenodd" d="M56.6677 12.099H57.277L56.3259 16.5362H56.2457C56.1119 16.2925 55.9782 16.0875 55.8563 15.8824L56.6677 12.099Z" fill="#808080"/>
<path fill-rule="evenodd" clip-rule="evenodd" d="M36.6571 69.4918L42.613 70.4131C43.1777 70.4993 43.5641 71.0313 43.4809 71.596L42.3277 79.2608C42.2415 79.8255 41.7095 80.2148 41.1449 80.1286L35.1889 79.2073C34.6242 79.1211 34.2379 78.5891 34.3211 78.0245L35.4742 70.3566C35.5574 69.7919 36.0924 69.4026 36.6571 69.4888V69.4918Z" fill="#1F685C"/>
<path d="M37.7121 74.3184L35.911 70.6093C35.8724 70.532 35.9051 70.4399 35.9824 70.4013C36.0596 70.3626 36.1548 70.3953 36.1904 70.4726L37.8458 73.8785L42.4941 71.1502C42.5684 71.1056 42.6635 71.1324 42.7081 71.2067C42.7497 71.281 42.7259 71.3761 42.6516 71.4207L37.7091 74.3214L37.7121 74.3184Z" fill="#53A86F"/>
<path fill-rule="evenodd" clip-rule="evenodd" d="M37.7507 75.1654C38.1401 75.1654 38.4581 74.8385 38.4581 74.4372C38.4581 74.036 38.1401 73.7091 37.7507 73.7091C37.3614 73.7091 37.0404 74.036 37.0404 74.4372C37.0404 74.8385 37.3584 75.1654 37.7507 75.1654Z" fill="#53A86F"/>
<path fill-rule="evenodd" clip-rule="evenodd" d="M56.1416 99.8273C59.2414 99.7827 63.1883 99.5717 66.0058 99.2061L66.9093 109.614C65.4946 109.62 65.45 112.307 60.2757 111.246L60.0944 110.764C58.3914 106.684 56.9262 103.171 56.1416 99.8302V99.8273Z" fill="white"/>
<path fill-rule="evenodd" clip-rule="evenodd" d="M66.2644 102.267L66.3684 103.48C63.4707 103.724 60.4808 103.914 57.4196 104.045C57.277 103.646 57.1402 103.251 57.0125 102.859C60.1836 102.722 63.2745 102.523 66.2673 102.264L66.2644 102.267Z" fill="#DB5229"/>
<path d="M53.6303 19.3299C53.1874 19.5706 52.6257 19.5587 52.1502 19.3715C51.9125 19.2764 51.6896 19.1337 51.5112 18.9465C51.3329 18.7622 51.2021 18.5304 51.1516 18.2867C51.434 18.6939 51.8114 18.9733 52.2423 19.1427C52.6703 19.3121 53.1369 19.3804 53.6303 19.3299Z" fill="#313131"/>
<path fill-rule="evenodd" clip-rule="evenodd" d="M67.4561 109.626C69.5781 110.128 75.4093 113.148 77.1954 117.517C77.4718 118.191 76.9874 118.934 76.2593 118.955C71.4594 119.089 62.6147 119.086 59.1404 119.077C58.7332 119.077 58.3974 118.759 58.3736 118.355C58.2012 115.261 58.9353 113.285 59.7645 111.481C59.9072 111.171 60.2371 110.993 60.5759 111.041C65.9374 111.778 64.9685 108.975 67.4591 109.629L67.4561 109.626Z" fill="#DB5229"/>
<path d="M55.2441 13.3116C55.3362 14.5093 55.7434 15.6863 56.4596 16.6522C56.2783 17.0029 55.9157 17.1961 55.571 17.2674C55.2411 17.3417 54.8934 17.306 54.5902 17.1931C55.1787 17.2852 55.9306 17.1426 56.2367 16.6076L56.2456 16.7235C55.4967 15.7695 55.1073 14.5183 55.2441 13.3116Z" fill="#313131"/>
<path d="M33.2571 61.8181C33.2571 63.6251 32.0475 65.0873 30.5585 65.0873C29.0695 65.0873 27.8599 63.6251 27.8599 61.8181C27.8599 60.0111 29.0695 58.5488 30.5585 58.5488C32.0475 58.5488 33.2571 60.014 33.2571 61.8181Z" fill="#E3D645"/>
<path d="M31.6403 61.8181C31.6403 62.8018 30.9805 63.6013 30.1692 63.6013C29.3578 63.6013 28.698 62.8048 28.698 61.8181C28.698 60.8314 29.3578 60.0349 30.1692 60.0349C30.9805 60.0349 31.6403 60.8343 31.6403 61.8181Z" fill="#E3D645"/>
<path fill-rule="evenodd" clip-rule="evenodd" d="M51.5083 32.8675L62.6177 35.6553L61.4051 40.889L50.4146 38.128L51.5083 32.8675Z" fill="#1F685C"/>
<path fill-rule="evenodd" clip-rule="evenodd" d="M66.2882 35.9287L72.3838 33.4678L71.4595 37.9734L65.1826 40.8622L66.2882 35.9287Z" fill="#1F685C"/>
<path d="M58.3707 118.355C58.3944 118.759 58.7303 119.077 59.1374 119.077C62.6117 119.086 71.4565 119.089 76.2563 118.955C76.9547 118.937 77.4243 118.257 77.2252 117.606H58.3499C58.3499 117.85 58.3588 118.096 58.3707 118.352V118.355Z" fill="#E3D645"/>
<path fill-rule="evenodd" clip-rule="evenodd" d="M65.2955 111.522C65.343 111.57 64.8735 108.936 67.1976 107.489C68.1754 106.945 69.6079 107.204 69.703 108.205C69.703 109.84 68.8738 110.012 68.6301 111.718C68.8263 111.897 65.2955 111.522 65.2955 111.522Z" fill="#DB5229"/>
<path d="M70.5916 113.427C70.4935 113.306 70.5024 113.124 70.6183 113.014C71.5932 112.075 72.8563 112.051 73.6142 112.426C73.7657 112.5 73.8281 112.684 73.7538 112.836C73.6795 112.988 73.4953 113.05 73.3437 112.976C72.8652 112.741 71.8577 112.673 71.0433 113.454C70.9215 113.57 70.7283 113.567 70.6094 113.445C70.6035 113.439 70.5975 113.433 70.5916 113.427Z" fill="#E3D645"/>
<path d="M69.4384 112.455C69.3374 112.331 69.3493 112.143 69.4711 112.033C70.4608 111.142 71.3435 111.169 72.0954 111.264C72.2619 111.285 72.3837 111.439 72.3629 111.605C72.3421 111.775 72.1876 111.894 72.0211 111.87C71.3495 111.784 70.6807 111.769 69.8842 112.488C69.7594 112.601 69.5662 112.592 69.4503 112.464C69.4474 112.461 69.4444 112.455 69.4414 112.453L69.4384 112.455Z" fill="#E3D645"/>
<path d="M68.1278 111.504V111.498C68.0208 111.365 68.0446 111.172 68.1754 111.068C69.2869 110.2 70.0567 110.247 70.7254 110.426C70.8888 110.47 70.9839 110.64 70.9423 110.8C70.8977 110.964 70.7313 111.062 70.5649 111.017C70.0656 110.883 69.4979 110.812 68.5528 111.549C68.422 111.65 68.2318 111.629 68.1278 111.501V111.504Z" fill="#E3D645"/>
<path d="M40.2585 108.501L37.556 108.338C37.012 108.305 36.5444 108.719 36.5115 109.263L36.3876 111.313C36.3547 111.857 36.769 112.325 37.3129 112.358L40.0155 112.521C40.5595 112.554 41.0271 112.14 41.06 111.596L41.1839 109.546C41.2168 109.002 40.8025 108.534 40.2585 108.501Z" fill="#DB5229"/>
<path fill-rule="evenodd" clip-rule="evenodd" d="M42.7348 46.9875C44.0663 45.1092 46.2181 45.2905 46.9432 45.3054C46.5955 47.047 46.5806 46.9548 46.3993 47.6979C48.5778 49.7337 52.8546 50.8244 54.5219 51.086C54.8488 51.1365 55.0628 51.4456 55.0093 51.7695C54.8845 52.5274 54.1831 53.4041 53.0716 53.6062C53.2528 54.697 52.1443 55.6659 51.2348 55.7669C50.8722 57.9068 45.5464 58.3526 41.8254 55.5856C41.1834 55.1071 40.7228 54.1917 40.7198 53.3923C40.7109 50.9136 41.5222 48.6994 42.7348 46.9846V46.9875Z" fill="#FDBF9F"/>
<path fill-rule="evenodd" clip-rule="evenodd" d="M71.1682 44.6992C70.978 45.8493 70.8591 46.2773 70.7372 47.1095C69.1829 48.6638 67.6879 49.2285 65.8096 49.4514C65.5838 49.4782 65.34 49.8051 65.3371 50.0993C65.3282 50.7859 65.6907 51.6299 66.4159 51.9152C66.1574 52.8663 66.7845 53.8322 67.3878 54.0076C67.7504 54.7803 68.8084 55.9215 71.2811 55.027C76.0156 53.3478 75.6827 46.6548 71.1652 44.6992H71.1682Z" fill="#FDBF9F"/>
<path d="M56.4447 43.9086C56.2099 44.9904 55.9544 46.0544 55.7612 47.1303C55.5799 48.2091 55.4105 49.285 55.3065 50.3668C55.1876 51.4486 55.1341 52.5364 55.1044 53.6301C55.0836 54.7208 55.1103 55.8145 55.1816 56.9172C54.8755 55.8502 54.7358 54.7446 54.6645 53.639C54.5872 52.5304 54.6288 51.4159 54.7388 50.3103C54.9736 48.1021 55.5234 45.9177 56.4477 43.9086H56.4447Z" fill="#53A86F"/>
<path d="M64.0769 52.2333C64.5435 51.419 65.019 50.6225 65.447 49.7992C65.8661 48.973 66.2762 48.1468 66.6358 47.2938C67.0073 46.4468 67.3283 45.5819 67.6285 44.7052C67.9227 43.8284 68.1783 42.9368 68.4012 42.0244C68.3774 42.9635 68.211 43.8938 67.9881 44.8092C67.7682 45.7246 67.4531 46.6162 67.0846 47.484C66.3327 49.2108 65.3341 50.8394 64.0769 52.2303V52.2333Z" fill="#53A86F"/>
</g>
<defs>
<clipPath id="clip0_610_29324">
<rect width="155.036" height="119.505" fill="white"/>
</clipPath>
</defs>
</svg>
